<?xml version="1.0" encoding="UTF-8"?><svg id="a" xmlns="http://www.w3.org/2000/svg" viewBox="0 0 600 600"><defs><style>.b{fill:#a8705a;}.c{fill:#ac745e;}.d{fill:#c28971;}.e{fill:#efb499;}.f{fill:#dea48a;}.g{fill:#955e4a;}.h{fill:#a06853;}.i{fill:#b77e67;}.j{fill:none;stroke-width:4px;}.j,.k,.l,.m,.n{stroke:#000;stroke-miterlimit:10;}.o{fill:#e1a78d;}.p{fill:#fff;}.q{fill:#b98069;}.r{fill:#c68d75;}.s{fill:#ebb096;}.t{fill:#ba816a;}.u{fill:#f0b59a;}.v{fill:#e8ad93;}.w{fill:#af7761;}.x{fill:#c28972;}.y{fill:#a56d58;}.a`{fill:#ecb197;}.aa{fill:#965f4b;}.ab{fill:#cebcba;opacity:.46;}.ac{fill:#edb297;}.ad{fill:#bc836c;}.ae{fill:#9b644f;}.af{fill:#ffa561;}.ag{fill:#aa725c;}.ah{fill:#eaaf95;}.ai{fill:#d79d84;}.aj{fill:#d0977e;}.ak{fill:#d99f86;}.al{fill:#9d6651;}.am{fill:#97604c;}.an{opacity:.78;}.an,.l,.ao,.ap{fill:#875444;}.aq{fill:#e9ae94;}.ar{fill:#e7ac92;}.as{fill:#dca289;}.at{fill:#bd846d;}.au{fill:#c58c75;}.k{fill:#f9a157;}.k,.l,.m,.n{stroke-width:2px;}.av{fill:#ae7660;}.aw{fill:#a9715b;}.ax{fill:#c38a73;}.ay{fill:#e5ab90;}.b`{fill:#a16954;}.ba{fill:#b37a64;}.bb{fill:#b27963;}.bc{fill:#9e6652;}.bd{fill:#b57c66;}.be{fill:#99624d;}.bf{fill:#c69087;}.bg{fill:#dba188;}.bh{fill:#eeb398;}.bi{fill:#b07761;}.bj{fill:#9f6753;}.bk{fill:#c18870;}.bl{opacity:.22;}.bm{fill:#e3a98f;}.bn,.n{fill:#945d49;}.bo{fill:#9a634e;}.bp{fill:#e4aa90;}.m,.bq{fill:#26201f;}.br{fill:#f4e5d7;}.bs{fill:#e0a68c;}.bt{fill:#d49b82;}.bu{opacity:.19;}.bv{fill:#cd947c;}.bw{fill:#d59b82;}.bx{fill:#ce957c;}.by{fill:#b87f68;}.c`{fill:#e2a88e;}.ca{fill:#dfa58b;}.cb{fill:#bb826b;}.cc{fill:#a46c57;}.cd{opacity:.26;}.ce{fill:#dda389;}.cf{fill:#c88f77;}.cg{fill:#b47b65;}.ch{fill:#ca9179;}.ci{fill:#9c6550;}.cj{fill:#be856e;}.ck{fill:#d29980;}.cl{fill:#cf967d;}.cm{fill:#a26a55;}.cn{fill:#c48b74;}.co{fill:#d39a81;}.cp{fill:#a36b56;}.cq{fill:#d69c83;}.cr{fill:#bf866e;}.cs{fill:#d89e85;}.ct{fill:#c99078;}.cu{fill:#b67d67;}.cv{fill:#a76f5a;}.cw{fill:#ab735d;}.cx{fill:#c0876f;}.cy{fill:#e6ac91;}.d`{fill:#d1987f;}.da{fill:#98614c;}.db{fill:#daa087;}.dc{fill:#cb927a;}.dd{opacity:.09;}.de{fill:#a66e59;}.df{fill:#c78e76;}.ap{opacity:.5;}.dg{fill:#cc937b;}.dh{fill:#b17862;}.di{fill:#ad755f;}</style></defs><ellipse class="br" cx="298.93" cy="297.46" rx="282.74" ry="282.25"/><path class="ao" d="M397.31,524.75v-137.39c-30.55-9.2-66.96-14.21-110.4-14.21-26.58,0-51.78,2.67-75.43,7.76v143.84h185.83Z"/><path class="l" d="M389.83,380.12c-32.86-8.31-67.13-6.97-100.79-6.97-22.8,0-46.44-.66-62.45,3.1-19.45,1.85-37.13,4.45-53.39,7.83v112.74h216.63v-116.7Z"/><path class="k" d="M528.96,461.48c-18.9-41.6-107.68-85.65-152.66-83.67-4.12,42.88-49.19,72.39-88.63,72.39-70.88,0-94.32-59.38-95.83-69.57-60.73,9.77-102.41,29-136.26,60.48h0c1.34,2.25,2.72,4.48,4.12,6.69,.52,.83,1.05,1.65,1.58,2.47,2.83,4.37,5.76,8.67,8.82,12.87,.15,.21,.29,.42,.44,.62,1.52,2.07,3.07,4.11,4.64,6.14,.65,.84,1.32,1.68,1.98,2.51,2.89,3.65,5.87,7.23,8.94,10.73,.52,.59,1.02,1.19,1.54,1.78,1.62,1.81,3.26,3.6,4.92,5.37,.88,.94,1.78,1.87,2.67,2.8,2.76,2.87,5.59,5.68,8.47,8.43,1.01,.96,2,1.93,3.02,2.88,1.64,1.52,3.3,3.01,4.98,4.49,1.22,1.07,2.45,2.13,3.68,3.19,2.45,2.09,4.93,4.13,7.45,6.14,1.61,1.28,3.21,2.56,4.85,3.8,1.59,1.21,3.19,2.39,4.8,3.56,1.65,1.2,3.32,2.38,5,3.55,2,1.4,4.02,2.77,6.06,4.12,2.24,1.47,4.49,2.92,6.77,4.33,1.49,.92,3,1.82,4.51,2.72,2.15,1.27,4.32,2.51,6.5,3.73,1.5,.84,2.99,1.67,4.5,2.48,2.85,1.52,5.73,2.99,8.64,4.42,1.37,.67,2.75,1.33,4.14,1.98,2.67,1.25,5.36,2.47,8.07,3.64,1.02,.44,2.03,.9,3.05,1.33,3.38,1.41,6.8,2.75,10.25,4.03,1.25,.47,2.5,.92,3.75,1.37,3.18,1.14,6.38,2.22,9.61,3.25,.63,.2,1.26,.42,1.89,.62,3.77,1.16,7.58,2.23,11.41,3.24,1.14,.3,2.29,.59,3.44,.88,3.65,.91,7.32,1.77,11.02,2.54,.35,.07,.7,.16,1.06,.23,4.01,.82,8.07,1.52,12.14,2.16,1.09,.17,2.17,.34,3.26,.5,4.01,.59,8.04,1.12,12.11,1.54,.15,.01,.29,.04,.44,.05,4.2,.43,8.44,.73,12.7,.96,1.06,.06,2.13,.11,3.19,.16,4.29,.19,8.6,.33,12.94,.33,94.85,0,178.73-46.68,230.02-118.22Z"/><path class="af" d="M187.72,388.13s24.94,66.8,100.02,67.11c75.08,.31,89.73-71.47,89.73-71.47l32.56,2.83s-16.14,90.08-122.29,93.18c-106.14,3.11-127.39-85.44-127.39-85.44l27.36-6.21Z"/><polyline class="l" points="241.45 403.58 242.15 285.91 352.31 280.67 341 402.3"/><g><path class="l" d="M416.14,217.72c11.27,4.2,16.19,21.74,10.98,39.18-5.21,17.44-18.57,28.18-29.84,23.98-11.27-4.2-16.19-21.74-10.98-39.18,5.21-17.44,18.57-28.18,29.84-23.98Z"/><path class="n" d="M197.45,120.39c18.5-58.46,92.09-61.42,135.19-48.04,51.39,15.96,67.83,69.6,73.48,118.62,2.51,21.77,7.09,47.01,5.82,68.95-5.23,90.47-64.01,106.23-108.29,105.8-78.12-.75-116.58-54.87-111.1-114.5,3.78-41.14-11.29-79.65,4.9-130.83Z"/><g class="bl"><ellipse class="bn" cx="371.23" cy="247.74" rx="38.52" ry="66.62" transform="translate(-10.5 16.51) rotate(-2.51)"/><ellipse class="g" cx="371.23" cy="247.74" rx="38.33" ry="66.29" transform="translate(-10.5 16.51) rotate(-2.51)"/><ellipse class="aa" cx="371.23" cy="247.74" rx="38.14" ry="65.96" transform="translate(-10.5 16.51) rotate(-2.51)"/><ellipse class="am" cx="371.23" cy="247.74" rx="37.95" ry="65.64" transform="translate(-10.5 16.51) rotate(-2.51)"/><ellipse class="da" cx="371.23" cy="247.74" rx="37.76" ry="65.31" transform="translate(-10.5 16.51) rotate(-2.51)"/><ellipse class="be" cx="371.23" cy="247.74" rx="37.57" ry="64.98" transform="translate(-10.5 16.51) rotate(-2.51)"/><ellipse class="bo" cx="371.23" cy="247.74" rx="37.38" ry="64.65" transform="translate(-10.5 16.51) rotate(-2.51)"/><ellipse class="ae" cx="371.23" cy="247.74" rx="37.19" ry="64.33" transform="translate(-10.5 16.51) rotate(-2.51)"/><ellipse class="ci" cx="371.23" cy="247.74" rx="37" ry="64" transform="translate(-10.5 16.51) rotate(-2.51)"/><ellipse class="al" cx="371.23" cy="247.74" rx="36.81" ry="63.67" transform="translate(-10.5 16.51) rotate(-2.51)"/><ellipse class="bc" cx="371.23" cy="247.74" rx="36.62" ry="63.34" transform="translate(-10.5 16.51) rotate(-2.51)"/><ellipse class="bj" cx="371.23" cy="247.74" rx="36.43" ry="63.02" transform="translate(-10.5 16.51) rotate(-2.51)"/><ellipse class="h" cx="371.23" cy="247.74" rx="36.24" ry="62.69" transform="translate(-10.5 16.51) rotate(-2.51)"/><ellipse class="b`" cx="371.23" cy="247.74" rx="36.06" ry="62.36" transform="translate(-10.5 16.51) rotate(-2.51)"/><ellipse class="cm" cx="371.23" cy="247.74" rx="35.87" ry="62.03" transform="translate(-10.5 16.51) rotate(-2.51)"/><ellipse class="cp" cx="371.23" cy="247.74" rx="35.68" ry="61.71" transform="translate(-10.5 16.51) rotate(-2.51)"/><ellipse class="cc" cx="371.23" cy="247.74" rx="35.49" ry="61.38" transform="translate(-10.5 16.51) rotate(-2.51)"/><ellipse class="y" cx="371.23" cy="247.74" rx="35.3" ry="61.05" transform="translate(-10.5 16.51) rotate(-2.51)"/><ellipse class="de" cx="371.23" cy="247.74" rx="35.11" ry="60.73" transform="translate(-10.5 16.51) rotate(-2.51)"/><ellipse class="cv" cx="371.23" cy="247.74" rx="34.92" ry="60.4" transform="translate(-10.5 16.51) rotate(-2.51)"/><ellipse class="b" cx="371.23" cy="247.74" rx="34.73" ry="60.07" transform="translate(-10.5 16.51) rotate(-2.51)"/><ellipse class="aw" cx="371.23" cy="247.74" rx="34.54" ry="59.74" transform="translate(-10.5 16.51) rotate(-2.51)"/><ellipse class="ag" cx="371.23" cy="247.74" rx="34.35" ry="59.42" transform="translate(-10.5 16.51) rotate(-2.51)"/><ellipse class="cw" cx="371.23" cy="247.74" rx="34.16" ry="59.09" transform="translate(-10.5 16.51) rotate(-2.51)"/><ellipse class="c" cx="371.23" cy="247.74" rx="33.97" ry="58.76" transform="translate(-10.5 16.51) rotate(-2.51)"/><ellipse class="di" cx="371.23" cy="247.74" rx="33.78" ry="58.43" transform="translate(-10.5 16.51) rotate(-2.51)"/><ellipse class="av" cx="371.23" cy="247.74" rx="33.59" ry="58.11" transform="translate(-10.5 16.51) rotate(-2.51)"/><ellipse class="w" cx="371.23" cy="247.74" rx="33.41" ry="57.78" transform="translate(-10.5 16.51) rotate(-2.51)"/><ellipse class="bi" cx="371.23" cy="247.74" rx="33.22" ry="57.45" transform="translate(-10.5 16.51) rotate(-2.51)"/><ellipse class="dh" cx="371.23" cy="247.74" rx="33.03" ry="57.12" transform="translate(-10.5 16.51) rotate(-2.51)"/><ellipse class="bb" cx="371.23" cy="247.74" rx="32.84" ry="56.8" transform="translate(-10.5 16.51) rotate(-2.51)"/><ellipse class="ba" cx="371.23" cy="247.74" rx="32.65" ry="56.47" transform="translate(-10.5 16.51) rotate(-2.51)"/><ellipse class="cg" cx="371.23" cy="247.74" rx="32.46" ry="56.14" transform="translate(-10.5 16.51) rotate(-2.51)"/><ellipse class="bd" cx="371.23" cy="247.74" rx="32.27" ry="55.82" transform="translate(-10.5 16.51) rotate(-2.51)"/><ellipse class="cu" cx="371.23" cy="247.74" rx="32.08" ry="55.49" transform="translate(-10.5 16.51) rotate(-2.51)"/><ellipse class="i" cx="371.23" cy="247.74" rx="31.89" ry="55.16" transform="translate(-10.5 16.51) rotate(-2.51)"/><ellipse class="by" cx="371.23" cy="247.74" rx="31.7" ry="54.83" transform="translate(-10.5 16.51) rotate(-2.51)"/><ellipse class="q" cx="371.23" cy="247.74" rx="31.51" ry="54.51" transform="translate(-10.5 16.51) rotate(-2.51)"/><ellipse class="t" cx="371.23" cy="247.74" rx="31.32" ry="54.18" transform="translate(-10.5 16.51) rotate(-2.51)"/><ellipse class="cb" cx="371.23" cy="247.74" rx="31.13" ry="53.85" transform="translate(-10.5 16.51) rotate(-2.51)"/><ellipse class="ad" cx="371.23" cy="247.74" rx="30.95" ry="53.52" transform="translate(-10.5 16.51) rotate(-2.51)"/><ellipse class="at" cx="371.23" cy="247.74" rx="30.76" ry="53.2" transform="translate(-10.5 16.51) rotate(-2.51)"/><ellipse class="cj" cx="371.23" cy="247.74" rx="30.57" ry="52.87" transform="translate(-10.5 16.51) rotate(-2.51)"/><ellipse class="cr" cx="371.23" cy="247.74" rx="30.38" ry="52.54" transform="translate(-10.5 16.51) rotate(-2.51)"/><ellipse class="cx" cx="371.23" cy="247.74" rx="30.19" ry="52.21" transform="translate(-10.5 16.51) rotate(-2.51)"/><ellipse class="bk" cx="371.23" cy="247.74" rx="30" ry="51.89" transform="translate(-10.5 16.51) rotate(-2.51)"/><ellipse class="d" cx="371.23" cy="247.74" rx="29.81" ry="51.56" transform="translate(-10.5 16.51) rotate(-2.51)"/><ellipse class="x" cx="371.23" cy="247.74" rx="29.62" ry="51.23" transform="translate(-10.5 16.51) rotate(-2.51)"/><ellipse class="ax" cx="371.23" cy="247.74" rx="29.43" ry="50.91" transform="translate(-10.5 16.51) rotate(-2.51)"/><ellipse class="cn" cx="371.23" cy="247.74" rx="29.24" ry="50.58" transform="translate(-10.5 16.51) rotate(-2.51)"/><ellipse class="au" cx="371.23" cy="247.74" rx="29.05" ry="50.25" transform="translate(-10.5 16.51) rotate(-2.51)"/><ellipse class="r" cx="371.23" cy="247.74" rx="28.86" ry="49.92" transform="translate(-10.5 16.51) rotate(-2.51)"/><ellipse class="df" cx="371.23" cy="247.74" rx="28.67" ry="49.6" transform="translate(-10.5 16.51) rotate(-2.51)"/><ellipse class="cf" cx="371.23" cy="247.74" rx="28.48" ry="49.27" transform="translate(-10.5 16.51) rotate(-2.51)"/><ellipse class="ct" cx="371.23" cy="247.74" rx="28.3" ry="48.94" transform="translate(-10.5 16.51) rotate(-2.51)"/><ellipse class="ch" cx="371.23" cy="247.74" rx="28.11" ry="48.61" transform="translate(-10.5 16.51) rotate(-2.51)"/><ellipse class="dc" cx="371.23" cy="247.74" rx="27.92" ry="48.29" transform="translate(-10.5 16.51) rotate(-2.51)"/><path class="dg" d="M398.99,248.61c.49,26.47-11.54,47.53-26.87,47.05-15.34-.48-28.17-22.32-28.66-48.79-.49-26.47,11.54-47.53,26.87-47.05,15.34,.48,28.17,22.32,28.66,48.79Z"/><path class="bv" d="M398.8,248.6c.49,26.29-11.46,47.21-26.69,46.73-15.23-.48-27.98-22.17-28.47-48.46-.49-26.29,11.46-47.21,26.69-46.73,15.23,.48,27.98,22.17,28.47,48.46Z"/><path class="bx" d="M398.61,248.59c.49,26.1-11.38,46.88-26.5,46.41-15.13-.47-27.78-22.02-28.27-48.12-.49-26.1,11.38-46.88,26.5-46.41,15.13,.47,27.78,22.02,28.27,48.12Z"/><path class="cl" d="M398.43,248.59c.48,25.92-11.3,46.56-26.32,46.09-15.02-.47-27.59-21.87-28.08-47.79-.48-25.92,11.3-46.56,26.32-46.09,15.02,.47,27.59,21.87,28.08,47.79Z"/><path class="aj" d="M398.24,248.58c.48,25.74-11.22,46.23-26.14,45.77-14.92-.47-27.4-21.71-27.88-47.46-.48-25.74,11.22-46.23,26.14-45.77,14.92,.47,27.4,21.71,27.88,47.46Z"/><path class="d`" d="M398.05,248.58c.48,25.56-11.14,45.91-25.95,45.45-14.81-.46-27.21-21.56-27.68-47.12-.48-25.56,11.14-45.91,25.95-45.45,14.81,.46,27.21,21.56,27.68,47.12Z"/><path class="ck" d="M397.86,248.57c.47,25.38-11.06,45.58-25.77,45.12-14.71-.46-27.01-21.41-27.49-46.79-.47-25.38,11.06-45.59,25.77-45.12,14.71,.46,27.01,21.41,27.49,46.79Z"/><path class="co" d="M397.67,248.56c.47,25.2-10.98,45.26-25.59,44.8-14.6-.46-26.82-21.26-27.29-46.46-.47-25.2,10.98-45.26,25.59-44.8,14.6,.46,26.82,21.26,27.29,46.46Z"/><path class="bt" d="M397.48,248.56c.47,25.02-10.91,44.94-25.4,44.48-14.5-.45-26.63-21.1-27.1-46.13-.47-25.02,10.91-44.94,25.4-44.48,14.5,.45,26.63,21.1,27.1,46.13Z"/><path class="bw" d="M397.29,248.55c.46,24.84-10.83,44.61-25.22,44.16-14.39-.45-26.44-20.95-26.9-45.79-.46-24.84,10.83-44.61,25.22-44.16,14.39,.45,26.44,20.95,26.9,45.79Z"/><path class="cq" d="M397.1,248.55c.46,24.66-10.75,44.29-25.04,43.84-14.29-.45-26.25-20.8-26.71-45.46-.46-24.66,10.75-44.29,25.04-43.84,14.29,.45,26.25,20.8,26.71,45.46Z"/><path class="ai" d="M396.91,248.54c.46,24.48-10.67,43.96-24.85,43.52-14.18-.44-26.05-20.65-26.51-45.13-.46-24.48,10.67-43.96,24.85-43.52,14.18,.44,26.05,20.65,26.51,45.13Z"/><path class="cs" d="M396.72,248.54c.45,24.3-10.59,43.64-24.67,43.2-14.08-.44-25.86-20.5-26.31-44.79-.45-24.3,10.59-43.64,24.67-43.2,14.08,.44,25.86,20.5,26.31,44.79Z"/><path class="ak" d="M396.53,248.53c.45,24.12-10.51,43.31-24.49,42.88-13.97-.44-25.67-20.34-26.12-44.46-.45-24.12,10.51-43.31,24.49-42.88,13.97,.44,25.67,20.34,26.12,44.46Z"/><path class="db" d="M396.34,248.52c.45,23.94-10.43,42.99-24.3,42.56-13.87-.43-25.48-20.19-25.92-44.13-.45-23.94,10.43-42.99,24.3-42.56,13.87,.43,25.48,20.19,25.92,44.13Z"/><path class="bg" d="M396.15,248.52c.44,23.76-10.35,42.67-24.12,42.23-13.77-.43-25.28-20.04-25.73-43.79-.44-23.76,10.35-42.67,24.12-42.23,13.77,.43,25.28,20.04,25.73,43.79Z"/><path class="as" d="M395.96,248.51c.44,23.58-10.28,42.34-23.94,41.91-13.66-.43-25.09-19.89-25.53-43.46-.44-23.58,10.28-42.34,23.94-41.91,13.66,.43,25.09,19.89,25.53,43.46Z"/><path class="ce" d="M395.77,248.51c.44,23.4-10.2,42.02-23.75,41.59-13.56-.42-24.9-19.73-25.34-43.13-.44-23.39,10.2-42.02,23.75-41.59,13.56,.42,24.9,19.73,25.34,43.13Z"/><path class="f" d="M395.58,248.5c.43,23.21-10.12,41.69-23.57,41.27-13.45-.42-24.71-19.58-25.14-42.8-.43-23.21,10.12-41.69,23.57-41.27,13.45,.42,24.71,19.58,25.14,42.8Z"/><path class="ca" d="M395.39,248.49c.43,23.03-10.04,41.37-23.39,40.95-13.35-.42-24.51-19.43-24.95-42.46-.43-23.03,10.04-41.37,23.39-40.95,13.35,.42,24.51,19.43,24.95,42.46Z"/><path class="bs" d="M395.2,248.49c.43,22.85-9.96,41.04-23.2,40.63-13.24-.41-24.32-19.28-24.75-42.13-.43-22.85,9.96-41.04,23.2-40.63,13.24,.41,24.32,19.28,24.75,42.13Z"/><path class="o" d="M395.01,248.48c.42,22.67-9.88,40.72-23.02,40.31-13.14-.41-24.13-19.12-24.55-41.8-.42-22.67,9.88-40.72,23.02-40.31,13.14,.41,24.13,19.12,24.55,41.8Z"/><path class="c`" d="M394.82,248.48c.42,22.49-9.8,40.39-22.84,39.99-13.03-.41-23.94-18.97-24.36-41.46-.42-22.49,9.8-40.39,22.84-39.99,13.03,.41,23.94,18.97,24.36,41.46Z"/><path class="bm" d="M394.64,248.47c.42,22.31-9.72,40.07-22.65,39.67-12.93-.4-23.75-18.82-24.16-41.13-.42-22.31,9.72-40.07,22.65-39.67,12.93,.4,23.75,18.82,24.16,41.13Z"/><path class="bp" d="M394.45,248.46c.41,22.13-9.65,39.75-22.47,39.34-12.82-.4-23.55-18.67-23.97-40.8-.41-22.13,9.65-39.75,22.47-39.34,12.82,.4,23.55,18.67,23.97,40.8Z"/><path class="ay" d="M394.26,248.46c.41,21.95-9.57,39.42-22.29,39.02-12.72-.4-23.36-18.51-23.77-40.46-.41-21.95,9.57-39.42,22.29-39.02,12.72,.4,23.36,18.51,23.77,40.46Z"/><path class="cy" d="M394.07,248.45c.41,21.77-9.49,39.1-22.1,38.7-12.61-.39-23.17-18.36-23.58-40.13-.41-21.77,9.49-39.1,22.1-38.7,12.61,.39,23.17,18.36,23.58,40.13Z"/><path class="ar" d="M393.88,248.45c.4,21.59-9.41,38.77-21.92,38.38-12.51-.39-22.98-18.21-23.38-39.8-.4-21.59,9.41-38.77,21.92-38.38,12.51,.39,22.98,18.21,23.38,39.8Z"/><path class="v" d="M393.69,248.44c.4,21.41-9.33,38.45-21.74,38.06-12.4-.39-22.78-18.06-23.18-39.47-.4-21.41,9.33-38.45,21.74-38.06,12.4,.39,22.78,18.06,23.18,39.47Z"/><path class="aq" d="M393.5,248.43c.4,21.23-9.25,38.12-21.55,37.74-12.3-.38-22.59-17.91-22.99-39.13-.4-21.23,9.25-38.12,21.55-37.74,12.3,.38,22.59,17.91,22.99,39.13Z"/><path class="ah" d="M393.31,248.43c.39,21.05-9.17,37.8-21.37,37.42-12.2-.38-22.4-17.75-22.79-38.8-.39-21.05,9.17-37.8,21.37-37.42,12.2,.38,22.4,17.75,22.79,38.8Z"/><path class="s" d="M393.12,248.42c.39,20.87-9.09,37.47-21.18,37.1-12.09-.38-22.21-17.6-22.6-38.47-.39-20.87,9.09-37.47,21.18-37.1,12.09,.38,22.21,17.6,22.6,38.47Z"/><path class="a`" d="M392.93,248.42c.39,20.69-9.02,37.15-21,36.77-11.99-.38-22.02-17.45-22.4-38.13-.39-20.69,9.02-37.15,21-36.77,11.99,.38,22.02,17.45,22.4,38.13Z"/><path class="ac" d="M392.74,248.41c.38,20.51-8.94,36.83-20.82,36.45-11.88-.37-21.82-17.3-22.21-37.8-.38-20.5,8.94-36.83,20.82-36.45,11.88,.37,21.82,17.3,22.21,37.8Z"/><path class="bh" d="M392.55,248.4c.38,20.32-8.86,36.5-20.63,36.13-11.78-.37-21.63-17.14-22.01-37.47-.38-20.32,8.86-36.5,20.63-36.13,11.78,.37,21.63,17.14,22.01,37.47Z"/><path class="e" d="M392.36,248.4c.38,20.14-8.78,36.18-20.45,35.81-11.67-.37-21.44-16.99-21.82-37.13-.38-20.14,8.78-36.18,20.45-35.81,11.67,.37,21.44,16.99,21.82,37.13Z"/><path class="u" d="M392.17,248.39c.37,19.96-8.7,35.85-20.27,35.49-11.57-.36-21.25-16.84-21.62-36.8-.37-19.96,8.7-35.85,20.27-35.49,11.57,.36,21.25,16.84,21.62,36.8Z"/></g><g class="bl"><path class="bn" d="M285.88,252.31c.71,37.06-16.87,66.53-39.26,65.83-22.39-.7-41.12-31.31-41.83-68.37-.71-37.06,16.87-66.53,39.26-65.83,22.39,.7,41.12,31.31,41.83,68.37Z"/><path class="g" d="M285.68,252.3c.71,36.88-16.78,66.21-39.06,65.51-22.28-.7-40.92-31.16-41.62-68.04-.71-36.88,16.78-66.21,39.06-65.51,22.28,.7,40.92,31.16,41.62,68.04Z"/><path class="aa" d="M285.49,252.3c.7,36.7-16.7,65.88-38.87,65.18-22.17-.7-40.72-31.01-41.42-67.7-.7-36.7,16.7-65.88,38.87-65.18,22.17,.7,40.71,31.01,41.42,67.7Z"/><path class="am" d="M285.29,252.29c.7,36.51-16.62,65.55-38.68,64.86-22.06-.69-40.51-30.85-41.21-67.37-.7-36.51,16.62-65.55,38.68-64.86,22.06,.69,40.51,30.85,41.21,67.37Z"/><path class="da" d="M285.09,252.28c.7,36.33-16.53,65.22-38.48,64.54-21.95-.69-40.31-30.7-41.01-67.03-.7-36.33,16.53-65.22,38.48-64.54,21.95,.69,40.31,30.7,41.01,67.03Z"/><path class="be" d="M284.89,252.28c.69,36.15-16.45,64.9-38.29,64.21-21.84-.69-40.11-30.55-40.8-66.69-.69-36.15,16.45-64.9,38.29-64.21,21.84,.69,40.11,30.55,40.8,66.69Z"/><path class="bo" d="M284.69,252.27c.69,35.97-16.37,64.57-38.1,63.89-21.73-.68-39.91-30.39-40.6-66.36-.69-35.97,16.37-64.57,38.1-63.89,21.73,.68,39.91,30.39,40.6,66.36Z"/><path class="ae" d="M284.49,252.27c.69,35.78-16.29,64.24-37.91,63.57-21.62-.68-39.7-30.24-40.39-66.02-.69-35.78,16.29-64.24,37.91-63.57,21.62,.68,39.7,30.24,40.39,66.02Z"/><path class="ci" d="M284.29,252.26c.68,35.6-16.2,63.92-37.71,63.24-21.51-.67-39.5-30.08-40.19-65.69-.68-35.6,16.2-63.92,37.71-63.24,21.51,.67,39.5,30.08,40.19,65.69Z"/><path class="al" d="M284.09,252.25c.68,35.42-16.12,63.59-37.52,62.92-21.4-.67-39.3-29.93-39.98-65.35-.68-35.42,16.12-63.59,37.52-62.92,21.4,.67,39.3,29.93,39.98,65.35Z"/><path class="bc" d="M283.89,252.25c.68,35.24-16.04,63.26-37.33,62.59-21.29-.67-39.1-29.78-39.77-65.01-.68-35.24,16.04-63.26,37.33-62.59,21.29,.67,39.1,29.78,39.77,65.01Z"/><path class="bj" d="M283.69,252.24c.67,35.06-15.95,62.94-37.13,62.27-21.18-.66-38.9-29.62-39.57-64.68-.67-35.06,15.95-62.94,37.13-62.27,21.18,.66,38.9,29.62,39.57,64.68Z"/><path class="h" d="M283.49,252.23c.67,34.87-15.87,62.61-36.94,61.95-21.07-.66-38.69-29.47-39.36-64.34-.67-34.87,15.87-62.61,36.94-61.95,21.07,.66,38.69,29.47,39.36,64.34Z"/><path class="b`" d="M283.29,252.23c.67,34.69-15.79,62.28-36.75,61.62-20.96-.66-38.49-29.31-39.16-64.01-.67-34.69,15.79-62.28,36.75-61.62,20.96,.66,38.49,29.31,39.16,64.01Z"/><path class="cm" d="M283.09,252.22c.66,34.51-15.7,61.96-36.56,61.3-20.85-.65-38.29-29.16-38.95-63.67-.66-34.51,15.7-61.96,36.56-61.3,20.85,.65,38.29,29.16,38.95,63.67Z"/><path class="cp" d="M282.9,252.22c.66,34.33-15.62,61.63-36.36,60.98-20.74-.65-38.09-29.01-38.75-63.33-.66-34.33,15.62-61.63,36.36-60.98,20.74,.65,38.09,29.01,38.75,63.33Z"/><path class="cc" d="M282.7,252.21c.65,34.15-15.54,61.3-36.17,60.65-20.63-.65-37.89-28.85-38.54-63-.65-34.15,15.54-61.3,36.17-60.65,20.63,.65,37.89,28.85,38.54,63Z"/><path class="y" d="M282.5,252.2c.65,33.96-15.46,60.97-35.98,60.33-20.52-.64-37.68-28.7-38.34-62.66-.65-33.96,15.46-60.97,35.98-60.33,20.52,.64,37.68,28.7,38.34,62.66Z"/><path class="de" d="M282.3,252.2c.65,33.78-15.37,60.65-35.78,60.01-20.41-.64-37.48-28.55-38.13-62.33-.65-33.78,15.37-60.65,35.78-60.01,20.41,.64,37.48,28.55,38.13,62.33Z"/><path class="cv" d="M282.1,252.19c.64,33.6-15.29,60.32-35.59,59.68-20.3-.64-37.28-28.39-37.92-61.99-.64-33.6,15.29-60.32,35.59-59.68,20.3,.64,37.28,28.39,37.92,61.99Z"/><path class="b" d="M281.9,252.18c.64,33.42-15.21,59.99-35.4,59.36-20.19-.63-37.08-28.24-37.72-61.65-.64-33.42,15.21-59.99,35.4-59.36,20.19,.63,37.08,28.24,37.72,61.65Z"/><path class="aw" d="M281.7,252.18c.64,33.24-15.12,59.67-35.21,59.04-20.08-.63-36.88-28.08-37.51-61.32-.64-33.24,15.12-59.67,35.21-59.04,20.08,.63,36.88,28.08,37.51,61.32Z"/><path class="ag" d="M281.5,252.17c.63,33.05-15.04,59.34-35.01,58.71-19.97-.63-36.67-27.93-37.31-60.98-.63-33.05,15.04-59.34,35.01-58.71,19.97,.63,36.67,27.93,37.31,60.98Z"/><path class="cw" d="M281.3,252.17c.63,32.87-14.96,59.01-34.82,58.39-19.86-.62-36.47-27.78-37.1-60.65-.63-32.87,14.96-59.01,34.82-58.39,19.86,.62,36.47,27.78,37.1,60.65Z"/><path class="c" d="M281.1,252.16c.63,32.69-14.88,58.69-34.63,58.07-19.75-.62-36.27-27.62-36.9-60.31-.63-32.69,14.88-58.69,34.63-58.07,19.75,.62,36.27,27.62,36.9,60.31Z"/><path class="di" d="M280.9,252.15c.62,32.51-14.79,58.36-34.43,57.74-19.64-.62-36.07-27.47-36.69-59.97-.62-32.51,14.79-58.36,34.43-57.74,19.64,.62,36.07,27.47,36.69,59.97Z"/><path class="av" d="M280.7,252.15c.62,32.32-14.71,58.03-34.24,57.42-19.53-.61-35.87-27.31-36.49-59.64-.62-32.32,14.71-58.03,34.24-57.42,19.53,.61,35.87,27.31,36.49,59.64Z"/><path class="w" d="M280.51,252.14c.62,32.14-14.63,57.71-34.05,57.1-19.42-.61-35.66-27.16-36.28-59.3-.62-32.14,14.63-57.71,34.05-57.1,19.42,.61,35.66,27.16,36.28,59.3Z"/><path class="bi" d="M280.31,252.13c.61,31.96-14.54,57.38-33.86,56.77-19.31-.61-35.46-27.01-36.07-58.97-.61-31.96,14.54-57.38,33.86-56.77,19.31,.61,35.46,27.01,36.07,58.97Z"/><path class="dh" d="M280.11,252.13c.61,31.78-14.46,57.05-33.66,56.45-19.2-.6-35.26-26.85-35.87-58.63-.61-31.78,14.46-57.05,33.66-56.45,19.2,.6,35.26,26.85,35.87,58.63Z"/><path class="bb" d="M279.91,252.12c.61,31.6-14.38,56.72-33.47,56.13-19.09-.6-35.06-26.7-35.66-58.3-.61-31.6,14.38-56.72,33.47-56.13,19.09,.6,35.06,26.7,35.66,58.3Z"/><path class="ba" d="M279.71,252.12c.6,31.41-14.3,56.4-33.28,55.8-18.98-.6-34.86-26.54-35.46-57.96-.6-31.41,14.3-56.4,33.28-55.8,18.98,.6,34.86,26.54,35.46,57.96Z"/><path class="cg" d="M279.51,252.11c.6,31.23-14.21,56.07-33.08,55.48-18.87-.59-34.65-26.39-35.25-57.62-.6-31.23,14.21-56.07,33.08-55.48,18.87,.59,34.65,26.39,35.25,57.62Z"/><path class="bd" d="M279.31,252.1c.6,31.05-14.13,55.74-32.89,55.16-18.76-.59-34.45-26.24-35.05-57.29-.6-31.05,14.13-55.74,32.89-55.16,18.76,.59,34.45,26.24,35.05,57.29Z"/><path class="cu" d="M279.11,252.1c.59,30.87-14.05,55.42-32.7,54.83-18.65-.59-34.25-26.08-34.84-56.95-.59-30.87,14.05-55.42,32.7-54.83,18.65,.59,34.25,26.08,34.84,56.95Z"/><path class="i" d="M278.91,252.09c.59,30.69-13.96,55.09-32.51,54.51-18.54-.58-34.05-25.93-34.64-56.62-.59-30.69,13.96-55.09,32.51-54.51,18.54,.58,34.05,25.93,34.64,56.62Z"/><path class="by" d="M278.71,252.08c.58,30.5-13.88,54.76-32.31,54.18-18.43-.58-33.85-25.78-34.43-56.28-.59-30.5,13.88-54.76,32.31-54.18,18.43,.58,33.85,25.78,34.43,56.28Z"/><path class="q" d="M278.51,252.08c.58,30.32-13.8,54.44-32.12,53.86-18.32-.57-33.64-25.62-34.22-55.94-.58-30.32,13.8-54.44,32.12-53.86,18.32,.57,33.64,25.62,34.22,55.94Z"/><path class="t" d="M278.31,252.07c.58,30.14-13.72,54.11-31.93,53.54-18.21-.57-33.44-25.47-34.02-55.61-.58-30.14,13.72-54.11,31.93-53.54,18.21,.57,33.44,25.47,34.02,55.61Z"/><path class="cb" d="M278.11,252.07c.57,29.96-13.63,53.78-31.73,53.21-18.1-.57-33.24-25.31-33.81-55.27-.57-29.96,13.63-53.78,31.73-53.21,18.1,.57,33.24,25.31,33.81,55.27Z"/><path class="ad" d="M277.92,252.06c.57,29.78-13.55,53.46-31.54,52.89-17.99-.56-33.04-25.16-33.61-54.94-.57-29.78,13.55-53.46,31.54-52.89,17.99,.56,33.04,25.16,33.61,54.94Z"/><path class="at" d="M277.72,252.05c.57,29.59-13.47,53.13-31.35,52.57-17.88-.56-32.84-25.01-33.4-54.6-.57-29.59,13.47-53.13,31.35-52.57,17.88,.56,32.84,25.01,33.4,54.6Z"/><path class="cj" d="M277.52,252.05c.56,29.41-13.38,52.8-31.16,52.24-17.77-.56-32.63-24.85-33.2-54.26-.56-29.41,13.38-52.8,31.15-52.24,17.77,.56,32.63,24.85,33.2,54.26Z"/><path class="cr" d="M277.32,252.04c.56,29.23-13.3,52.48-30.96,51.92-17.66-.55-32.43-24.7-32.99-53.93-.56-29.23,13.3-52.48,30.96-51.92,17.66,.55,32.43,24.7,32.99,53.93Z"/><path class="cx" d="M277.12,252.03c.56,29.05-13.22,52.15-30.77,51.6-17.55-.55-32.23-24.54-32.79-53.59-.56-29.05,13.22-52.15,30.77-51.6,17.55,.55,32.23,24.54,32.79,53.59Z"/><path class="bk" d="M276.92,252.03c.55,28.87-13.14,51.82-30.58,51.27-17.44-.55-32.03-24.39-32.58-53.26-.55-28.87,13.14-51.82,30.58-51.27,17.44,.55,32.03,24.39,32.58,53.26Z"/><path class="d" d="M276.72,252.02c.55,28.68-13.05,51.49-30.38,50.95-17.33-.54-31.82-24.24-32.37-52.92-.55-28.68,13.05-51.49,30.38-50.95,17.33,.54,31.82,24.24,32.37,52.92Z"/><path class="x" d="M276.52,252.02c.55,28.5-12.97,51.17-30.19,50.63-17.22-.54-31.62-24.08-32.17-52.58-.55-28.5,12.97-51.17,30.19-50.63,17.22,.54,31.62,24.08,32.17,52.58Z"/><path class="ax" d="M276.32,252.01c.54,28.32-12.89,50.84-30,50.3-17.11-.54-31.42-23.93-31.96-52.25-.54-28.32,12.89-50.84,30-50.3,17.11,.54,31.42,23.93,31.96,52.25Z"/><path class="cn" d="M276.12,252c.54,28.14-12.8,50.51-29.8,49.98-17-.53-31.22-23.78-31.76-51.91-.54-28.14,12.8-50.51,29.8-49.98,17,.53,31.22,23.78,31.76,51.91Z"/><path class="au" d="M275.92,252c.54,27.95-12.72,50.19-29.61,49.66-16.89-.53-31.02-23.62-31.55-51.58-.54-27.95,12.72-50.19,29.61-49.66,16.89,.53,31.02,23.62,31.55,51.58Z"/><path class="r" d="M275.72,251.99c.53,27.77-12.64,49.86-29.42,49.33-16.78-.53-30.81-23.47-31.35-51.24-.53-27.77,12.64-49.86,29.42-49.33,16.78,.53,30.81,23.47,31.35,51.24Z"/><path class="df" d="M275.52,251.98c.53,27.59-12.56,49.53-29.23,49.01-16.67-.52-30.61-23.31-31.14-50.9-.53-27.59,12.56-49.53,29.23-49.01,16.67,.52,30.61,23.31,31.14,50.9Z"/><path class="cf" d="M275.33,251.98c.53,27.41-12.47,49.21-29.03,48.69-16.56-.52-30.41-23.16-30.94-50.57-.53-27.41,12.47-49.21,29.03-48.69,16.56,.52,30.41,23.16,30.94,50.57Z"/><path class="ct" d="M275.13,251.97c.52,27.23-12.39,48.88-28.84,48.36-16.45-.52-30.21-23.01-30.73-50.23-.52-27.23,12.39-48.88,28.84-48.36,16.45,.52,30.21,23.01,30.73,50.23Z"/><path class="ch" d="M274.93,251.97c.52,27.04-12.31,48.55-28.65,48.04-16.34-.51-30.01-22.85-30.52-49.9-.52-27.04,12.31-48.55,28.65-48.04,16.34,.51,30.01,22.85,30.53,49.9Z"/><path class="dc" d="M274.73,251.96c.51,26.86-12.22,48.23-28.45,47.72-16.23-.51-29.8-22.7-30.32-49.56-.52-26.86,12.22-48.23,28.45-47.72,16.23,.51,29.8,22.7,30.32,49.56Z"/><path class="dg" d="M274.53,251.95c.51,26.68-12.14,47.9-28.26,47.39-16.12-.51-29.6-22.54-30.11-49.22-.51-26.68,12.14-47.9,28.26-47.39,16.12,.51,29.6,22.54,30.11,49.22Z"/><path class="bv" d="M274.33,251.95c.51,26.5-12.06,47.57-28.07,47.07-16.01-.5-29.4-22.39-29.91-48.89-.51-26.5,12.06-47.57,28.07-47.07,16.01,.5,29.4,22.39,29.91,48.89Z"/><path class="bx" d="M274.13,251.94c.5,26.32-11.98,47.24-27.88,46.75-15.9-.5-29.2-22.24-29.7-48.55-.5-26.32,11.98-47.24,27.88-46.75,15.9,.5,29.2,22.24,29.7,48.55Z"/><path class="cl" d="M273.93,251.93c.5,26.13-11.89,46.92-27.68,46.42-15.79-.5-29-22.08-29.5-48.22-.5-26.13,11.89-46.92,27.68-46.42,15.79,.5,29,22.08,29.5,48.22Z"/><path class="aj" d="M273.73,251.93c.5,25.95-11.81,46.59-27.49,46.1-15.68-.49-28.79-21.93-29.29-47.88-.5-25.95,11.81-46.59,27.49-46.1,15.68,.49,28.79,21.93,29.29,47.88Z"/><path class="d`" d="M273.53,251.92c.49,25.77-11.73,46.26-27.3,45.77-15.57-.49-28.59-21.77-29.09-47.54-.49-25.77,11.73-46.26,27.3-45.77,15.57,.49,28.59,21.77,29.09,47.54Z"/><path class="ck" d="M273.33,251.92c.49,25.59-11.64,45.94-27.1,45.45-15.46-.49-28.39-21.62-28.88-47.21-.49-25.59,11.64-45.94,27.1-45.45,15.46,.48,28.39,21.62,28.88,47.21Z"/><path class="co" d="M273.13,251.91c.49,25.41-11.56,45.61-26.91,45.13-15.35-.48-28.19-21.47-28.67-46.87-.49-25.41,11.56-45.61,26.91-45.13,15.35,.48,28.19,21.47,28.68,46.87Z"/><path class="bt" d="M272.93,251.9c.48,25.22-11.48,45.28-26.72,44.8-15.24-.48-27.99-21.31-28.47-46.54-.48-25.22,11.48-45.28,26.72-44.8,15.24,.48,27.99,21.31,28.47,46.54Z"/><path class="bw" d="M272.74,251.9c.48,25.04-11.4,44.96-26.53,44.48-15.13-.47-27.78-21.16-28.26-46.2-.48-25.04,11.4-44.96,26.53-44.48,15.13,.47,27.78,21.16,28.26,46.2Z"/><path class="cq" d="M272.54,251.89c.48,24.86-11.31,44.63-26.33,44.16-15.02-.47-27.58-21.01-28.06-45.86-.48-24.86,11.31-44.63,26.33-44.16,15.02,.47,27.58,21.01,28.06,45.86Z"/><path class="ai" d="M272.34,251.88c.47,24.68-11.23,44.3-26.14,43.83-14.91-.47-27.38-20.85-27.85-45.53-.47-24.68,11.23-44.3,26.14-43.83,14.91,.47,27.38,20.85,27.85,45.53Z"/><path class="cs" d="M272.14,251.88c.47,24.49-11.15,43.98-25.95,43.51-14.8-.46-27.18-20.7-27.65-45.19-.47-24.49,11.15-43.98,25.95-43.51,14.8,.46,27.18,20.7,27.65,45.19Z"/><path class="ak" d="M271.94,251.87c.47,24.31-11.06,43.65-25.75,43.19-14.69-.46-26.98-20.54-27.44-44.86-.47-24.31,11.06-43.65,25.75-43.19,14.69,.46,26.98,20.54,27.44,44.86Z"/><path class="db" d="M271.74,251.87c.46,24.13-10.98,43.32-25.56,42.86-14.58-.46-26.77-20.39-27.24-44.52-.46-24.13,10.98-43.32,25.56-42.86,14.58,.46,26.77,20.39,27.24,44.52Z"/><path class="bg" d="M271.54,251.86c.46,23.95-10.9,42.99-25.37,42.54-14.47-.45-26.57-20.24-27.03-44.18-.46-23.95,10.9-42.99,25.37-42.54,14.47,.45,26.57,20.24,27.03,44.18Z"/><path class="as" d="M271.34,251.85c.46,23.77-10.82,42.67-25.18,42.22-14.36-.45-26.37-20.08-26.83-43.85-.46-23.77,10.82-42.67,25.18-42.22,14.36,.45,26.37,20.08,26.83,43.85Z"/><path class="ce" d="M271.14,251.85c.45,23.58-10.73,42.34-24.98,41.89-14.25-.45-26.17-19.93-26.62-43.51-.45-23.58,10.73-42.34,24.98-41.89,14.25,.45,26.17,19.93,26.62,43.51Z"/><path class="f" d="M270.94,251.84c.45,23.4-10.65,42.01-24.79,41.57-14.14-.44-25.97-19.77-26.41-43.18-.45-23.4,10.65-42.01,24.79-41.57,14.14,.44,25.97,19.77,26.41,43.18Z"/><path class="ca" d="M270.74,251.83c.45,23.22-10.57,41.69-24.6,41.25-14.03-.44-25.76-19.62-26.21-42.84-.45-23.22,10.57-41.69,24.6-41.25,14.03,.44,25.76,19.62,26.21,42.84Z"/><path class="bs" d="M270.54,251.83c.44,23.04-10.48,41.36-24.4,40.92-13.92-.44-25.56-19.47-26-42.5-.44-23.04,10.48-41.36,24.4-40.92,13.92,.44,25.56,19.47,26,42.5Z"/><path class="o" d="M270.35,251.82c.44,22.86-10.4,41.03-24.21,40.6-13.81-.43-25.36-19.31-25.8-42.17-.44-22.86,10.4-41.03,24.21-40.6,13.81,.43,25.36,19.31,25.8,42.17Z"/><path class="c`" d="M270.15,251.82c.43,22.67-10.32,40.71-24.02,40.28-13.7-.43-25.16-19.16-25.59-41.83-.43-22.67,10.32-40.71,24.02-40.28,13.7,.43,25.16,19.16,25.59,41.83Z"/><path class="bm" d="M269.95,251.81c.43,22.49-10.24,40.38-23.83,39.95-13.59-.43-24.96-19.01-25.39-41.5-.43-22.49,10.24-40.38,23.82-39.95,13.59,.43,24.96,19.01,25.39,41.5Z"/><path class="bp" d="M269.75,251.8c.43,22.31-10.15,40.05-23.63,39.63-13.48-.42-24.75-18.85-25.18-41.16-.43-22.31,10.15-40.05,23.63-39.63,13.48,.42,24.75,18.85,25.18,41.16Z"/><path class="ay" d="M269.55,251.8c.42,22.13-10.07,39.73-23.44,39.31-13.37-.42-24.55-18.7-24.98-40.82-.42-22.13,10.07-39.73,23.44-39.31,13.37,.42,24.55,18.7,24.98,40.82Z"/><path class="cy" d="M269.35,251.79c.42,21.95-9.99,39.4-23.25,38.98-13.26-.42-24.35-18.54-24.77-40.49-.42-21.95,9.99-39.4,23.25-38.98,13.26,.42,24.35,18.54,24.77,40.49Z"/><path class="ar" d="M269.15,251.78c.42,21.76-9.9,39.07-23.05,38.66-13.15-.41-24.15-18.39-24.56-40.15-.42-21.76,9.9-39.07,23.05-38.66,13.15,.41,24.15,18.39,24.56,40.15Z"/><path class="v" d="M268.95,251.78c.41,21.58-9.82,38.74-22.86,38.33-13.04-.41-23.94-18.24-24.36-39.82-.41-21.58,9.82-38.74,22.86-38.33,13.04,.41,23.95,18.24,24.36,39.82Z"/><path class="aq" d="M268.75,251.77c.41,21.4-9.74,38.42-22.67,38.01-12.93-.41-23.74-18.08-24.15-39.48-.41-21.4,9.74-38.42,22.67-38.01,12.93,.41,23.74,18.08,24.15,39.48Z"/><path class="ah" d="M268.55,251.77c.41,21.22-9.66,38.09-22.48,37.69-12.82-.4-23.54-17.93-23.95-39.14-.41-21.22,9.66-38.09,22.47-37.69,12.82,.4,23.54,17.93,23.95,39.14Z"/><path class="s" d="M268.35,251.76c.4,21.03-9.57,37.76-22.28,37.36-12.71-.4-23.34-17.77-23.74-38.81-.4-21.03,9.57-37.76,22.28-37.36,12.71,.4,23.34,17.77,23.74,38.81Z"/><path class="a`" d="M268.15,251.75c.4,20.85-9.49,37.44-22.09,37.04-12.6-.4-23.14-17.62-23.54-38.47-.4-20.85,9.49-37.44,22.09-37.04,12.6,.4,23.14,17.62,23.54,38.47Z"/><path class="ac" d="M267.95,251.75c.4,20.67-9.41,37.11-21.9,36.72-12.49-.39-22.93-17.47-23.33-38.14-.4-20.67,9.41-37.11,21.9-36.72,12.49,.39,22.94,17.47,23.33,38.14Z"/><path class="bh" d="M267.76,251.74c.39,20.49-9.32,36.78-21.7,36.39-12.38-.39-22.73-17.31-23.13-37.8-.39-20.49,9.32-36.78,21.7-36.39,12.38,.39,22.73,17.31,23.13,37.8Z"/><path class="e" d="M267.56,251.73c.39,20.31-9.24,36.46-21.51,36.07-12.27-.39-22.53-17.16-22.92-37.47-.39-20.31,9.24-36.46,21.51-36.07,12.27,.38,22.53,17.16,22.92,37.47Z"/><path class="u" d="M267.36,251.73c.39,20.12-9.16,36.13-21.32,35.75-12.16-.38-22.33-17-22.71-37.13-.39-20.12,9.16-36.13,21.32-35.75,12.16,.38,22.33,17,22.71,37.13Z"/></g><path class="ap" d="M288.25,166.19s10.85,17.73-9.18,56.78l-50.43-4.76s-8.97-10.01-4.87-29.96c0,0,23.95-22.28,64.49-22.06Z"/><path class="ap" d="M326.68,167.88s1.77,33.71,13.74,56.14l46.87-8.7s2.65-13.39-3.18-26.88c0,0-17.61-26.26-57.43-20.56Z"/><path class="n" d="M173.6,215.59c10.81-3.98,23.76,7.01,28.92,24.55,5.17,17.54,.59,34.99-10.22,38.97-10.81,3.98-23.76-7.01-28.92-24.55-5.17-17.54-.59-34.99,10.22-38.97Z"/><path class="ao" d="M170.36,219.14c-2.63,6.63-2.42,14.58-1.22,21.54,2.01,11.72,9.59,21.55,22.07,21.04,5.49-.22,9.56-2.03,12.58-4.82,1.58,22.8,13.74,91.13,107.24,95.54,61.12,2.89,91.07-41.03,95.2-48.93-18.89,51.38-64,61.58-99.7,61.24-65.86-.63-103.54-39.21-110.45-87.03-.3,.14-.59,.3-.9,.42-10.81,3.98-23.76-7.01-28.92-24.55-4.03-13.69-2.07-27.22,4.1-34.44Z"/><path class="ao" d="M192.55,247.44l-11.19,1.49c.19-17.06-11.32-23-11.32-23,18.79-6.98,22.51,21.51,22.51,21.51Z"/><path class="bq" d="M384.12,188.44c-24.8-16.23-43.53,2.04-53.77-7.04-2.67-2.37-3.67-13.52-3.67-13.52,46.1-4.17,57.43,20.56,57.43,20.56Z"/><path class="bq" d="M288.67,177.66c-8.33,12.8-25.85-7.56-64.91,10.59,0,0,8.63-24.55,64.49-22.06,0,0,3.98,6,.42,11.47Z"/><g class="bu"><path class="bn" d="M302.31,161.17c-33.35-.68-59.67-16.21-58.78-34.7,.88-18.48,28.63-32.91,61.97-32.23,33.35,.68,59.67,16.21,58.78,34.7-.88,18.48-28.63,32.91-61.97,32.23Z"/><path class="g" d="M302.32,161.01c-33.18-.68-59.37-16.14-58.5-34.53,.88-18.39,28.49-32.75,61.67-32.07,33.18,.68,59.37,16.14,58.5,34.53-.88,18.39-28.49,32.75-61.67,32.08Z"/><path class="aa" d="M302.33,160.85c-33.02-.67-59.08-16.06-58.21-34.36,.87-18.3,28.34-32.59,61.36-31.92,33.02,.67,59.08,16.06,58.21,34.36-.87,18.3-28.34,32.59-61.36,31.92Z"/><path class="am" d="M302.34,160.68c-32.85-.67-58.79-15.98-57.92-34.19,.87-18.21,28.2-32.43,61.06-31.76,32.85,.67,58.79,15.98,57.92,34.19-.87,18.21-28.2,32.43-61.06,31.76Z"/><path class="da" d="M302.34,160.52c-32.69-.67-58.49-15.9-57.63-34.02,.86-18.12,28.06-32.27,60.75-31.6,32.69,.67,58.49,15.9,57.63,34.02-.86,18.12-28.06,32.27-60.75,31.6Z"/><path class="be" d="M302.35,160.35c-32.53-.66-58.2-15.82-57.34-33.85,.86-18.03,27.92-32.1,60.45-31.44,32.53,.66,58.2,15.82,57.34,33.84-.86,18.03-27.92,32.11-60.45,31.44Z"/><path class="bo" d="M302.36,160.19c-32.36-.66-57.91-15.74-57.05-33.67,.85-17.94,27.78-31.94,60.14-31.28,32.36,.66,57.91,15.74,57.05,33.67-.85,17.94-27.78,31.94-60.14,31.28Z"/><path class="ae" d="M302.37,160.02c-32.2-.66-57.61-15.66-56.76-33.5,.85-17.85,27.64-31.78,59.84-31.12,32.2,.66,57.61,15.66,56.76,33.5-.85,17.85-27.64,31.78-59.84,31.12Z"/><path class="ci" d="M302.38,159.86c-32.04-.65-57.32-15.58-56.47-33.33,.85-17.76,27.5-31.62,59.54-30.97,32.04,.65,57.32,15.58,56.47,33.33-.85,17.76-27.5,31.62-59.54,30.97Z"/><path class="al" d="M302.38,159.7c-31.87-.65-57.03-15.5-56.19-33.16,.84-17.66,27.36-31.46,59.23-30.81,31.87,.65,57.03,15.5,56.19,33.16-.84,17.66-27.36,31.46-59.23,30.81Z"/><path class="bc" d="M302.39,159.53c-31.71-.65-56.73-15.42-55.9-32.99,.84-17.57,27.22-31.3,58.93-30.65,31.71,.65,56.73,15.42,55.9,32.99-.84,17.57-27.22,31.3-58.93,30.65Z"/><path class="bj" d="M302.4,159.37c-31.54-.64-56.44-15.34-55.61-32.82,.83-17.48,27.08-31.13,58.62-30.49,31.54,.64,56.44,15.34,55.61,32.82-.83,17.48-27.08,31.13-58.62,30.49Z"/><path class="h" d="M302.41,159.2c-31.38-.64-56.15-15.26-55.32-32.65,.83-17.39,26.94-30.97,58.32-30.33,31.38,.64,56.15,15.26,55.32,32.65-.83,17.39-26.94,30.97-58.32,30.33Z"/><path class="b`" d="M302.42,159.04c-31.22-.64-55.85-15.18-55.03-32.48,.82-17.3,26.8-30.81,58.01-30.17,31.22,.64,55.85,15.18,55.03,32.48-.82,17.3-26.8,30.81-58.01,30.17Z"/><path class="cm" d="M302.42,158.87c-31.05-.63-55.56-15.1-54.74-32.31,.82-17.21,26.66-30.65,57.71-30.02,31.05,.63,55.56,15.1,54.74,32.31-.82,17.21-26.66,30.65-57.71,30.02Z"/><path class="cp" d="M302.43,158.71c-30.89-.63-55.27-15.02-54.45-32.14,.81-17.12,26.52-30.49,57.4-29.86,30.89,.63,55.27,15.02,54.45,32.14-.81,17.12-26.52,30.49-57.4,29.86Z"/><path class="cc" d="M302.44,158.54c-30.72-.63-54.97-14.94-54.16-31.97,.81-17.03,26.38-30.33,57.1-29.7,30.72,.63,54.97,14.94,54.16,31.97-.81,17.03-26.38,30.33-57.1,29.7Z"/><path class="y" d="M302.45,158.38c-30.56-.62-54.68-14.86-53.87-31.8,.81-16.94,26.23-30.16,56.8-29.54,30.56,.62,54.68,14.86,53.87,31.8-.81,16.94-26.23,30.16-56.79,29.54Z"/><path class="de" d="M302.45,158.22c-30.4-.62-54.39-14.78-53.59-31.63,.8-16.85,26.09-30,56.49-29.38,30.4,.62,54.39,14.78,53.59,31.63-.8,16.85-26.09,30-56.49,29.38Z"/><path class="cv" d="M302.46,158.05c-30.23-.62-54.09-14.7-53.3-31.46,.8-16.76,25.95-29.84,56.19-29.22,30.23,.62,54.09,14.7,53.3,31.46-.8,16.76-25.95,29.84-56.19,29.22Z"/><path class="b" d="M302.47,157.89c-30.07-.61-53.8-14.62-53.01-31.29,.79-16.67,25.81-29.68,55.88-29.07,30.07,.61,53.8,14.62,53.01,31.29-.79,16.67-25.81,29.68-55.88,29.07Z"/><path class="aw" d="M302.48,157.72c-29.91-.61-53.51-14.54-52.72-31.12,.79-16.58,25.67-29.52,55.58-28.91,29.91,.61,53.51,14.54,52.72,31.12-.79,16.58-25.67,29.52-55.58,28.91Z"/><path class="ag" d="M302.49,157.56c-29.74-.61-53.22-14.46-52.43-30.95,.78-16.48,25.53-29.36,55.27-28.75,29.74,.61,53.22,14.46,52.43,30.95-.78,16.48-25.53,29.36-55.27,28.75Z"/><path class="cw" d="M302.49,157.39c-29.58-.6-52.92-14.38-52.14-30.78,.78-16.39,25.39-29.19,54.97-28.59,29.58,.6,52.92,14.38,52.14,30.78-.78,16.39-25.39,29.19-54.97,28.59Z"/><path class="c" d="M302.5,157.23c-29.41-.6-52.63-14.3-51.85-30.61,.78-16.3,25.25-29.03,54.66-28.43,29.41,.6,52.63,14.3,51.85,30.61-.78,16.3-25.25,29.03-54.66,28.43Z"/><path class="di" d="M302.51,157.06c-29.25-.6-52.34-14.22-51.56-30.44,.77-16.21,25.11-28.87,54.36-28.27,29.25,.6,52.34,14.22,51.56,30.43-.77,16.21-25.11,28.87-54.36,28.27Z"/><path class="av" d="M302.52,156.9c-29.09-.59-52.04-14.14-51.27-30.26,.77-16.12,24.97-28.71,54.05-28.12,29.09,.59,52.04,14.14,51.27,30.26-.77,16.12-24.97,28.71-54.05,28.12Z"/><path class="w" d="M302.53,156.74c-28.92-.59-51.75-14.06-50.99-30.09,.76-16.03,24.83-28.55,53.75-27.96,28.92,.59,51.75,14.06,50.99,30.09-.76,16.03-24.83,28.55-53.75,27.96Z"/><path class="bi" d="M302.53,156.57c-28.76-.59-51.46-13.98-50.7-29.92,.76-15.94,24.69-28.39,53.45-27.8,28.76,.59,51.46,13.98,50.7,29.92-.76,15.94-24.69,28.39-53.45,27.8Z"/><path class="dh" d="M302.54,156.41c-28.59-.58-51.16-13.9-50.41-29.75,.75-15.85,24.55-28.22,53.14-27.64,28.59,.58,51.16,13.9,50.41,29.75-.75,15.85-24.55,28.22-53.14,27.64Z"/><path class="bb" d="M302.55,156.24c-28.43-.58-50.87-13.82-50.12-29.58,.75-15.76,24.41-28.06,52.84-27.48,28.43,.58,50.87,13.82,50.12,29.58-.75,15.76-24.41,28.06-52.84,27.48Z"/><path class="ba" d="M302.56,156.08c-28.27-.58-50.58-13.74-49.83-29.41,.75-15.67,24.27-27.9,52.53-27.32,28.27,.58,50.58,13.75,49.83,29.41-.75,15.67-24.27,27.9-52.53,27.32Z"/><path class="cg" d="M302.56,155.91c-28.1-.57-50.28-13.67-49.54-29.24,.74-15.58,24.12-27.74,52.23-27.16,28.1,.57,50.28,13.67,49.54,29.24-.74,15.58-24.12,27.74-52.23,27.17Z"/><path class="bd" d="M302.57,155.75c-27.94-.57-49.99-13.59-49.25-29.07,.74-15.49,23.98-27.58,51.92-27.01,27.94,.57,49.99,13.59,49.25,29.07-.74,15.49-23.98,27.58-51.92,27.01Z"/><path class="cu" d="M302.58,155.58c-27.78-.57-49.7-13.51-48.96-28.9,.73-15.39,23.84-27.41,51.62-26.85,27.77,.57,49.7,13.51,48.96,28.9-.73,15.39-23.84,27.42-51.62,26.85Z"/><path class="i" d="M302.59,155.42c-27.61-.56-49.4-13.43-48.68-28.73,.73-15.3,23.7-27.25,51.31-26.69,27.61,.56,49.4,13.43,48.67,28.73-.73,15.3-23.7,27.25-51.31,26.69Z"/><path class="by" d="M302.6,155.26c-27.45-.56-49.11-13.35-48.39-28.56,.72-15.21,23.56-27.09,51.01-26.53,27.45,.56,49.11,13.35,48.39,28.56-.72,15.21-23.56,27.09-51.01,26.53Z"/><path class="q" d="M302.6,155.09c-27.28-.56-48.82-13.27-48.1-28.39,.72-15.12,23.42-26.93,50.7-26.37,27.28,.56,48.82,13.27,48.1,28.39-.72,15.12-23.42,26.93-50.7,26.37Z"/><path class="t" d="M302.61,154.93c-27.12-.55-48.52-13.19-47.81-28.22,.72-15.03,23.28-26.77,50.4-26.21,27.12,.55,48.52,13.19,47.81,28.22-.72,15.03-23.28,26.77-50.4,26.21Z"/><path class="cb" d="M302.62,154.76c-26.96-.55-48.23-13.11-47.52-28.05,.71-14.94,23.14-26.61,50.1-26.06,26.96,.55,48.23,13.11,47.52,28.05-.71,14.94-23.14,26.61-50.1,26.06Z"/><path class="ad" d="M302.63,154.6c-26.79-.55-47.94-13.03-47.23-27.88,.71-14.85,23-26.44,49.79-25.9,26.79,.55,47.94,13.03,47.23,27.88-.71,14.85-23,26.44-49.79,25.9Z"/><path class="at" d="M302.63,154.43c-26.63-.54-47.64-12.95-46.94-27.71,.7-14.76,22.86-26.28,49.49-25.74,26.63,.54,47.64,12.95,46.94,27.71-.7,14.76-22.86,26.28-49.49,25.74Z"/><path class="cj" d="M302.64,154.27c-26.46-.54-47.35-12.87-46.65-27.54,.7-14.67,22.72-26.12,49.18-25.58,26.46,.54,47.35,12.87,46.65,27.54-.7,14.67-22.72,26.12-49.18,25.58Z"/><path class="cr" d="M302.65,154.1c-26.3-.54-47.06-12.79-46.36-27.37,.69-14.58,22.58-25.96,48.88-25.42,26.3,.54,47.06,12.79,46.36,27.37-.69,14.58-22.58,25.96-48.88,25.42Z"/><path class="cx" d="M302.66,153.94c-26.14-.53-46.77-12.71-46.08-27.2,.69-14.49,22.44-25.8,48.57-25.26,26.14,.53,46.77,12.71,46.08,27.2-.69,14.49-22.44,25.8-48.57,25.26Z"/><path class="bk" d="M302.67,153.78c-25.97-.53-46.47-12.63-45.79-27.03,.69-14.4,22.3-25.64,48.27-25.11,25.97,.53,46.47,12.63,45.79,27.02-.69,14.4-22.3,25.64-48.27,25.11Z"/><path class="d" d="M302.67,153.61c-25.81-.53-46.18-12.55-45.5-26.85,.68-14.3,22.16-25.47,47.96-24.95,25.81,.53,46.18,12.55,45.5,26.85-.68,14.3-22.16,25.47-47.96,24.95Z"/><path class="x" d="M302.68,153.45c-25.65-.52-45.89-12.47-45.21-26.68,.68-14.21,22.01-25.31,47.66-24.79,25.64,.52,45.89,12.47,45.21,26.68-.68,14.21-22.01,25.31-47.66,24.79Z"/><path class="ax" d="M302.69,153.28c-25.48-.52-45.59-12.39-44.92-26.51,.67-14.12,21.87-25.15,47.36-24.63,25.48,.52,45.59,12.39,44.92,26.51-.67,14.12-21.87,25.15-47.35,24.63Z"/><path class="cn" d="M302.7,153.12c-25.32-.52-45.3-12.31-44.63-26.34,.67-14.03,21.73-24.99,47.05-24.47,25.32,.52,45.3,12.31,44.63,26.34-.67,14.03-21.73,24.99-47.05,24.47Z"/><path class="au" d="M302.71,152.95c-25.15-.51-45.01-12.23-44.34-26.17,.66-13.94,21.59-24.83,46.75-24.31,25.15,.51,45.01,12.23,44.34,26.17-.66,13.94-21.59,24.83-46.75,24.31Z"/><path class="r" d="M302.71,152.79c-24.99-.51-44.71-12.15-44.05-26,.66-13.85,21.45-24.67,46.44-24.16,24.99,.51,44.71,12.15,44.05,26-.66,13.85-21.45,24.67-46.44,24.16Z"/><path class="df" d="M302.72,152.62c-24.83-.51-44.42-12.07-43.76-25.83,.65-13.76,21.31-24.5,46.14-24,24.83,.51,44.42,12.07,43.76,25.83-.65,13.76-21.31,24.5-46.14,24Z"/><path class="cf" d="M302.73,152.46c-24.66-.5-44.13-11.99-43.48-25.66,.65-13.67,21.17-24.34,45.83-23.84,24.66,.5,44.13,11.99,43.48,25.66-.65,13.67-21.17,24.34-45.83,23.84Z"/><path class="ct" d="M302.74,152.3c-24.5-.5-43.83-11.91-43.19-25.49,.65-13.58,21.03-24.18,45.53-23.68,24.5,.5,43.83,11.91,43.19,25.49-.65,13.58-21.03,24.18-45.53,23.68Z"/><path class="ch" d="M302.74,152.13c-24.33-.5-43.54-11.83-42.9-25.32,.64-13.49,20.89-24.02,45.22-23.52,24.33,.5,43.54,11.83,42.9,25.32-.64,13.49-20.89,24.02-45.22,23.52Z"/><path class="dc" d="M302.75,151.97c-24.17-.49-43.25-11.75-42.61-25.15,.64-13.4,20.75-23.86,44.92-23.36,24.17,.49,43.25,11.75,42.61,25.15-.64,13.4-20.75,23.86-44.92,23.36Z"/><path class="dg" d="M302.76,151.8c-24.01-.49-42.95-11.67-42.32-24.98,.63-13.31,20.61-23.69,44.61-23.21,24.01,.49,42.95,11.67,42.32,24.98-.63,13.31-20.61,23.7-44.61,23.21Z"/><path class="bv" d="M302.77,151.64c-23.84-.49-42.66-11.59-42.03-24.81,.63-13.21,20.47-23.53,44.31-23.05,23.84,.49,42.66,11.59,42.03,24.81-.63,13.21-20.47,23.53-44.31,23.05Z"/><path class="bx" d="M302.78,151.47c-23.68-.48-42.37-11.51-41.74-24.64,.62-13.12,20.33-23.37,44.01-22.89,23.68,.48,42.37,11.51,41.74,24.64-.62,13.12-20.33,23.37-44.01,22.89Z"/><path class="cl" d="M302.78,151.31c-23.52-.48-42.07-11.43-41.45-24.47,.62-13.03,20.19-23.21,43.7-22.73,23.51,.48,42.07,11.43,41.45,24.47-.62,13.03-20.19,23.21-43.7,22.73Z"/><path class="aj" d="M302.79,151.14c-23.35-.48-41.78-11.35-41.17-24.3,.62-12.94,20.05-23.05,43.4-22.57,23.35,.48,41.78,11.35,41.16,24.3-.62,12.94-20.05,23.05-43.4,22.57Z"/><path class="d`" d="M302.8,150.98c-23.19-.47-41.49-11.27-40.88-24.13,.61-12.85,19.9-22.89,43.09-22.41,23.19,.47,41.49,11.28,40.88,24.13-.61,12.85-19.9,22.89-43.09,22.41Z"/><path class="ck" d="M302.81,150.82c-23.02-.47-41.2-11.2-40.59-23.96,.61-12.76,19.76-22.72,42.79-22.25,23.02,.47,41.19,11.2,40.59,23.96-.61,12.76-19.76,22.73-42.79,22.26Z"/><path class="co" d="M302.81,150.65c-22.86-.47-40.9-11.12-40.3-23.79,.6-12.67,19.62-22.56,42.48-22.1,22.86,.47,40.9,11.12,40.3,23.79-.6,12.67-19.62,22.56-42.48,22.1Z"/><path class="bt" d="M302.82,150.49c-22.7-.46-40.61-11.04-40.01-23.62,.6-12.58,19.48-22.4,42.18-21.94,22.7,.46,40.61,11.04,40.01,23.62-.6,12.58-19.48,22.4-42.18,21.94Z"/><path class="bw" d="M302.83,150.32c-22.53-.46-40.32-10.96-39.72-23.44,.59-12.49,19.34-22.24,41.87-21.78,22.53,.46,40.32,10.96,39.72,23.44-.59,12.49-19.34,22.24-41.87,21.78Z"/><path class="cq" d="M302.84,150.16c-22.37-.46-40.02-10.88-39.43-23.27,.59-12.4,19.2-22.08,41.57-21.62,22.37,.46,40.02,10.88,39.43,23.27-.59,12.4-19.2,22.08-41.57,21.62Z"/><path class="ai" d="M302.85,149.99c-22.2-.45-39.73-10.8-39.14-23.1,.59-12.31,19.06-21.92,41.27-21.46,22.2,.45,39.73,10.8,39.14,23.1-.59,12.31-19.06,21.92-41.26,21.46Z"/><path class="cs" d="M302.85,149.83c-22.04-.45-39.44-10.72-38.85-22.93,.58-12.22,18.92-21.75,40.96-21.3,22.04,.45,39.44,10.72,38.85,22.93-.58,12.22-18.92,21.75-40.96,21.3Z"/><path class="ak" d="M302.86,149.66c-21.88-.45-39.14-10.64-38.57-22.76,.58-12.13,18.78-21.59,40.66-21.15,21.88,.45,39.14,10.64,38.57,22.76-.58,12.13-18.78,21.59-40.66,21.15Z"/><path class="db" d="M302.87,149.5c-21.71-.44-38.85-10.56-38.28-22.59,.57-12.03,18.64-21.43,40.35-20.99,21.71,.44,38.85,10.56,38.28,22.59-.57,12.03-18.64,21.43-40.35,20.99Z"/><path class="bg" d="M302.88,149.34c-21.55-.44-38.56-10.48-37.99-22.42,.57-11.94,18.5-21.27,40.05-20.83,21.55,.44,38.56,10.48,37.99,22.42-.57,11.94-18.5,21.27-40.05,20.83Z"/><path class="as" d="M302.89,149.17c-21.39-.44-38.26-10.4-37.7-22.25,.56-11.85,18.36-21.11,39.74-20.67,21.38,.44,38.26,10.4,37.7,22.25-.56,11.85-18.36,21.11-39.74,20.67Z"/><path class="ce" d="M302.89,149.01c-21.22-.43-37.97-10.32-37.41-22.08,.56-11.76,18.22-20.95,39.44-20.51,21.22,.43,37.97,10.32,37.41,22.08-.56,11.76-18.22,20.95-39.44,20.51Z"/><path class="f" d="M302.9,148.84c-21.06-.43-37.68-10.24-37.12-21.91,.56-11.67,18.08-20.78,39.13-20.35,21.06,.43,37.68,10.24,37.12,21.91-.56,11.67-18.08,20.78-39.13,20.35Z"/><path class="ca" d="M302.91,148.68c-20.89-.43-37.38-10.16-36.83-21.74,.55-11.58,17.94-20.62,38.83-20.2,20.89,.43,37.38,10.16,36.83,21.74-.55,11.58-17.94,20.62-38.83,20.2Z"/><path class="bs" d="M302.92,148.51c-20.73-.42-37.09-10.08-36.54-21.57,.55-11.49,17.79-20.46,38.52-20.04,20.73,.42,37.09,10.08,36.54,21.57-.55,11.49-17.79,20.46-38.52,20.04Z"/><path class="o" d="M302.92,148.35c-20.57-.42-36.8-10-36.25-21.4,.54-11.4,17.65-20.3,38.22-19.88,20.57,.42,36.8,10,36.25,21.4-.54,11.4-17.65,20.3-38.22,19.88Z"/><path class="c`" d="M302.93,148.18c-20.4-.42-36.5-9.92-35.97-21.23,.54-11.31,17.51-20.14,37.92-19.72,20.4,.42,36.5,9.92,35.97,21.23-.54,11.31-17.51,20.14-37.92,19.72Z"/><path class="bm" d="M302.94,148.02c-20.24-.41-36.21-9.84-35.68-21.06,.53-11.22,17.37-19.98,37.61-19.56,20.24,.41,36.21,9.84,35.68,21.06-.53,11.22-17.37,19.98-37.61,19.56Z"/><path class="bp" d="M302.95,147.86c-20.07-.41-35.92-9.76-35.39-20.89,.53-11.13,17.23-19.81,37.31-19.4,20.07,.41,35.92,9.76,35.39,20.89-.53,11.13-17.23,19.81-37.31,19.4Z"/><path class="ay" d="M302.96,147.69c-19.91-.41-35.62-9.68-35.1-20.72,.53-11.04,17.09-19.65,37-19.25,19.91,.41,35.62,9.68,35.1,20.72-.53,11.04-17.09,19.65-37,19.25Z"/><path class="cy" d="M302.96,147.53c-19.75-.4-35.33-9.6-34.81-20.55,.52-10.94,16.95-19.49,36.7-19.09,19.75,.4,35.33,9.6,34.81,20.55-.52,10.94-16.95,19.49-36.7,19.09Z"/><path class="ar" d="M302.97,147.36c-19.58-.4-35.04-9.52-34.52-20.38,.52-10.85,16.81-19.33,36.39-18.93,19.58,.4,35.04,9.52,34.52,20.38-.52,10.85-16.81,19.33-36.39,18.93Z"/><path class="v" d="M302.98,147.2c-19.42-.4-34.75-9.44-34.23-20.21,.51-10.76,16.67-19.17,36.09-18.77,19.42,.4,34.74,9.44,34.23,20.21-.51,10.76-16.67,19.17-36.09,18.77Z"/><path class="aq" d="M302.99,147.03c-19.26-.39-34.45-9.36-33.94-20.03,.51-10.67,16.53-19,35.78-18.61,19.25,.39,34.45,9.36,33.94,20.03-.51,10.67-16.53,19.01-35.78,18.61Z"/><path class="ah" d="M303,146.87c-19.09-.39-34.16-9.28-33.66-19.86,.5-10.58,16.39-18.84,35.48-18.45,19.09,.39,34.16,9.28,33.65,19.86-.5,10.58-16.39,18.84-35.48,18.45Z"/><path class="s" d="M303,146.7c-18.93-.39-33.87-9.2-33.37-19.69,.5-10.49,16.25-18.68,35.17-18.3,18.93,.39,33.87,9.2,33.37,19.69-.5,10.49-16.25,18.68-35.17,18.3Z"/><path class="a`" d="M303.01,146.54c-18.76-.38-33.57-9.12-33.08-19.52,.49-10.4,16.11-18.52,34.87-18.14,18.76,.38,33.57,9.12,33.08,19.52-.49,10.4-16.11,18.52-34.87,18.14Z"/><path class="ac" d="M303.02,146.38c-18.6-.38-33.28-9.04-32.79-19.35,.49-10.31,15.97-18.36,34.57-17.98,18.6,.38,33.28,9.04,32.79,19.35-.49,10.31-15.97,18.36-34.57,17.98Z"/><path class="bh" d="M303.03,146.21c-18.44-.38-32.99-8.96-32.5-19.18,.49-10.22,15.83-18.2,34.26-17.82,18.44,.38,32.99,8.96,32.5,19.18-.49,10.22-15.83,18.2-34.26,17.82Z"/><path class="e" d="M303.03,146.05c-18.27-.37-32.69-8.88-32.21-19.01,.48-10.13,15.68-18.03,33.96-17.66,18.27,.37,32.69,8.89,32.21,19.01-.48,10.13-15.68,18.04-33.96,17.66Z"/><path class="u" d="M303.04,145.88c-18.11-.37-32.4-8.8-31.92-18.84,.48-10.04,15.54-17.87,33.65-17.5,18.11,.37,32.4,8.81,31.92,18.84-.48,10.04-15.54,17.87-33.65,17.5Z"/></g><path d="M260.04,284.96c-.57-1.67,.46-3.34,1.88-2.99,5.22,1.29,18.5,3.46,49.85,3.91,28.08,.41,39.8-2.04,44.43-3.64,1.33-.46,2.66,1.05,2.41,2.75-1.51,10.35-9.05,36.88-46.63,37.25-35.67,.36-48.39-26.87-51.95-37.27Z"/><path class="p" d="M347.65,283.54c-7.08,.87-20.65,2.56-35.88,2.34-18.58-.27-30.65-.3-38.63-1.23-.02,7.4,6.86,22.13,38.91,22.56,32.28,.42,34.98-18.85,35.6-23.67Z"/><path class="ab" d="M341.73,297.06c-1.46-1.51-2.14-3.19-4.55-3.57-.97-.15-1.96-.05-2.92,.08-6.86,.96-13.82,2.99-20.87,3-7.3,0-14.73-1.93-21.95-2.91-1.85-.25-3.73-.5-5.59-.26-2.76,.36-4.94,1.79-5.78,4.43-2.5-1.22-4.54-4.68-5.62-7.2-.17-.41-1.64-6.01-1.31-5.97,7.97,.93,20.05,.96,38.62,1.23,15.22,.22,28.79-1.47,35.88-2.34-.55,4.32-1.87,11.01-5.92,13.52Z"/><path class="m" d="M192.29,222.74s2.97,9.01,6.32,8.56c3.35-.45-.87-43.2,2.05-54.11,2.62-9.78,14.47-15.93,19.1-35.65,5.71-24.34,10.11-41.93,17.24-45.43,16.7-8.2,103.94-8.28,119.19-1.51,11.54,5.12,17.09,38.93,25.89,53.73,8.8,14.8,19.18,12.19,22.46,38.71,3.28,26.52,4.09,33.33,4.09,33.33l1.02-.74c1.89-1.43,.76-16.59,.81-19.43,.13-7.34,.05-14.7-.32-22.03-.75-14.83-2.62-29.68-6.48-44.01-15.41-57.18-62.69-90.81-128.83-83.96-2.83,.29-5.65,.77-8.45,1.3-22.5,4.24-45.83,14.41-60.88,32.9-17.27,21.22-19.81,50.1-19.65,76.6,.12,19.51,.25,42.96,6.44,61.75Z"/><path class="bf" d="M258.9,283.44c-.2-1.73,.04-3.17,1.08-3.94,2.84-2.11,29.94-2.32,50.58-2.55,19.58-.23,47.51-1.57,49,4.7,.73,3.08-1.42,8.44-2.25,11.22-8.05,26.89-28.85,37.41-56.07,33.08-28.96-4.6-41.47-35.23-42.33-42.51Zm2.38-.95c.09,.9,.87,2.56,1.01,2.85,.73,1.85,2.35,4.22,4.36,7.09,13.92,19.89,34.8,19.38,53.86,18.17,15.21-.96,29.8-9.34,33.36-15.99,1.86-3.47,3.38-7.32,3.75-11.61,.02-.21,.03-.44-.03-.64-.13-.39-.51-.59-.84-.54-4.37,.61-8.3,3.19-12.52,4.43-16.32,4.79-33.47,6.1-50.54,3.27-10.7-1.78-21.36-4.22-31.9-7.57-.11-.03-.23-.07-.33-.03-.16,.06-.21,.27-.18,.56Z"/><path class="dd" d="M357.59,284.29c-.13-.39-.51-.59-.84-.54-4.37,.61-8.3,3.19-12.52,4.43-16.32,4.79-33.47,6.1-50.54,3.27-10.7-1.78-21.36-4.22-31.9-7.57-.11-.03-.23-.07-.33-.03-.06,.02-.03,.14-.06,.2-.75-.55-1.44-1.19-2.06-1.92,.17-.27,.38-.51,.64-.7,2.84-2.11,29.94-2.32,50.58-2.55,19.15-.22,46.2-1.49,48.79,4.31-.36,.39-1.69,1.32-1.76,1.11Z"/><path class="bn" d="M321.1,206.29c.65,.8-1.19,23.88,11.12,31.46,11.05,6.8,29.3,29.46-19.63,31.19-48.94,1.73-34.27-22.46-21.65-31.42,10.29-7.3,7.83-30.92,7.82-31.36,0-.44,22.33,.12,22.33,.12Z"/><path class="ao" d="M278.69,254.65c-.99,8.08,6.45,15.26,33.89,14.29,27.97-.99,33.98-8.81,31.94-16.61-.54,8.35-63.64,8.35-65.83,2.32Z"/><path class="an" d="M301.98,334.59c4.16,.57,10.25,1.05,16.18,.27,3.9-.52,7.21,3.86,5.58,7.36-1.33,2.86-4.53,5.32-11.62,5.25-9.03-.09-12.99-3.05-14.64-6.2-1.81-3.47,.78-7.18,4.51-6.68Z"/><g class="cd"><path class="bn" d="M311.47,256.7c-12.26-.22-21.93-5.48-21.61-11.74s10.52-11.16,22.77-10.94c12.26,.22,21.93,5.48,21.61,11.74-.32,6.26-10.52,11.16-22.77,10.94Z"/><path class="g" d="M311.48,256.64c-12.2-.22-21.82-5.45-21.51-11.68,.32-6.23,10.46-11.11,22.66-10.89,12.2,.22,21.82,5.45,21.51,11.68-.32,6.23-10.46,11.11-22.66,10.89Z"/><path class="aa" d="M311.48,256.59c-12.14-.22-21.72-5.42-21.4-11.62,.32-6.2,10.41-11.05,22.55-10.84,12.14,.22,21.72,5.42,21.4,11.63-.32,6.2-10.41,11.05-22.55,10.84Z"/><path class="am" d="M311.48,256.53c-12.08-.22-21.61-5.4-21.29-11.57,.32-6.17,10.36-11,22.44-10.78,12.08,.22,21.61,5.4,21.29,11.57-.32,6.17-10.36,11-22.44,10.78Z"/><path class="da" d="M311.49,256.47c-12.02-.22-21.5-5.37-21.19-11.51,.31-6.14,10.31-10.94,22.33-10.73,12.02,.22,21.5,5.37,21.19,11.51-.31,6.14-10.31,10.94-22.33,10.73Z"/><path class="be" d="M311.49,256.42c-11.96-.21-21.39-5.34-21.08-11.45,.31-6.11,10.26-10.89,22.21-10.68,11.96,.21,21.39,5.34,21.08,11.45-.31,6.11-10.26,10.89-22.21,10.68Z"/><path class="bo" d="M311.49,256.36c-11.89-.21-21.29-5.31-20.97-11.39,.31-6.08,10.21-10.84,22.1-10.62,11.9,.21,21.29,5.31,20.97,11.39-.31,6.08-10.21,10.84-22.1,10.62Z"/><path class="ae" d="M311.49,256.31c-11.83-.21-21.18-5.29-20.87-11.34,.31-6.05,10.15-10.78,21.99-10.57,11.84,.21,21.18,5.29,20.87,11.34-.31,6.05-10.15,10.78-21.99,10.57Z"/><path class="ci" d="M311.5,256.25c-11.77-.21-21.07-5.26-20.76-11.28,.31-6.02,10.1-10.73,21.88-10.51,11.77,.21,21.07,5.26,20.76,11.28-.31,6.02-10.1,10.73-21.88,10.51Z"/><path class="al" d="M311.5,256.2c-11.71-.21-20.96-5.23-20.66-11.22,.31-5.99,10.05-10.67,21.77-10.46,11.71,.21,20.96,5.23,20.66,11.22-.31,5.99-10.05,10.67-21.77,10.46Z"/><path class="bc" d="M311.5,256.14c-11.65-.21-20.85-5.21-20.55-11.16,.3-5.96,10-10.62,21.65-10.41,11.65,.21,20.85,5.21,20.55,11.16-.3,5.96-10,10.62-21.65,10.41Z"/><path class="bj" d="M311.51,256.08c-11.59-.21-20.75-5.18-20.44-11.11,.3-5.93,9.95-10.56,21.54-10.35,11.59,.21,20.75,5.18,20.44,11.11-.3,5.93-9.95,10.56-21.54,10.35Z"/><path class="h" d="M311.51,256.03c-11.53-.21-20.64-5.15-20.34-11.05,.3-5.89,9.9-10.51,21.43-10.3,11.53,.21,20.64,5.15,20.34,11.05-.3,5.89-9.9,10.51-21.43,10.3Z"/><path class="b`" d="M311.51,255.97c-11.47-.21-20.53-5.13-20.23-10.99,.3-5.86,9.84-10.45,21.32-10.25,11.47,.21,20.53,5.13,20.23,10.99-.3,5.86-9.84,10.45-21.32,10.24Z"/><path class="cm" d="M311.51,255.92c-11.41-.2-20.42-5.1-20.12-10.93,.3-5.83,9.79-10.4,21.21-10.19,11.41,.2,20.42,5.1,20.13,10.93-.3,5.83-9.79,10.4-21.21,10.19Z"/><path class="cp" d="M311.52,255.86c-11.35-.2-20.32-5.07-20.02-10.87,.3-5.8,9.74-10.34,21.09-10.14,11.35,.2,20.32,5.07,20.02,10.88-.3,5.8-9.74,10.34-21.09,10.14Z"/><path class="cc" d="M311.52,255.81c-11.29-.2-20.21-5.05-19.91-10.82,.3-5.77,9.69-10.29,20.98-10.08,11.29,.2,20.21,5.05,19.91,10.82-.3,5.77-9.69,10.29-20.98,10.08Z"/><path class="y" d="M311.52,255.75c-11.23-.2-20.1-5.02-19.81-10.76,.29-5.74,9.64-10.23,20.87-10.03,11.23,.2,20.1,5.02,19.81,10.76-.29,5.74-9.64,10.23-20.87,10.03Z"/><path class="de" d="M311.53,255.69c-11.17-.2-19.99-4.99-19.7-10.7,.29-5.71,9.59-10.18,20.76-9.98,11.17,.2,19.99,4.99,19.7,10.7-.29,5.71-9.59,10.18-20.76,9.98Z"/><path class="cv" d="M311.53,255.64c-11.11-.2-19.88-4.96-19.59-10.64,.29-5.68,9.53-10.12,20.65-9.92,11.11,.2,19.88,4.97,19.59,10.64-.29,5.68-9.53,10.12-20.65,9.92Z"/><path class="b" d="M311.53,255.58c-11.05-.2-19.78-4.94-19.49-10.59,.29-5.65,9.48-10.07,20.53-9.87,11.05,.2,19.78,4.94,19.49,10.59-.29,5.65-9.48,10.07-20.54,9.87Z"/><path class="aw" d="M311.53,255.53c-10.99-.2-19.67-4.91-19.38-10.53,.29-5.62,9.43-10.01,20.42-9.82,10.99,.2,19.67,4.91,19.38,10.53-.29,5.62-9.43,10.01-20.42,9.81Z"/><path class="ag" d="M311.54,255.47c-10.93-.2-19.56-4.88-19.28-10.47,.29-5.59,9.38-9.96,20.31-9.76,10.93,.2,19.56,4.88,19.28,10.47-.29,5.59-9.38,9.96-20.31,9.76Z"/><path class="cw" d="M311.54,255.42c-10.87-.2-19.45-4.86-19.17-10.41,.28-5.56,9.33-9.9,20.2-9.71,10.87,.19,19.45,4.86,19.17,10.41-.28,5.56-9.33,9.9-20.2,9.71Z"/><path class="c" d="M311.54,255.36c-10.81-.19-19.35-4.83-19.06-10.36,.28-5.53,9.28-9.85,20.09-9.65,10.81,.19,19.35,4.83,19.06,10.36-.28,5.53-9.28,9.85-20.09,9.65Z"/><path class="di" d="M311.55,255.3c-10.75-.19-19.24-4.8-18.96-10.3,.28-5.49,9.22-9.79,19.98-9.6,10.75,.19,19.24,4.8,18.96,10.3-.28,5.49-9.22,9.79-19.98,9.6Z"/><path class="av" d="M311.55,255.25c-10.69-.19-19.13-4.78-18.85-10.24,.28-5.46,9.17-9.74,19.86-9.55,10.69,.19,19.13,4.78,18.85,10.24-.28,5.46-9.17,9.74-19.86,9.55Z"/><path class="w" d="M311.55,255.19c-10.63-.19-19.02-4.75-18.74-10.18,.28-5.43,9.12-9.68,19.75-9.49,10.63,.19,19.02,4.75,18.74,10.18-.28,5.43-9.12,9.68-19.75,9.49Z"/><path class="bi" d="M311.55,255.14c-10.57-.19-18.91-4.72-18.64-10.13,.28-5.4,9.07-9.63,19.64-9.44,10.57,.19,18.91,4.72,18.64,10.13-.28,5.4-9.07,9.63-19.64,9.44Z"/><path class="dh" d="M311.56,255.08c-10.51-.19-18.81-4.7-18.53-10.07,.28-5.37,9.02-9.57,19.53-9.38,10.51,.19,18.81,4.7,18.53,10.07-.28,5.37-9.02,9.57-19.53,9.38Z"/><path class="bb" d="M311.56,255.03c-10.45-.19-18.7-4.67-18.43-10.01,.27-5.34,8.97-9.52,19.42-9.33,10.45,.19,18.7,4.67,18.43,10.01-.27,5.34-8.97,9.52-19.42,9.33Z"/><path class="ba" d="M311.56,254.97c-10.39-.19-18.59-4.64-18.32-9.95,.27-5.31,8.91-9.46,19.3-9.28,10.39,.19,18.59,4.64,18.32,9.95-.27,5.31-8.91,9.46-19.3,9.28Z"/><path class="cg" d="M311.57,254.91c-10.33-.19-18.48-4.62-18.21-9.89,.27-5.28,8.86-9.41,19.19-9.22,10.33,.19,18.48,4.62,18.21,9.89-.27,5.28-8.86,9.41-19.19,9.22Z"/><path class="bd" d="M311.57,254.86c-10.27-.18-18.38-4.59-18.11-9.84,.27-5.25,8.81-9.35,19.08-9.17,10.27,.18,18.38,4.59,18.11,9.84-.27,5.25-8.81,9.35-19.08,9.17Z"/><path class="cu" d="M311.57,254.8c-10.21-.18-18.27-4.56-18-9.78,.27-5.22,8.76-9.3,18.97-9.12,10.21,.18,18.27,4.56,18,9.78-.27,5.22-8.76,9.3-18.97,9.12Z"/><path class="i" d="M311.57,254.75c-10.15-.18-18.16-4.53-17.89-9.72,.27-5.19,8.71-9.24,18.86-9.06,10.15,.18,18.16,4.53,17.9,9.72-.27,5.19-8.71,9.24-18.86,9.06Z"/><path class="by" d="M311.58,254.69c-10.09-.18-18.05-4.51-17.79-9.66,.26-5.16,8.66-9.19,18.74-9.01,10.09,.18,18.05,4.51,17.79,9.66-.26,5.16-8.66,9.19-18.74,9.01Z"/><path class="q" d="M311.58,254.64c-10.03-.18-17.94-4.48-17.68-9.61,.26-5.13,8.6-9.13,18.63-8.95,10.03,.18,17.94,4.48,17.68,9.61-.26,5.13-8.6,9.13-18.63,8.95Z"/><path class="t" d="M311.58,254.58c-9.97-.18-17.84-4.45-17.58-9.55,.26-5.09,8.55-9.08,18.52-8.9,9.97,.18,17.84,4.45,17.58,9.55-.26,5.09-8.55,9.08-18.52,8.9Z"/><path class="cb" d="M311.59,254.52c-9.91-.18-17.73-4.43-17.47-9.49,.26-5.06,8.5-9.02,18.41-8.85,9.91,.18,17.73,4.43,17.47,9.49-.26,5.06-8.5,9.02-18.41,8.85Z"/><path class="ad" d="M311.59,254.47c-9.85-.18-17.62-4.4-17.36-9.43,.26-5.03,8.45-8.97,18.3-8.79,9.85,.18,17.62,4.4,17.36,9.43-.26,5.03-8.45,8.97-18.3,8.79Z"/><path class="at" d="M311.59,254.41c-9.79-.18-17.51-4.37-17.26-9.38,.26-5,8.4-8.92,18.19-8.74,9.79,.18,17.51,4.37,17.26,9.38-.26,5-8.4,8.92-18.19,8.74Z"/><path class="cj" d="M311.59,254.36c-9.73-.17-17.41-4.35-17.15-9.32,.25-4.97,8.35-8.86,18.07-8.69,9.73,.17,17.41,4.35,17.15,9.32-.25,4.97-8.35,8.86-18.07,8.69Z"/><path class="cr" d="M311.6,254.3c-9.67-.17-17.3-4.32-17.05-9.26,.25-4.94,8.29-8.81,17.96-8.63,9.67,.17,17.3,4.32,17.05,9.26-.25,4.94-8.29,8.81-17.96,8.63Z"/><path class="cx" d="M311.6,254.25c-9.61-.17-17.19-4.29-16.94-9.2,.25-4.91,8.24-8.75,17.85-8.58,9.61,.17,17.19,4.29,16.94,9.2-.25,4.91-8.24,8.75-17.85,8.58Z"/><path class="bk" d="M311.6,254.19c-9.55-.17-17.08-4.27-16.83-9.14,.25-4.88,8.19-8.7,17.74-8.52,9.55,.17,17.08,4.27,16.83,9.14-.25,4.88-8.19,8.7-17.74,8.52Z"/><path class="d" d="M311.61,254.13c-9.49-.17-16.97-4.24-16.73-9.09,.25-4.85,8.14-8.64,17.63-8.47,9.49,.17,16.98,4.24,16.73,9.09-.25,4.85-8.14,8.64-17.63,8.47Z"/><path class="x" d="M311.61,254.08c-9.43-.17-16.87-4.21-16.62-9.03,.25-4.82,8.09-8.59,17.51-8.42,9.43,.17,16.87,4.21,16.62,9.03-.25,4.82-8.09,8.59-17.51,8.42Z"/><path class="ax" d="M311.61,254.02c-9.37-.17-16.76-4.18-16.51-8.97,.25-4.79,8.04-8.53,17.4-8.36,9.37,.17,16.76,4.18,16.51,8.97-.25,4.79-8.04,8.53-17.4,8.36Z"/><path class="cn" d="M311.61,253.97c-9.31-.17-16.65-4.16-16.41-8.91,.24-4.76,7.98-8.48,17.29-8.31,9.31,.17,16.65,4.16,16.41,8.91-.24,4.76-7.98,8.48-17.29,8.31Z"/><path class="au" d="M311.62,253.91c-9.25-.17-16.54-4.13-16.3-8.86,.24-4.73,7.93-8.42,17.18-8.26,9.25,.17,16.54,4.13,16.3,8.86-.24,4.73-7.93,8.42-17.18,8.26Z"/><path class="r" d="M311.62,253.86c-9.18-.16-16.44-4.1-16.2-8.8,.24-4.69,7.88-8.37,17.07-8.2,9.19,.16,16.44,4.1,16.2,8.8-.24,4.69-7.88,8.37-17.07,8.2Z"/><path class="df" d="M311.62,253.8c-9.12-.16-16.33-4.08-16.09-8.74,.24-4.66,7.83-8.31,16.95-8.15,9.12,.16,16.33,4.08,16.09,8.74-.24,4.66-7.83,8.31-16.95,8.15Z"/><path class="cf" d="M311.63,253.74c-9.06-.16-16.22-4.05-15.98-8.68,.24-4.63,7.78-8.26,16.84-8.09,9.06,.16,16.22,4.05,15.98,8.68-.24,4.63-7.78,8.26-16.84,8.09Z"/><path class="ct" d="M311.63,253.69c-9-.16-16.11-4.02-15.88-8.63,.24-4.6,7.73-8.2,16.73-8.04,9,.16,16.11,4.02,15.88,8.63-.24,4.6-7.73,8.2-16.73,8.04Z"/><path class="ch" d="M311.63,253.63c-8.94-.16-16-4-15.77-8.57,.23-4.57,7.67-8.15,16.62-7.99,8.94,.16,16.01,4,15.77,8.57-.23,4.57-7.67,8.15-16.62,7.99Z"/><path class="dc" d="M311.63,253.58c-8.88-.16-15.9-3.97-15.66-8.51,.23-4.54,7.62-8.09,16.51-7.93,8.88,.16,15.9,3.97,15.66,8.51-.23,4.54-7.62,8.09-16.51,7.93Z"/><path class="dg" d="M311.64,253.52c-8.82-.16-15.79-3.94-15.56-8.45,.23-4.51,7.57-8.04,16.39-7.88,8.82,.16,15.79,3.94,15.56,8.45-.23,4.51-7.57,8.04-16.4,7.88Z"/><path class="bv" d="M311.64,253.47c-8.76-.16-15.68-3.92-15.45-8.39,.23-4.48,7.52-7.98,16.28-7.83,8.76,.16,15.68,3.92,15.45,8.39-.23,4.48-7.52,7.98-16.28,7.83Z"/><path class="bx" d="M311.64,253.41c-8.7-.16-15.57-3.89-15.35-8.34,.23-4.45,7.47-7.93,16.17-7.77,8.7,.16,15.57,3.89,15.35,8.34-.23,4.45-7.47,7.93-16.17,7.77Z"/><path class="cl" d="M311.65,253.35c-8.64-.16-15.47-3.86-15.24-8.28,.23-4.42,7.42-7.87,16.06-7.72,8.64,.15,15.47,3.86,15.24,8.28-.23,4.42-7.42,7.87-16.06,7.72Z"/><path class="aj" d="M311.65,253.3c-8.58-.15-15.36-3.84-15.13-8.22,.22-4.39,7.36-7.82,15.95-7.66,8.58,.15,15.36,3.83,15.13,8.22-.22,4.39-7.36,7.82-15.95,7.66Z"/><path class="d`" d="M311.65,253.24c-8.52-.15-15.25-3.81-15.03-8.16,.22-4.36,7.31-7.76,15.84-7.61,8.52,.15,15.25,3.81,15.03,8.16-.22,4.36-7.31,7.76-15.84,7.61Z"/><path class="ck" d="M311.65,253.19c-8.46-.15-15.14-3.78-14.92-8.11,.22-4.33,7.26-7.71,15.72-7.56,8.46,.15,15.14,3.78,14.92,8.11-.22,4.33-7.26,7.71-15.72,7.56Z"/><path class="co" d="M311.66,253.13c-8.4-.15-15.03-3.75-14.82-8.05,.22-4.29,7.21-7.65,15.61-7.5,8.4,.15,15.04,3.75,14.82,8.05-.22,4.29-7.21,7.65-15.61,7.5Z"/><path class="bt" d="M311.66,253.08c-8.34-.15-14.93-3.73-14.71-7.99,.22-4.26,7.16-7.6,15.5-7.45,8.34,.15,14.93,3.73,14.71,7.99-.22,4.26-7.16,7.6-15.5,7.45Z"/><path class="bw" d="M311.66,253.02c-8.28-.15-14.82-3.7-14.6-7.93,.22-4.23,7.11-7.54,15.39-7.4,8.28,.15,14.82,3.7,14.6,7.93-.22,4.23-7.11,7.54-15.39,7.4Z"/><path class="cq" d="M311.67,252.96c-8.22-.15-14.71-3.67-14.5-7.88,.22-4.2,7.05-7.49,15.28-7.34,8.22,.15,14.71,3.67,14.5,7.88-.22,4.2-7.05,7.49-15.28,7.34Z"/><path class="ai" d="M311.67,252.91c-8.16-.15-14.6-3.65-14.39-7.82,.21-4.17,7-7.43,15.16-7.29,8.16,.15,14.6,3.65,14.39,7.82-.21,4.17-7,7.43-15.16,7.29Z"/><path class="cs" d="M311.67,252.85c-8.1-.15-14.5-3.62-14.28-7.76,.21-4.14,6.95-7.38,15.05-7.23,8.1,.15,14.5,3.62,14.28,7.76-.21,4.14-6.95,7.38-15.05,7.23Z"/><path class="ak" d="M311.67,252.8c-8.04-.14-14.39-3.59-14.18-7.7,.21-4.11,6.9-7.32,14.94-7.18,8.04,.14,14.39,3.59,14.18,7.7-.21,4.11-6.9,7.32-14.94,7.18Z"/><path class="db" d="M311.68,252.74c-7.98-.14-14.28-3.57-14.07-7.64,.21-4.08,6.85-7.27,14.83-7.13,7.98,.14,14.28,3.57,14.07,7.64-.21,4.08-6.85,7.27-14.83,7.13Z"/><path class="bg" d="M311.68,252.69c-7.92-.14-14.17-3.54-13.97-7.59,.21-4.05,6.8-7.21,14.72-7.07,7.92,.14,14.17,3.54,13.97,7.59-.21,4.05-6.8,7.21-14.72,7.07Z"/><path class="as" d="M311.68,252.63c-7.86-.14-14.06-3.51-13.86-7.53,.21-4.02,6.74-7.16,14.6-7.02,7.86,.14,14.07,3.51,13.86,7.53-.21,4.02-6.74,7.16-14.6,7.02Z"/><path class="ce" d="M311.69,252.57c-7.8-.14-13.96-3.49-13.75-7.47,.2-3.99,6.69-7.1,14.49-6.96,7.8,.14,13.96,3.49,13.75,7.47-.2,3.99-6.69,7.1-14.49,6.97Z"/><path class="f" d="M311.69,252.52c-7.74-.14-13.85-3.46-13.65-7.41,.2-3.96,6.64-7.05,14.38-6.91,7.74,.14,13.85,3.46,13.65,7.41-.2,3.96-6.64,7.05-14.38,6.91Z"/><path class="ca" d="M311.69,252.46c-7.68-.14-13.74-3.43-13.54-7.36,.2-3.93,6.59-7,14.27-6.86,7.68,.14,13.74,3.43,13.54,7.36-.2,3.93-6.59,7-14.27,6.86Z"/><path class="bs" d="M311.69,252.41c-7.62-.14-13.63-3.4-13.43-7.3,.2-3.89,6.54-6.94,14.16-6.8,7.62,.14,13.63,3.4,13.43,7.3-.2,3.89-6.54,6.94-14.16,6.8Z"/><path class="o" d="M311.7,252.35c-7.56-.14-13.53-3.38-13.33-7.24,.2-3.86,6.49-6.89,14.05-6.75,7.56,.14,13.53,3.38,13.33,7.24-.2,3.86-6.49,6.89-14.05,6.75Z"/><path class="c`" d="M311.7,252.3c-7.5-.13-13.42-3.35-13.22-7.18,.2-3.83,6.43-6.83,13.93-6.7,7.5,.13,13.42,3.35,13.22,7.18-.2,3.83-6.43,6.83-13.93,6.7Z"/><path class="bm" d="M311.7,252.24c-7.44-.13-13.31-3.32-13.12-7.13,.19-3.8,6.38-6.78,13.82-6.64,7.44,.13,13.31,3.32,13.12,7.13-.19,3.8-6.38,6.78-13.82,6.64Z"/><path class="bp" d="M311.71,252.18c-7.38-.13-13.2-3.3-13.01-7.07,.19-3.77,6.33-6.72,13.71-6.59,7.38,.13,13.2,3.3,13.01,7.07-.19,3.77-6.33,6.72-13.71,6.59Z"/><path class="ay" d="M311.71,252.13c-7.32-.13-13.1-3.27-12.9-7.01,.19-3.74,6.28-6.67,13.6-6.53,7.32,.13,13.1,3.27,12.9,7.01-.19,3.74-6.28,6.67-13.6,6.54Z"/><path class="cy" d="M311.71,252.07c-7.26-.13-12.99-3.24-12.8-6.95,.19-3.71,6.23-6.61,13.49-6.48,7.26,.13,12.99,3.24,12.8,6.95-.19,3.71-6.23,6.61-13.49,6.48Z"/><path class="ar" d="M311.71,252.02c-7.2-.13-12.88-3.22-12.69-6.89,.19-3.68,6.18-6.56,13.37-6.43,7.2,.13,12.88,3.22,12.69,6.89-.19,3.68-6.18,6.56-13.37,6.43Z"/><path class="v" d="M311.72,251.96c-7.14-.13-12.77-3.19-12.59-6.84,.19-3.65,6.12-6.5,13.26-6.37,7.14,.13,12.77,3.19,12.59,6.84-.19,3.65-6.12,6.5-13.26,6.37Z"/><path class="aq" d="M311.72,251.91c-7.08-.13-12.66-3.16-12.48-6.78,.19-3.62,6.07-6.45,13.15-6.32,7.08,.13,12.66,3.16,12.48,6.78-.19,3.62-6.07,6.45-13.15,6.32Z"/><path class="ah" d="M311.72,251.85c-7.02-.13-12.56-3.14-12.37-6.72,.18-3.59,6.02-6.39,13.04-6.27,7.02,.13,12.56,3.14,12.37,6.72-.18,3.59-6.02,6.39-13.04,6.27Z"/><path class="s" d="M311.73,251.79c-6.96-.12-12.45-3.11-12.27-6.66,.18-3.56,5.97-6.34,12.93-6.21,6.96,.12,12.45,3.11,12.27,6.66-.18,3.56-5.97,6.34-12.93,6.21Z"/><path class="a`" d="M311.73,251.74c-6.9-.12-12.34-3.08-12.16-6.61,.18-3.52,5.92-6.28,12.81-6.16,6.9,.12,12.34,3.08,12.16,6.61-.18,3.52-5.92,6.28-12.81,6.16Z"/><path class="ac" d="M311.73,251.68c-6.84-.12-12.23-3.05-12.05-6.55,.18-3.49,5.87-6.23,12.7-6.1,6.84,.12,12.23,3.05,12.05,6.55-.18,3.49-5.87,6.23-12.7,6.1Z"/><path class="bh" d="M311.73,251.63c-6.78-.12-12.13-3.03-11.95-6.49,.18-3.46,5.81-6.17,12.59-6.05,6.78,.12,12.13,3.03,11.95,6.49-.18,3.46-5.81,6.17-12.59,6.05Z"/><path class="e" d="M311.74,251.57c-6.72-.12-12.02-3-11.84-6.43,.18-3.43,5.76-6.12,12.48-6,6.72,.12,12.02,3,11.84,6.43-.18,3.43-5.76,6.12-12.48,6Z"/><path class="u" d="M311.74,251.52c-6.66-.12-11.91-2.97-11.74-6.38,.17-3.4,5.71-6.06,12.37-5.94,6.66,.12,11.91,2.97,11.74,6.38-.17,3.4-5.71,6.06-12.37,5.94Z"/></g><path d="M250.99,209.77c-.44,4.85,3.15,9.14,8.01,9.58,4.86,.44,9.16-3.15,9.59-8,.44-4.85-3.15-9.14-8.01-9.58-4.86-.44-9.16,3.15-9.59,8Z"/><path d="M348.99,211.02c-.44,4.85,3.15,9.14,8.01,9.58,4.86,.44,9.16-3.15,9.59-8,.44-4.85-3.15-9.14-8.01-9.58-4.86-.44-9.16,3.15-9.59,8Z"/></g><ellipse class="j" cx="300" cy="300.54" rx="282.74" ry="282.25"/></svg>