<?xml version="1.0" encoding="UTF-8"?><svg id="a" xmlns="http://www.w3.org/2000/svg" viewBox="0 0 600 600"><defs><style>.b{fill:#dc7764;}.c{fill:#da6e5d;}.d{fill:#d5594c;}.e{fill:#da6d5c;}.f{fill:#e18e76;}.g{fill:#da6f5d;}.h{fill:#e49e83;}.i{fill:#d5584c;}.j{fill:none;stroke-width:4px;}.j,.k,.l,.m,.n,.o,.p,.q,.r{stroke:#000;stroke-miterlimit:10;}.s,.n{fill:#e09178;}.k{fill:#433c44;}.k,.l,.m,.o,.p,.q,.r{stroke-width:2px;}.t,.u,.v,.r,.w{fill:#fff;}.x{fill:#d75e50;}.y{fill:#db7461;}.a`{fill:#d96b5a;}.aa{fill:#da6c5b;}.ab{fill:#e2957c;}.ac{fill:#d65d50;}.ad{fill:#e2937a;}.ae{fill:#dd7b68;}.af{fill:#dd7a67;}.ag{fill:#df846f;}.ah{fill:#d65b4e;}.ai{fill:#d96858;}.aj{fill:#e3967c;}.ak{fill:#d86354;}.al{fill:#e3987e;}.am{fill:#df856f;}.an{fill:#d65c4f;}.ao{fill:#de7f6b;}.l{fill:#ff5d41;}.u{opacity:.26;}.ap{fill:#dd7a66;}.aq{fill:#dd7c68;}.ar{fill:#d76253;}.m,.as{fill:#373138;}.at{fill:#e59f83;}.au{fill:#df8670;}.av{fill:#dc7864;}.aw{fill:#df836e;}.ax{fill:#e49c81;}.ay{fill:#e19078;}.b`{fill:#d76153;}.ba{fill:#de806b;}.bb{fill:#f4e5d7;}.bc{fill:#dc7965;}.bd{fill:#d96a5a;}.be{fill:#e5a084;}.bf{fill:#d88873;}.bg{fill:#dd7d69;}.bh{fill:#db7562;}.bi{fill:#e08872;}.bj{fill:#db7260;}.bk{opacity:.38;}.bl{fill:#e49d82;}.bm{fill:#d86657;}.bn{fill:#d76052;}.bo{fill:#e08972;}.bp{fill:#d86556;}.bq{fill:#dc7663;}.br{fill:#d86455;}.bs{fill:#2d2828;}.bt{fill:#d96959;}.bu{fill:#d45247;}.bv{fill:#e08b74;}.bw{fill:#e29279;}.bx{fill:#381911;}.by{fill:#db7361;}.c`{fill:#d86757;}.ca{fill:#d45348;}.cb{fill:#d5564a;}.cc,.q{fill:#322d33;}.o,.cd{fill:#e5a185;}.p,.ce{fill:#644b45;}.v{opacity:.13;}.cf{fill:#c3bba5;opacity:.35;}.cg{fill:#d45449;}.ch{fill:#e08a73;}.ci{fill:#d5574b;}.cj{fill:#d78c74;}.ck{fill:#de7e6a;}.cl{fill:#e18d75;}.cm{fill:#e3977d;}.cn{fill:#da705e;}.co{fill:#e49b80;}.cp{fill:#e29179;}.cq{fill:#e49a80;}.cr{fill:#d55549;}.cs{fill:#d75f51;}.ct{fill:#e2947b;}.cu{fill:#ccbc9f;opacity:.36;}.w{opacity:.07;}.cv{fill:#e3997f;}.cw{fill:#e18c75;}.cx{fill:#de826d;}.cy{fill:#f2f2f2;}.d`{fill:#d65a4d;}.da{fill:#de816c;}.db{fill:#e18f77;}.dc{fill:#db715f;}.dd{fill:#df8771;}</style></defs><ellipse class="bb" cx="297.67" cy="297.92" rx="282.35" ry="282.43"/><path class="m" d="M212.17,567.13l-13.19-139.12s-56.38,17.69-83.07,85.98c27.97,23.57,60.57,41.81,96.26,53.15Z"/><path class="q" d="M508.9,485.26c-29.14-33.77-72.83-63.7-138.49-75.35l65.58,134.22c27.49-15.48,52.12-35.42,72.92-58.87Z"/><path class="cy" d="M315.87,579.71c2.67-.17,5.33-.36,7.98-.61,2.1-.2,4.18-.42,6.27-.66,2.04-.23,4.06-.5,6.08-.77,2.46-.34,4.93-.68,7.37-1.09,1.24-.2,2.47-.44,3.7-.66,14.27-2.55,28.19-6.13,41.64-10.72,5.83-47.93,4.99-95.89,4.41-144.16-25.56-14.91-55.98-23.56-91.24-24.03-46.29-.61-79.34,9.19-105.93,32.69,21.17,45.37,41.79,97.04,61.69,146.66h.02c5.21,0,10.48,1.87,15.77,2.33,2.19,.18,4.38,.65,6.58,.79,1.68,.11,3.36,.34,5.05,.42,4.12,.18,8.26,.39,12.42,.39,4.45,0,8.87-.1,13.27-.3,1.65-.08,3.29-.17,4.93-.28Z"/><path class="l" d="M320.94,466.02l-12.67,3.17c-5.27,17.75-5.72,66.59-4.84,111.02,22.81-.46,44.97-3.56,66.15-9.13-14.07-71.52-48.64-105.06-48.64-105.06Z"/><path class="v" d="M312.99,504.06c-3.06,1.73-6.15,3.42-9.22,5.14-.54,13.01-.72,27.73-.67,42.78,13.57-7.78,27.16-15.53,40.8-23.21,3.78-2.13,7.54-4.29,11.31-6.44-5.5-13.5-11.39-24.52-16.73-33.09-8.46,4.99-16.93,9.98-25.49,14.82Z"/><g><path class="as" d="M297.67,582.68c9.99,0,19.86-2.87,29.58-3.88-38.26-86.36-97.42-164.32-97.42-164.32-57.62,15.06-69.05,73.75-70.33,132.36,40.85,22.98,87.96,35.83,138.17,35.83Z"/><path class="as" d="M369.47,411s-11.62,78.91-16.16,163.84c40.52-8.1,77.88-24.9,110.12-48.33-17.05-52.86-48.47-94.86-93.96-115.51Z"/></g><path class="cc" d="M466.19,527.58c-17.05-52.86-51.24-95.92-96.73-116.58,0,0-11.62,81.86-16.16,166.8,40.52-8.1,80.65-26.79,112.89-50.22Z"/><path class="n" d="M307.12,317.36l-8.41,.1c-18.17,.22-32.83,13.86-32.59,30.33l-4.75,80.58c.24,16.46,21.31,35.19,39.48,34.98l8.41-.1c18.17-.22,39.11-13.67,38.87-30.13l-7.53-86.22c-.24-16.46-15.3-29.75-33.47-29.53Z"/><path class="l" d="M331.43,430.26l-44.62,.35s-7.74,43.63,27.79,41.87c35.53-1.76,19.02-42.23,16.82-42.23Z"/><path class="r" d="M343.78,383.45s-2.97,31.76-32.29,33.6c-29.32,1.84-47.56-32.09-47.56-32.09,0,0-9.34,3.28-19.16,17.19-10.01,14.17,1.16,55.42,49.01,74.93,0,0,6.63-40.55,20.08-42.81,13.46-2.26,31.85,38.42,31.85,38.42,0,0,22.88-34.77,20.37-66.45,0,0-10.66-19.6-22.29-22.78Z"/><g><path class="k" d="M352.01,575.07c11.27-2.2,22.28-5.07,33.03-8.57,4.02-20.13,7.75-42.86,10.55-67.69-9.47-2.63-23.29-8.16-23.29-8.16,0,0,17.14-2.43,26.72-4.66,4.54-24.07,7.53-47.52,9.06-66.75,0,0-22.53-8.49-42-13,0,0-11.26,89.73-14.05,168.83Z"/><path class="k" d="M326.9,578.85c-20.91-46.11-52.03-113.97-82.14-176.7,0,0-34.09,11.79-51.56,28.12,0,0,12.13,25.7,45.1,75.58,10.22-3.13,29.17-6.2,29.17-6.2,0,0-14.68,8.55-23.02,15.39,12.57,18.6,28.04,40.32,46.96,65.16,2.09,.05,4.16,.16,6.26,.16,9.87,0,19.62-.51,29.23-1.5Z"/></g><path class="cf" d="M287.47,328.37c-2.3,.28-4.54,1.1-6.8,1.48-8.33-5.74-13.2-11.22-13.2-11.22l2.11-8.41c15.07,10.78,27.77,14.54,39.99,15.7-7.87,.71-14.43,1.5-22.1,2.45Z"/><path class="o" d="M428.59,272.21c-5.44,17.12-19.26,27.75-30.88,23.75-11.62-4-16.63-21.12-11.19-38.24,5.44-17.12,19.26-27.75,30.88-23.75,11.62,4,16.63,21.13,11.19,38.24Z"/><path class="o" d="M373.64,126.45c9.14,15.58,14.17,37.38,19.4,54.87,6.1,20.4,10.96,41.25,13.47,62.42,3.75,31.67,5.02,66.29-9.55,95.61-19.45,39.14-66.44,47.18-105.78,41.88-26.03-3.51-50.91-17.12-66.5-38.87-18.08-25.23-19.51-57.78-19.28-87.76,.3-39.49,2.39-80.44,11.81-118.94,.6-2.45,1.23-4.88,1.93-7.3,7.14-40.41,121.62-57.97,154.51-1.9Z"/><g class="bk"><ellipse class="cd" cx="366.07" cy="272.77" rx="40.67" ry="44.31"/><ellipse class="be" cx="366.07" cy="272.77" rx="40.41" ry="44.03"/><ellipse class="at" cx="366.07" cy="272.77" rx="40.16" ry="43.75"/><ellipse class="h" cx="366.07" cy="272.77" rx="39.9" ry="43.48"/><ellipse class="bl" cx="366.07" cy="272.77" rx="39.65" ry="43.2"/><ellipse class="ax" cx="366.07" cy="272.77" rx="39.4" ry="42.92"/><ellipse class="co" cx="366.07" cy="272.77" rx="39.14" ry="42.65"/><ellipse class="cq" cx="366.07" cy="272.77" rx="38.89" ry="42.37"/><ellipse class="cv" cx="366.07" cy="272.77" rx="38.63" ry="42.09"/><ellipse class="al" cx="366.07" cy="272.77" rx="38.38" ry="41.82"/><ellipse class="cm" cx="366.07" cy="272.77" rx="38.13" ry="41.54"/><ellipse class="aj" cx="366.07" cy="272.77" rx="37.87" ry="41.26"/><ellipse class="ab" cx="366.07" cy="272.77" rx="37.62" ry="40.99"/><ellipse class="ct" cx="366.07" cy="272.77" rx="37.36" ry="40.71"/><ellipse class="ad" cx="366.07" cy="272.77" rx="37.11" ry="40.43"/><ellipse class="bw" cx="366.07" cy="272.77" rx="36.85" ry="40.15"/><path class="cp" d="M329.47,272.77c0,22.02,16.39,39.88,36.6,39.88s36.6-17.85,36.6-39.88-16.39-39.88-36.6-39.88-36.6,17.85-36.6,39.88Z"/><path class="ay" d="M329.72,272.77c0,21.87,16.27,39.6,36.35,39.6s36.35-17.73,36.35-39.6-16.27-39.6-36.35-39.6-36.35,17.73-36.35,39.6Z"/><path class="db" d="M329.98,272.77c0,21.72,16.16,39.32,36.09,39.32s36.09-17.61,36.09-39.32-16.16-39.32-36.09-39.32-36.09,17.61-36.09,39.32Z"/><path class="f" d="M330.23,272.77c0,21.56,16.05,39.05,35.84,39.05s35.84-17.48,35.84-39.05-16.05-39.05-35.84-39.05-35.84,17.48-35.84,39.05Z"/><path class="cl" d="M330.49,272.77c0,21.41,15.93,38.77,35.58,38.77s35.58-17.36,35.58-38.77-15.93-38.77-35.58-38.77-35.58,17.36-35.58,38.77Z"/><path class="cw" d="M330.74,272.77c0,21.26,15.82,38.49,35.33,38.49s35.33-17.23,35.33-38.49-15.82-38.49-35.33-38.49-35.33,17.23-35.33,38.49Z"/><path class="bv" d="M330.99,272.77c0,21.11,15.7,38.22,35.08,38.22s35.08-17.11,35.08-38.22-15.7-38.22-35.08-38.22-35.08,17.11-35.08,38.22Z"/><path class="ch" d="M331.25,272.77c0,20.95,15.59,37.94,34.82,37.94s34.82-16.99,34.82-37.94-15.59-37.94-34.82-37.94-34.82,16.99-34.82,37.94Z"/><path class="bo" d="M331.5,272.77c0,20.8,15.48,37.66,34.57,37.66s34.57-16.86,34.57-37.66-15.48-37.66-34.57-37.66-34.57,16.86-34.57,37.66Z"/><path class="bi" d="M331.76,272.77c0,20.65,15.36,37.38,34.31,37.38s34.31-16.74,34.31-37.38-15.36-37.39-34.31-37.39-34.31,16.74-34.31,37.39Z"/><path class="dd" d="M332.01,272.77c0,20.49,15.25,37.11,34.06,37.11s34.06-16.61,34.06-37.11-15.25-37.11-34.06-37.11-34.06,16.61-34.06,37.11Z"/><path class="au" d="M332.27,272.77c0,20.34,15.13,36.83,33.8,36.83s33.8-16.49,33.8-36.83-15.13-36.83-33.8-36.83-33.8,16.49-33.8,36.83Z"/><path class="am" d="M332.52,272.77c0,20.19,15.02,36.55,33.55,36.55s33.55-16.37,33.55-36.55-15.02-36.55-33.55-36.55-33.55,16.37-33.55,36.55Z"/><path class="ag" d="M332.77,272.77c0,20.04,14.91,36.28,33.3,36.28s33.3-16.24,33.3-36.28-14.91-36.28-33.3-36.28-33.3,16.24-33.3,36.28Z"/><path class="aw" d="M333.03,272.77c0,19.88,14.79,36,33.04,36s33.04-16.12,33.04-36-14.79-36-33.04-36-33.04,16.12-33.04,36Z"/><path class="cx" d="M333.28,272.77c0,19.73,14.68,35.72,32.79,35.72s32.79-15.99,32.79-35.72-14.68-35.72-32.79-35.72-32.79,15.99-32.79,35.72Z"/><path class="da" d="M333.54,272.77c0,19.58,14.57,35.45,32.53,35.45s32.53-15.87,32.53-35.45-14.57-35.45-32.53-35.45-32.53,15.87-32.53,35.45Z"/><path class="ba" d="M333.79,272.77c0,19.42,14.45,35.17,32.28,35.17s32.28-15.75,32.28-35.17-14.45-35.17-32.28-35.17-32.28,15.75-32.28,35.17Z"/><path class="ao" d="M334.04,272.77c0,19.27,14.34,34.89,32.03,34.89s32.03-15.62,32.03-34.89-14.34-34.89-32.03-34.89-32.03,15.62-32.03,34.89Z"/><path class="ck" d="M334.3,272.77c0,19.12,14.22,34.62,31.77,34.62s31.77-15.5,31.77-34.62-14.22-34.62-31.77-34.62-31.77,15.5-31.77,34.62Z"/><path class="bg" d="M334.55,272.77c0,18.96,14.11,34.34,31.52,34.34s31.52-15.37,31.52-34.34-14.11-34.34-31.52-34.34-31.52,15.37-31.52,34.34Z"/><path class="aq" d="M334.81,272.77c0,18.81,14,34.06,31.26,34.06s31.26-15.25,31.26-34.06-14-34.06-31.26-34.06-31.26,15.25-31.26,34.06Z"/><path class="ae" d="M335.06,272.77c0,18.66,13.88,33.78,31.01,33.78s31.01-15.13,31.01-33.78-13.88-33.79-31.01-33.79-31.01,15.13-31.01,33.79Z"/><path class="af" d="M335.32,272.77c0,18.51,13.77,33.51,30.75,33.51s30.75-15,30.75-33.51-13.77-33.51-30.75-33.51-30.75,15-30.75,33.51Z"/><path class="ap" d="M335.57,272.77c0,18.35,13.66,33.23,30.5,33.23s30.5-14.88,30.5-33.23-13.66-33.23-30.5-33.23-30.5,14.88-30.5,33.23Z"/><path class="bc" d="M335.82,272.77c0,18.2,13.54,32.95,30.25,32.95s30.25-14.75,30.25-32.95-13.54-32.95-30.25-32.95-30.25,14.75-30.25,32.95Z"/><path class="av" d="M336.08,272.77c0,18.05,13.43,32.68,29.99,32.68s29.99-14.63,29.99-32.68-13.43-32.68-29.99-32.68-29.99,14.63-29.99,32.68Z"/><path class="b" d="M336.33,272.77c0,17.89,13.31,32.4,29.74,32.4s29.74-14.51,29.74-32.4-13.31-32.4-29.74-32.4-29.74,14.51-29.74,32.4Z"/><path class="bq" d="M336.59,272.77c0,17.74,13.2,32.12,29.48,32.12s29.48-14.38,29.48-32.12-13.2-32.12-29.48-32.12-29.48,14.38-29.48,32.12Z"/><path class="bh" d="M336.84,272.77c0,17.59,13.09,31.85,29.23,31.85s29.23-14.26,29.23-31.85-13.09-31.85-29.23-31.85-29.23,14.26-29.23,31.85Z"/><path class="y" d="M337.09,272.77c0,17.44,12.97,31.57,28.98,31.57s28.98-14.13,28.98-31.57-12.97-31.57-28.98-31.57-28.98,14.13-28.98,31.57Z"/><path class="by" d="M337.35,272.77c0,17.28,12.86,31.29,28.72,31.29s28.72-14.01,28.72-31.29-12.86-31.29-28.72-31.29-28.72,14.01-28.72,31.29Z"/><path class="bj" d="M337.6,272.77c0,17.13,12.75,31.02,28.47,31.02s28.47-13.89,28.47-31.02-12.75-31.02-28.47-31.02-28.47,13.89-28.47,31.02Z"/><path class="dc" d="M337.86,272.77c0,16.98,12.63,30.74,28.21,30.74s28.21-13.76,28.21-30.74-12.63-30.74-28.21-30.74-28.21,13.76-28.21,30.74Z"/><path class="cn" d="M338.11,272.77c0,16.82,12.52,30.46,27.96,30.46s27.96-13.64,27.96-30.46-12.52-30.46-27.96-30.46-27.96,13.64-27.96,30.46Z"/><path class="g" d="M338.37,272.77c0,16.67,12.4,30.18,27.7,30.18s27.7-13.51,27.7-30.18-12.4-30.19-27.7-30.19-27.7,13.51-27.7,30.19Z"/><path class="c" d="M338.62,272.77c0,16.52,12.29,29.91,27.45,29.91s27.45-13.39,27.45-29.91-12.29-29.91-27.45-29.91-27.45,13.39-27.45,29.91Z"/><path class="e" d="M338.87,272.77c0,16.36,12.18,29.63,27.2,29.63s27.2-13.27,27.2-29.63-12.18-29.63-27.2-29.63-27.2,13.27-27.2,29.63Z"/><path class="aa" d="M339.13,272.77c0,16.21,12.06,29.35,26.94,29.35s26.94-13.14,26.94-29.35-12.06-29.35-26.94-29.35-26.94,13.14-26.94,29.35Z"/><path class="a`" d="M339.38,272.77c0,16.06,11.95,29.08,26.69,29.08s26.69-13.02,26.69-29.08-11.95-29.08-26.69-29.08-26.69,13.02-26.69,29.08Z"/><path class="bd" d="M339.64,272.77c0,15.91,11.83,28.8,26.43,28.8s26.43-12.89,26.43-28.8-11.83-28.8-26.43-28.8-26.43,12.89-26.43,28.8Z"/><path class="bt" d="M339.89,272.77c0,15.75,11.72,28.52,26.18,28.52s26.18-12.77,26.18-28.52-11.72-28.52-26.18-28.52-26.18,12.77-26.18,28.52Z"/><path class="ai" d="M340.14,272.77c0,15.6,11.61,28.25,25.93,28.25s25.93-12.65,25.93-28.25-11.61-28.25-25.93-28.25-25.93,12.65-25.93,28.25Z"/><path class="c`" d="M340.4,272.77c0,15.45,11.49,27.97,25.67,27.97s25.67-12.52,25.67-27.97-11.49-27.97-25.67-27.97-25.67,12.52-25.67,27.97Z"/><path class="bm" d="M340.65,272.77c0,15.29,11.38,27.69,25.42,27.69s25.42-12.4,25.42-27.69-11.38-27.69-25.42-27.69-25.42,12.4-25.42,27.69Z"/><path class="bp" d="M340.91,272.77c0,15.14,11.27,27.42,25.16,27.42s25.16-12.27,25.16-27.42-11.27-27.42-25.16-27.42-25.16,12.27-25.16,27.42Z"/><path class="br" d="M341.16,272.77c0,14.99,11.15,27.14,24.91,27.14s24.91-12.15,24.91-27.14-11.15-27.14-24.91-27.14-24.91,12.15-24.91,27.14Z"/><path class="ak" d="M341.42,272.77c0,14.84,11.04,26.86,24.65,26.86s24.65-12.03,24.65-26.86-11.04-26.86-24.65-26.86-24.65,12.03-24.65,26.86Z"/><path class="ar" d="M341.67,272.77c0,14.68,10.92,26.58,24.4,26.58s24.4-11.9,24.4-26.58-10.92-26.59-24.4-26.59-24.4,11.9-24.4,26.59Z"/><path class="b`" d="M341.92,272.77c0,14.53,10.81,26.31,24.15,26.31s24.15-11.78,24.15-26.31-10.81-26.31-24.15-26.31-24.15,11.78-24.15,26.31Z"/><path class="bn" d="M342.18,272.77c0,14.38,10.7,26.03,23.89,26.03s23.89-11.65,23.89-26.03-10.7-26.03-23.89-26.03-23.89,11.65-23.89,26.03Z"/><path class="cs" d="M342.43,272.77c0,14.22,10.58,25.75,23.64,25.75s23.64-11.53,23.64-25.75-10.58-25.75-23.64-25.75-23.64,11.53-23.64,25.75Z"/><path class="x" d="M342.69,272.77c0,14.07,10.47,25.48,23.38,25.48s23.38-11.41,23.38-25.48-10.47-25.48-23.38-25.48-23.38,11.41-23.38,25.48Z"/><path class="ac" d="M342.94,272.77c0,13.92,10.36,25.2,23.13,25.2s23.13-11.28,23.13-25.2-10.36-25.2-23.13-25.2-23.13,11.28-23.13,25.2Z"/><path class="an" d="M343.19,272.77c0,13.76,10.24,24.92,22.88,24.92s22.88-11.16,22.88-24.92-10.24-24.92-22.88-24.92-22.88,11.16-22.88,24.92Z"/><path class="ah" d="M343.45,272.77c0,13.61,10.13,24.65,22.62,24.65s22.62-11.03,22.62-24.65-10.13-24.65-22.62-24.65-22.62,11.03-22.62,24.65Z"/><path class="d`" d="M343.7,272.77c0,13.46,10.01,24.37,22.37,24.37s22.37-10.91,22.37-24.37-10.01-24.37-22.37-24.37-22.37,10.91-22.37,24.37Z"/><path class="d" d="M343.96,272.77c0,13.31,9.9,24.09,22.11,24.09s22.11-10.79,22.11-24.09-9.9-24.09-22.11-24.09-22.11,10.79-22.11,24.09Z"/><path class="i" d="M344.21,272.77c0,13.15,9.79,23.82,21.86,23.82s21.86-10.66,21.86-23.82-9.79-23.82-21.86-23.82-21.86,10.66-21.86,23.82Z"/><path class="ci" d="M344.47,272.77c0,13,9.67,23.54,21.6,23.54s21.6-10.54,21.6-23.54-9.67-23.54-21.6-23.54-21.6,10.54-21.6,23.54Z"/><path class="cb" d="M344.72,272.77c0,12.85,9.56,23.26,21.35,23.26s21.35-10.41,21.35-23.26-9.56-23.26-21.35-23.26-21.35,10.41-21.35,23.26Z"/><path class="cr" d="M344.97,272.77c0,12.69,9.45,22.98,21.1,22.98s21.1-10.29,21.1-22.98-9.45-22.99-21.1-22.99-21.1,10.29-21.1,22.99Z"/><path class="cg" d="M345.23,272.77c0,12.54,9.33,22.71,20.84,22.71s20.84-10.17,20.84-22.71-9.33-22.71-20.84-22.71-20.84,10.17-20.84,22.71Z"/><path class="ca" d="M345.48,272.77c0,12.39,9.22,22.43,20.59,22.43s20.59-10.04,20.59-22.43-9.22-22.43-20.59-22.43-20.59,10.04-20.59,22.43Z"/><path class="bu" d="M345.74,272.77c0,12.24,9.1,22.15,20.33,22.15s20.33-9.92,20.33-22.15-9.1-22.15-20.33-22.15-20.33,9.92-20.33,22.15Z"/></g><g class="bk"><ellipse class="cd" cx="258.97" cy="272.77" rx="41.35" ry="44.31"/><ellipse class="be" cx="258.97" cy="272.77" rx="41.1" ry="44.03"/><ellipse class="at" cx="258.97" cy="272.77" rx="40.84" ry="43.75"/><ellipse class="h" cx="258.97" cy="272.77" rx="40.58" ry="43.48"/><ellipse class="bl" cx="258.97" cy="272.77" rx="40.32" ry="43.2"/><ellipse class="ax" cx="258.97" cy="272.77" rx="40.06" ry="42.92"/><ellipse class="co" cx="258.97" cy="272.77" rx="39.8" ry="42.65"/><ellipse class="cq" cx="258.97" cy="272.77" rx="39.54" ry="42.37"/><ellipse class="cv" cx="258.97" cy="272.77" rx="39.29" ry="42.09"/><ellipse class="al" cx="258.97" cy="272.77" rx="39.03" ry="41.82"/><ellipse class="cm" cx="258.97" cy="272.77" rx="38.77" ry="41.54"/><ellipse class="aj" cx="258.97" cy="272.77" rx="38.51" ry="41.26"/><ellipse class="ab" cx="258.97" cy="272.77" rx="38.25" ry="40.99"/><ellipse class="ct" cx="258.97" cy="272.77" rx="37.99" ry="40.71"/><ellipse class="ad" cx="258.97" cy="272.77" rx="37.74" ry="40.43"/><ellipse class="bw" cx="258.97" cy="272.77" rx="37.48" ry="40.15"/><path class="cp" d="M221.75,272.77c0,22.02,16.66,39.88,37.22,39.88s37.22-17.85,37.22-39.88-16.66-39.88-37.22-39.88-37.22,17.85-37.22,39.88Z"/><path class="ay" d="M222.01,272.77c0,21.87,16.55,39.6,36.96,39.6s36.96-17.73,36.96-39.6-16.55-39.6-36.96-39.6-36.96,17.73-36.96,39.6Z"/><path class="db" d="M222.27,272.77c0,21.72,16.43,39.32,36.7,39.32s36.7-17.61,36.7-39.32-16.43-39.32-36.7-39.32-36.7,17.61-36.7,39.32Z"/><path class="f" d="M222.53,272.77c0,21.56,16.32,39.05,36.44,39.05s36.44-17.48,36.44-39.05-16.32-39.05-36.44-39.05-36.44,17.48-36.44,39.05Z"/><path class="cl" d="M222.79,272.77c0,21.41,16.2,38.77,36.18,38.77s36.18-17.36,36.18-38.77-16.2-38.77-36.18-38.77-36.18,17.36-36.18,38.77Z"/><path class="cw" d="M223.05,272.77c0,21.26,16.08,38.49,35.93,38.49s35.93-17.23,35.93-38.49-16.08-38.49-35.93-38.49-35.93,17.23-35.93,38.49Z"/><path class="bv" d="M223.3,272.77c0,21.11,15.97,38.22,35.67,38.22s35.67-17.11,35.67-38.22-15.97-38.22-35.67-38.22-35.67,17.11-35.67,38.22Z"/><path class="ch" d="M223.56,272.77c0,20.95,15.85,37.94,35.41,37.94s35.41-16.99,35.41-37.94-15.85-37.94-35.41-37.94-35.41,16.99-35.41,37.94Z"/><path class="bo" d="M223.82,272.77c0,20.8,15.74,37.66,35.15,37.66s35.15-16.86,35.15-37.66-15.74-37.66-35.15-37.66-35.15,16.86-35.15,37.66Z"/><path class="bi" d="M224.08,272.77c0,20.65,15.62,37.38,34.89,37.38s34.89-16.74,34.89-37.38-15.62-37.39-34.89-37.39-34.89,16.74-34.89,37.39Z"/><path class="dd" d="M224.34,272.77c0,20.49,15.51,37.11,34.63,37.11s34.63-16.61,34.63-37.11-15.51-37.11-34.63-37.11-34.63,16.61-34.63,37.11Z"/><path class="au" d="M224.6,272.77c0,20.34,15.39,36.83,34.38,36.83s34.38-16.49,34.38-36.83-15.39-36.83-34.38-36.83-34.38,16.49-34.38,36.83Z"/><path class="am" d="M224.86,272.77c0,20.19,15.27,36.55,34.12,36.55s34.12-16.37,34.12-36.55-15.27-36.55-34.12-36.55-34.12,16.37-34.12,36.55Z"/><path class="ag" d="M225.11,272.77c0,20.04,15.16,36.28,33.86,36.28s33.86-16.24,33.86-36.28-15.16-36.28-33.86-36.28-33.86,16.24-33.86,36.28Z"/><path class="aw" d="M225.37,272.77c0,19.88,15.04,36,33.6,36s33.6-16.12,33.6-36-15.04-36-33.6-36-33.6,16.12-33.6,36Z"/><path class="cx" d="M225.63,272.77c0,19.73,14.93,35.72,33.34,35.72s33.34-15.99,33.34-35.72-14.93-35.72-33.34-35.72-33.34,15.99-33.34,35.72Z"/><path class="da" d="M225.89,272.77c0,19.58,14.81,35.45,33.08,35.45s33.08-15.87,33.08-35.45-14.81-35.45-33.08-35.45-33.08,15.87-33.08,35.45Z"/><path class="ba" d="M226.15,272.77c0,19.42,14.7,35.17,32.82,35.17s32.82-15.75,32.82-35.17-14.7-35.17-32.82-35.17-32.82,15.75-32.82,35.17Z"/><path class="ao" d="M226.41,272.77c0,19.27,14.58,34.89,32.57,34.89s32.57-15.62,32.57-34.89-14.58-34.89-32.57-34.89-32.57,15.62-32.57,34.89Z"/><path class="ck" d="M226.66,272.77c0,19.12,14.46,34.62,32.31,34.62s32.31-15.5,32.31-34.62-14.46-34.62-32.31-34.62-32.31,15.5-32.31,34.62Z"/><path class="bg" d="M226.92,272.77c0,18.96,14.35,34.34,32.05,34.34s32.05-15.37,32.05-34.34-14.35-34.34-32.05-34.34-32.05,15.37-32.05,34.34Z"/><path class="aq" d="M227.18,272.77c0,18.81,14.23,34.06,31.79,34.06s31.79-15.25,31.79-34.06-14.23-34.06-31.79-34.06-31.79,15.25-31.79,34.06Z"/><path class="ae" d="M227.44,272.77c0,18.66,14.12,33.78,31.53,33.78s31.53-15.13,31.53-33.78-14.12-33.79-31.53-33.79-31.53,15.13-31.53,33.79Z"/><path class="af" d="M227.7,272.77c0,18.51,14,33.51,31.27,33.51s31.27-15,31.27-33.51-14-33.51-31.27-33.51-31.27,15-31.27,33.51Z"/><path class="ap" d="M227.96,272.77c0,18.35,13.89,33.23,31.02,33.23s31.02-14.88,31.02-33.23-13.89-33.23-31.02-33.23-31.02,14.88-31.02,33.23Z"/><path class="bc" d="M228.22,272.77c0,18.2,13.77,32.95,30.76,32.95s30.76-14.75,30.76-32.95-13.77-32.95-30.76-32.95-30.76,14.75-30.76,32.95Z"/><path class="av" d="M228.47,272.77c0,18.05,13.65,32.68,30.5,32.68s30.5-14.63,30.5-32.68-13.65-32.68-30.5-32.68-30.5,14.63-30.5,32.68Z"/><path class="b" d="M228.73,272.77c0,17.89,13.54,32.4,30.24,32.4s30.24-14.51,30.24-32.4-13.54-32.4-30.24-32.4-30.24,14.51-30.24,32.4Z"/><path class="bq" d="M228.99,272.77c0,17.74,13.42,32.12,29.98,32.12s29.98-14.38,29.98-32.12-13.42-32.12-29.98-32.12-29.98,14.38-29.98,32.12Z"/><path class="bh" d="M229.25,272.77c0,17.59,13.31,31.85,29.72,31.85s29.72-14.26,29.72-31.85-13.31-31.85-29.72-31.85-29.72,14.26-29.72,31.85Z"/><path class="y" d="M229.51,272.77c0,17.44,13.19,31.57,29.46,31.57s29.46-14.13,29.46-31.57-13.19-31.57-29.46-31.57-29.46,14.13-29.46,31.57Z"/><path class="by" d="M229.77,272.77c0,17.28,13.08,31.29,29.21,31.29s29.21-14.01,29.21-31.29-13.08-31.29-29.21-31.29-29.21,14.01-29.21,31.29Z"/><path class="bj" d="M230.02,272.77c0,17.13,12.96,31.02,28.95,31.02s28.95-13.89,28.95-31.02-12.96-31.02-28.95-31.02-28.95,13.89-28.95,31.02Z"/><path class="dc" d="M230.28,272.77c0,16.98,12.84,30.74,28.69,30.74s28.69-13.76,28.69-30.74-12.84-30.74-28.69-30.74-28.69,13.76-28.69,30.74Z"/><path class="cn" d="M230.54,272.77c0,16.82,12.73,30.46,28.43,30.46s28.43-13.64,28.43-30.46-12.73-30.46-28.43-30.46-28.43,13.64-28.43,30.46Z"/><path class="g" d="M230.8,272.77c0,16.67,12.61,30.18,28.17,30.18s28.17-13.51,28.17-30.18-12.61-30.19-28.17-30.19-28.17,13.51-28.17,30.19Z"/><path class="c" d="M231.06,272.77c0,16.52,12.5,29.91,27.91,29.91s27.91-13.39,27.91-29.91-12.5-29.91-27.91-29.91-27.91,13.39-27.91,29.91Z"/><path class="e" d="M231.32,272.77c0,16.36,12.38,29.63,27.66,29.63s27.66-13.27,27.66-29.63-12.38-29.63-27.66-29.63-27.66,13.27-27.66,29.63Z"/><path class="aa" d="M231.58,272.77c0,16.21,12.27,29.35,27.4,29.35s27.4-13.14,27.4-29.35-12.27-29.35-27.4-29.35-27.4,13.14-27.4,29.35Z"/><path class="a`" d="M231.83,272.77c0,16.06,12.15,29.08,27.14,29.08s27.14-13.02,27.14-29.08-12.15-29.08-27.14-29.08-27.14,13.02-27.14,29.08Z"/><path class="bd" d="M232.09,272.77c0,15.91,12.03,28.8,26.88,28.8s26.88-12.89,26.88-28.8-12.03-28.8-26.88-28.8-26.88,12.89-26.88,28.8Z"/><path class="bt" d="M232.35,272.77c0,15.75,11.92,28.52,26.62,28.52s26.62-12.77,26.62-28.52-11.92-28.52-26.62-28.52-26.62,12.77-26.62,28.52Z"/><path class="ai" d="M232.61,272.77c0,15.6,11.8,28.25,26.36,28.25s26.36-12.65,26.36-28.25-11.8-28.25-26.36-28.25-26.36,12.65-26.36,28.25Z"/><path class="c`" d="M232.87,272.77c0,15.45,11.69,27.97,26.1,27.97s26.1-12.52,26.1-27.97-11.69-27.97-26.1-27.97-26.1,12.52-26.1,27.97Z"/><path class="bm" d="M233.13,272.77c0,15.29,11.57,27.69,25.85,27.69s25.85-12.4,25.85-27.69-11.57-27.69-25.85-27.69-25.85,12.4-25.85,27.69Z"/><path class="bp" d="M233.38,272.77c0,15.14,11.46,27.42,25.59,27.42s25.59-12.27,25.59-27.42-11.46-27.42-25.59-27.42-25.59,12.27-25.59,27.42Z"/><path class="br" d="M233.64,272.77c0,14.99,11.34,27.14,25.33,27.14s25.33-12.15,25.33-27.14-11.34-27.14-25.33-27.14-25.33,12.15-25.33,27.14Z"/><path class="ak" d="M233.9,272.77c0,14.84,11.22,26.86,25.07,26.86s25.07-12.03,25.07-26.86-11.22-26.86-25.07-26.86-25.07,12.03-25.07,26.86Z"/><path class="ar" d="M234.16,272.77c0,14.68,11.11,26.58,24.81,26.58s24.81-11.9,24.81-26.58-11.11-26.59-24.81-26.59-24.81,11.9-24.81,26.59Z"/><path class="b`" d="M234.42,272.77c0,14.53,10.99,26.31,24.55,26.31s24.55-11.78,24.55-26.31-10.99-26.31-24.55-26.31-24.55,11.78-24.55,26.31Z"/><path class="bn" d="M234.68,272.77c0,14.38,10.88,26.03,24.3,26.03s24.3-11.65,24.3-26.03-10.88-26.03-24.3-26.03-24.3,11.65-24.3,26.03Z"/><path class="cs" d="M234.94,272.77c0,14.22,10.76,25.75,24.04,25.75s24.04-11.53,24.04-25.75-10.76-25.75-24.04-25.75-24.04,11.53-24.04,25.75Z"/><path class="x" d="M235.19,272.77c0,14.07,10.65,25.48,23.78,25.48s23.78-11.41,23.78-25.48-10.65-25.48-23.78-25.48-23.78,11.41-23.78,25.48Z"/><path class="ac" d="M235.45,272.77c0,13.92,10.53,25.2,23.52,25.2s23.52-11.28,23.52-25.2-10.53-25.2-23.52-25.2-23.52,11.28-23.52,25.2Z"/><path class="an" d="M235.71,272.77c0,13.76,10.41,24.92,23.26,24.92s23.26-11.16,23.26-24.92-10.41-24.92-23.26-24.92-23.26,11.16-23.26,24.92Z"/><path class="ah" d="M235.97,272.77c0,13.61,10.3,24.65,23,24.65s23-11.03,23-24.65-10.3-24.65-23-24.65-23,11.03-23,24.65Z"/><path class="d`" d="M236.23,272.77c0,13.46,10.18,24.37,22.74,24.37s22.74-10.91,22.74-24.37-10.18-24.37-22.74-24.37-22.74,10.91-22.74,24.37Z"/><path class="d" d="M236.49,272.77c0,13.31,10.07,24.09,22.49,24.09s22.49-10.79,22.49-24.09-10.07-24.09-22.49-24.09-22.49,10.79-22.49,24.09Z"/><path class="i" d="M236.74,272.77c0,13.15,9.95,23.82,22.23,23.82s22.23-10.66,22.23-23.82-9.95-23.82-22.23-23.82-22.23,10.66-22.23,23.82Z"/><path class="ci" d="M237,272.77c0,13,9.84,23.54,21.97,23.54s21.97-10.54,21.97-23.54-9.84-23.54-21.97-23.54-21.97,10.54-21.97,23.54Z"/><path class="cb" d="M237.26,272.77c0,12.85,9.72,23.26,21.71,23.26s21.71-10.41,21.71-23.26-9.72-23.26-21.71-23.26-21.71,10.41-21.71,23.26Z"/><path class="cr" d="M237.52,272.77c0,12.69,9.6,22.98,21.45,22.98s21.45-10.29,21.45-22.98-9.6-22.99-21.45-22.99-21.45,10.29-21.45,22.99Z"/><path class="cg" d="M237.78,272.77c0,12.54,9.49,22.71,21.19,22.71s21.19-10.17,21.19-22.71-9.49-22.71-21.19-22.71-21.19,10.17-21.19,22.71Z"/><path class="ca" d="M238.04,272.77c0,12.39,9.37,22.43,20.94,22.43s20.94-10.04,20.94-22.43-9.37-22.43-20.94-22.43-20.94,10.04-20.94,22.43Z"/><path class="bu" d="M238.3,272.77c0,12.24,9.26,22.15,20.68,22.15s20.68-9.92,20.68-22.15-9.26-22.15-20.68-22.15-20.68,9.92-20.68,22.15Z"/></g><path class="cj" d="M285.38,188.17s-6.56,29.63-1.7,50l-53.45-1.4s-5.51-16.08-3.79-37.56l58.94-11.04Z"/><polygon class="cj" points="328.12 186.82 338.84 241.01 384.32 231.11 384.41 193.25 328.12 186.82"/><path class="bx" d="M384.41,193.25s-15.39-23.32-57.1-27.99l.8,21.56s36.09,4.1,54.52,15.11l1.78-8.69Z"/><path class="bx" d="M224.3,198.28s16.35-24,56.71-29.3l4.37,19.18s-43.89,8.01-58.12,18.53l-2.96-8.42Z"/><path d="M355.87,291.91s-10.12,7.63-41.71,7.2c-38.58-.53-45.41-9-45.41-9,0,0,.54,39.78,43.6,39.72,45.8-.06,43.52-37.92,43.52-37.92Z"/><path class="t" d="M339.6,323.18c-6.33,3.94-15.08,6.64-27.25,6.65-14.13,.02-23.66-4.26-30.12-10.01,19.34-5.72,38.12-6.23,57.37,3.36Z"/><path class="t" d="M279.08,295.06c6.77,1.97,17.67,3.82,35.08,4.06,14.25,.19,24.1-1.26,30.66-2.9,.84,5.98-10.37,16.2-30.8,16.23-23.32,.03-36.61-13.1-34.94-17.39Z"/><path class="cu" d="M289.15,306.52c-7.35-4.05-10.99-9.1-10.07-11.46,6.77,1.97,17.67,3.82,35.08,4.06,.22,0,.42,0,.63,0-8.76,.66-17.88,3.56-25.64,7.4Z"/><path class="cu" d="M338.61,305.72c-4.67-4.13-10.56-6.19-16.96-6.68,10.28-.3,17.84-1.49,23.16-2.83,.38,2.74-1.79,6.37-6.21,9.51Z"/><path class="s" d="M309.96,344.01c-2.17-.03-4.57-.16-7.01-.47-8.43-1.07-11.82,11.07-3.96,14.29,1.79,.73,4.02,1.24,6.8,1.42,2.96,.19,5.29-.14,7.12-.82,7.63-2.84,5.2-14.31-2.95-14.42Z"/><path class="p" d="M401.26,160.97c-.97-6.14-2.22-12.17-3.81-18.03,4.23-10.72,8.59-38.8-7.07-71.96,0,0-14.82,4.29-21.6,11.95,0,0,1.33-22.98-18.01-51.78,0,0-43.22,3.91-70.73,34.14-.51,.83-1.01,1.1-1.01,1.1,.33-.38,.68-.73,1.01-1.1,1.05-1.7,1.28-11.03-1.86-20.1,0,0-51.41,14.92-65.87,52.78-.04,.04-.08,.09-.13,.13,.37-1.77,.88-8.45-10.29-14.24,0,0-4.88,4.62,1.83,14.88,.93,1.08,1.38,1.97,1.38,1.97-.51-.68-.96-1.34-1.38-1.97-1.27-1.48-3.48-3.32-6.95-3.85,0,0-6.22,4.6,2.46,10.72,0,0-8.51,18.83-6.54,47.82-.04,2.47-.03,4.98,.08,7.54,1.99,45.84,13.11,82.02,13.11,82.02,.18-7.69,.54-15.37,1.08-23.04,1.75-24.72,4.73-50.41,13.72-73.67,3.57-9.24,8.01-18.59,15.79-25.04,11.38-9.45,26.81-6.25,40.04-3.56,14.94,3.04,30.38,7.08,45.47,2.53,9.49-2.86,19.02-6.84,29.06-4.13,12.43,3.35,21,14.3,26.54,25.32,15.35,30.48,23.16,66.05,28.59,99.6,0,0,5.55-14.18-4.9-80.04Z"/><polygon class="u" points="387.24 265.51 379.2 266.36 323.81 226.91 323.7 225.09 332.83 223.3 356.66 223.3 395.49 248.44 395.22 250.6 387.24 265.51"/><polygon class="u" points="277.54 265.51 269.5 266.36 214.11 226.91 214 225.09 218.66 220.54 244.48 220.54 285.79 248.44 285.52 250.6 277.54 265.51"/><path class="ce" d="M374.66,94.16s7.23-20.3-4.89-40.01c0,0-13.65,10.45-11.54,30.46,2.11,20.01,16.44,9.56,16.44,9.56Z"/><path class="ce" d="M284.62,74.92s11.34-14.63,7.16-32.55c0,0-28.96,13.14-24.78,36.43,4.18,23.29,17.61-3.88,17.61-3.88Z"/><path class="bs" d="M327.44,255.64l-3.66-21.96c-.57-3.41,.39-6.88,2.62-9.52,2.24-2.64,5.5-4.15,8.96-4.15h58.9c3.46,0,6.73,1.51,8.96,4.15,2.24,2.64,3.19,6.11,2.62,9.52l-3.63,21.75c-1.92,11.5-11.76,19.84-23.42,19.84h-28.19c-11.53,0-21.27-8.26-23.17-19.63Zm7.92-28.47c-1.35,0-2.62,.59-3.49,1.62-.87,1.03-1.25,2.38-1.02,3.71l3.66,21.96c1.32,7.91,8.09,13.64,16.1,13.64h28.19c8.14,0,15.02-5.83,16.35-13.86l3.63-21.75c.22-1.33-.15-2.68-1.02-3.71-.87-1.03-2.14-1.62-3.49-1.62h-58.9Z"/><path class="bs" d="M219.58,255.64l-3.66-21.96c-.57-3.41,.39-6.88,2.62-9.52,2.24-2.64,5.5-4.15,8.96-4.15h58.9c3.46,0,6.72,1.52,8.96,4.16,2.24,2.64,3.19,6.11,2.62,9.52l-3.62,21.75c-1.91,11.5-11.77,19.84-23.42,19.84h-28.19c-11.53,0-21.27-8.26-23.17-19.63Zm7.92-28.47c-1.35,0-2.62,.59-3.49,1.62-.87,1.03-1.25,2.38-1.02,3.71l3.66,21.97c1.32,7.9,8.09,13.64,16.1,13.64h28.19c8.14,0,15.02-5.83,16.36-13.86l3.62-21.75c.22-1.33-.15-2.68-1.02-3.71-.87-1.03-2.14-1.62-3.49-1.62h-58.9Z"/><path class="cd" d="M315.57,229s9.26,19.61,19.41,34.43c7.82,11.42,2.13,20.89-22.98,20.04-25.11-.84-26.47-11.55-20.97-23.99,5.99-13.54,10.15-30.48,10.15-30.48h14.39Z"/><path class="v" d="M315.84,241.69c1.99,4.83,4.3,9.57,6.51,14.31,1.39,2.98,2.9,5.88,4.47,8.75-4.72,.48-9.44,.78-14.15,.93-1.12-2.87-2.13-5.77-2.9-8.74-1.22-4.74-1.75-9.5-1.81-14.27,2.63-.3,5.25-.63,7.88-.98Z"/><path class="bf" d="M289.32,267.71c16.14,6.95,32.68,5.76,48.53,.72,2.09,8.6-5.43,15.13-25.84,14.45-18.42-.62-24.02-7.04-23.55-15.32,.28,.06,.58,.09,.86,.15Z"/><rect class="bs" x="293.85" y="228.97" width="34.27" height="7.73" transform="translate(621.97 465.68) rotate(180)"/><rect class="bs" x="401.41" y="232.56" width="13.57" height="9.96" rx=".61" ry=".61" transform="translate(816.4 475.07) rotate(180)"/><rect class="bs" x="198.55" y="232.56" width="22.11" height="9.96" rx=".6" ry=".6" transform="translate(419.2 475.07) rotate(180)"/><path class="w" d="M224.78,77.87c4.92,.44,10.97,.17,17.8-1.22,9.75-1.8,20.98-5.69,33.31-9.92,6.15-2.2,12.65-4.29,19.41-6.3,6.76-2,13.84-3.88,21.28-4.94,7.44-1.11,15.13-1.57,23.13-.5l2.55,.35,.16,.02,.38,.06,.09,.02,.37,.09,.74,.19,1.47,.38c1.93,.55,3.95,.95,5.76,1.66,3.63,1.42,7.16,2.95,10.25,4.87,3.3,1.7,6,3.94,8.84,5.91,2.15,1.74,4.19,3.49,6.13,5.26,.11,1.02,.2,2.03,.25,3,.62-.36,1.25-.68,1.87-1.01,4.28,4.19,7.98,8.41,11.11,12.49,3.29,4.36,6.09,8.45,8.38,12.2,.88,1.47,1.65,2.82,2.4,4.15,.64,4.79,.94,9.31,.94,13.47-.97-1.02-2.14-2.26-3.53-3.72-2.12-2.15-4.69-4.77-7.64-7.77-3-2.91-6.26-6.27-10.09-9.59-1.85-1.73-3.81-3.46-5.89-5.17-2-1.82-4.23-3.43-6.43-5.19-2.19-1.76-4.62-3.27-6.96-4.96-2.46-1.44-4.89-3.12-7.48-4.31-1.29-.6-2.55-1.43-3.88-1.87-1.33-.48-2.64-1-3.96-1.54-1.32-.52-2.67-.69-4.01-1.07l-1.75-.46-2.54-.38c-5.63-.83-12.01-.55-18.39,.18-6.4,.79-12.96,2.05-19.47,3.58-6.6,1.65-13.09,3.27-19.37,4.84-6.39,1.55-12.65,3.11-18.73,4.23-6.09,1.09-11.99,1.87-17.53,2.14-5.55,.2-10.72-.14-15.24-.95-3.19-.58-6.02-1.42-8.46-2.36,1.48-2.05,3.06-4.01,4.72-5.88Z"/><path d="M258.3,238.04c-.44,4.86,3.15,9.15,8,9.58,4.86,.44,9.14-3.15,9.58-8.01,.44-4.86-3.15-9.15-8-9.58s-9.14,3.15-9.58,8Z"/><path d="M347.38,238.5c-.44,4.86,3.15,9.15,8,9.58,4.86,.44,9.14-3.15,9.58-8,.44-4.86-3.15-9.15-8-9.58-4.86-.44-9.14,3.15-9.58,8.01Z"/><path class="o" d="M208.38,244.83s-36.05-17.63-39.31,5.79c-3.26,23.42,12.41,40.01,18.32,43.21,12.84,6.96,21.45-2.93,21.45-2.93"/><path class="s" d="M171.47,251.43c2.17,7.8,5.55,15.15,8.23,19.63,6.8,11.37,21.48,16.33,32.11,7.06,5.86,18.6,17.33,37.36,26.37,50.33,17.62,25.27,51.12,36.98,80.96,36.62,31.45-.37,60.33-11.71,79.58-37.07,2.37-3.13,4.65-6.24,6.83-9.35-1.75,6.22-4.01,12.3-6.92,18.16-19.45,39.14-66.44,47.18-105.78,41.88-26.03-3.51-50.91-17.12-66.5-38.87-10.4-14.51-15.27-31.44-17.51-48.91-1.38,1.07-2.89,1.94-4.55,2.51-11.62,4-25.44-6.63-30.88-23.75-2-6.3-2.58-12.59-1.94-18.24Z"/><path class="s" d="M201.66,265.14s-2.41-28.03-22.61-21.02c0,0,12.31,5.71,12.01,22.4l10.6-1.38Z"/><polyline class="p" points="278.94 50.87 291.78 42.37 292.49 54.38"/><polyline class="p" points="361.49 62.65 369.77 54.15 376.46 73.82"/><ellipse class="j" cx="300.33" cy="300.08" rx="282.35" ry="282.43"/></svg>