<?xml version="1.0" encoding="UTF-8"?><svg id="a" xmlns="http://www.w3.org/2000/svg" xmlns:xlink="http://www.w3.org/1999/xlink" viewBox="0 0 600 600"><defs><style>.c{stroke-width:4px;}.c,.d,.e,.f,.g,.h,.i,.j{stroke:#000;}.c,.d,.e,.f,.g,.h,.i,.j,.k{stroke-miterlimit:10;}.c,.l{fill:none;}.m,.n{fill:#fff;}.d{fill:#25302c;}.d,.e,.f,.g,.h,.i,.j,.k{stroke-width:2px;}.o{fill:#ff7b78;}.e,.p{fill:#1b2320;}.f{fill:#f0f2f1;}.q{fill:#d4d6d5;}.g,.r{fill:#d78c74;}.s{fill:#281b17;}.t{opacity:.08;}.u{fill:#47211a;}.h{opacity:.1;}.v{fill:#f4e5d7;}.w{opacity:.23;}.x{clip-path:url(#b);}.n{opacity:.14;}.i,.y{fill:#e5a185;}.a`{fill:#c3bba5;opacity:.35;}.j{fill:#54281f;}.k{fill:#b37857;stroke:#090605;}.aa{fill:#ed7070;}.ab{opacity:.09;}</style><clipPath id="b"><circle class="l" cx="300" cy="300" r="283"/></clipPath></defs><g class="x"><circle class="v" cx="295.98" cy="300" r="283"/><path class="u" d="M273.28,56.12s-53.69-18.12-128.19,146.35c-90.85,200.57,79.52,330.54,45.92,360.33,25.04,10.01,51.83,16.55,79.81,19.02,34.99-10.14,76.88-34.86,122.97-86.98,108.42-122.61,122.1-211.42,37.4-335.84-36.34-53.39-136.18-136.47-157.92-102.88Z"/><path class="w" d="M414.86,254.29c-.15-.55-.35-1.26-.62-2.23-1.62-5.85-3.28-11.67-5.14-17.45-3.59-11.17-7.72-22.17-12.3-32.98-10.03-23.68-18.25-40.2-31.98-60.26-3.31-4.83-6.79-9.56-10.48-14.11-1.81-2.23-3.73-4.37-5.58-6.56-.2-.24-.63-.69-1.04-1.13-7.31-7.3-15.29-13.51-23.66-19.55-.66-.47-1.15-.84-1.53-1.13-.45-.24-1.06-.57-1.87-1.03-2.75-1.55-5.53-3.04-8.33-4.5-5.31-2.77-10.67-5.44-16.04-8.11-10.77-5.37-21.38-11-31.38-17.67-1.14,2.93-2.73,5.71-4.87,8.19-29.15,33.89-56.39,69.7-76.49,107.34-8.48,15.88-18.56,35.9-22.15,51.05-4.63,19.54-6.54,38.09-5.85,55.21,1.7,42.45,10.53,78.39,25.33,116.93,7.4,19.26,15.95,38.08,25.13,56.55,5.11,10.28,10.57,20.36,15.85,30.55,2.2,4.24,4.28,8.55,6.52,12.77,1.02,1.93,2.06,3.86,3.11,5.77,.33,.58,.81,1.43,1.52,2.67,12.7,22.28,26.32,44.27,37.95,67.19,14.66-4.27,30.54-11.11,47.43-21.44,12.22-13.56,24.01-27.52,35.12-42.01,14.61-19.06,25.6-35.35,35.44-53.31,6.08-11.1,11.64-22.5,16.49-34.19,2.01-4.84,3.91-9.73,5.68-14.66,1.06-2.96,2.05-5.93,3.03-8.92,.08-.24,.28-.92,.47-1.59,13.33-47.18,12.53-90.27,2.83-139.36-.8-4.02-1.64-8.05-2.6-12.03Z"/><path class="g" d="M321.85,356.63c-2.05-14.05-21.49-21.72-36.06-20.7-14.56,1.02-21.83,8.85-19.78,22.91,0,0,.87,43.08-9.26,43.08-14.2,0,30.59,45.52,45.16,44.49,14.56-1.02,40.77-42.77,26.58-43.44-10.32-.49-6.64-46.34-6.64-46.34Z"/><path class="r" d="M416.84,236.77c-6.09-3.68-13.72-3.37-13.72-3.37l-5.83,55.72c28.64-7.11,25.65-48.66,19.55-52.34Z"/><path class="i" d="M330.69,110.39c-12.3-5.01-25.62-7.94-39.06-8.72-34.34-1.99-68.84,9.97-90.11,37.95-17.91,23.56-20.64,54.56-17.49,83.08,2.41,21.82,7.7,44.45,15.89,65.5,1.2,.75,2.33,1.62,3.35,2.67,16.22,16.76,29.45,70.36,90.11,82.61,64.19-.42,104.99-88.19,107.29-91.38,13.18-46.74,8.04-100.46-22.23-136.86-12.67-15.24-29.39-27.39-47.75-34.87Z"/><path d="M256.75,289.33s11.88,46.62,48.58,45.4c37.47-1.24,43.91-45.62,43.91-45.62,0,0-37.78,43.71-92.49,.22Z"/><path class="m" d="M270.29,296.55s7.39,23.27,34.5,23.87c27.17,.61,31.08-21.06,30.31-22.69-10.28,7.95-33.9,20.23-64.81-1.19Z"/><path class="a`" d="M270.29,296.55s3.96,12.32,16.58,19.26c4.05-1.85,8.37-3.4,12.98-4.77,8.92-2.64,21.54-5.38,31.8-2.89,3.19-4.96,3.8-9.69,3.45-10.42-10.28,7.95-33.91,20.23-64.81-1.19Z"/><path class="r" d="M372.49,187.03s-33.4-7.19-50.59,9.36c0,0,9.75,33.86,11.18,55.09,0,0,3.42-29.07,18-32.11,14.59-3.04,28,13.54,29.94,9.08,1.95-4.46,1.54-7.98,1.54-7.98l-10.08-33.44Z"/><path class="r" d="M221.56,232.25l-1.01-.15c.35,.23,1.01,.15,1.01,.15Z"/><path class="r" d="M251.58,185.47c-11.7-2.94-31.42-1.71-31.42-1.71l-7.38,47.19,7.76,1.15c-.79-.5-.05-2.49,12.97-10.14,18.85-11.08,36.89,23.32,36.89,23.32-1.31-23.4,7.85-53.27,7.85-53.27,0,0-14.97-3.59-26.67-6.53Z"/><path class="s" d="M321.19,202.82l1.78,11.14s24.81-13.45,47.84,7.15l2.14-2.35s-24.83-30.49-51.75-15.95Z"/><path class="s" d="M226.03,217.49l2.04,2.43c23.87-19.62,50.73-6.35,50.73-6.35l-.31-10.56c-26.3-15.65-52.46,14.47-52.46,14.47Z"/><path class="h" d="M416.84,236.77c-3.13-1.89-6.65-2.72-9.35-3.09,.08-32.37-8.94-64.23-29.05-88.42-12.67-15.24-29.39-27.39-47.75-34.87-12.3-5.01-25.62-7.94-39.06-8.72-34.34-1.99-68.84,9.97-90.11,37.95-17.91,23.56-20.64,54.56-17.49,83.08,.68,6.16,1.66,12.39,2.8,18.62-4.79-4.09-12.96-10.65-23.6-5.99-8.04,3.52,.36,26.59,11.57,42.64,37.98-47.02,98.23-78.15,121.99-121.21,4.23,11.01,18.46,23.64,18.46,23.64,39.72,31.3,88.28,47.71,101.1,95.34,7.41-15.54,4.6-36.48,.49-38.97Z"/><path class="y" d="M306.51,224.89l-13.22,.2s-10.18,31.79-8.67,46.59c1.51,14.8,37.7,21.41,41.52-.27,1.13-6.42-8.04-14.42-11.54-18.65-8.68-10.47-8.09-27.87-8.09-27.87Z"/><path class="n" d="M306.82,231.26c-1.66,.11-3.33,.2-5,.29-2.79,12.65-2.46,25.63,1.55,38.13,1.6-.02,3.14-.06,4.45-.14,6-.36,11.62-1.85,17.02-4.08-2.51-4.86-7.79-9.72-10.25-12.7-5.33-6.44-7.16-15.48-7.78-21.5Z"/><path class="r" d="M284.5,270.07c0,1.13,.04,2.22,.14,3.22,1.51,14.8,37.76,20.45,41.51-1.24,0-.04,0-.07,.01-.1-13.82,6.06-29.34,7.55-41.66-1.88Z"/><path class="t" d="M169.98,493.61c1.79,3.27,3.52,6.44,5.18,9.5-1.45-3.08-2.86-6.19-4.24-9.3-.32-.06-.63-.13-.95-.2Z"/><path class="aa" d="M256.75,289.33s22.75,19.93,50.65,19.21c29.13-.75,41.84-19.43,41.84-19.43,0,0-22.36,9.91-43.38,9.91-23.08,0-49.11-9.68-49.11-9.68Z"/><path class="o" d="M305.33,334.73c-27.36-.1-48.58-45.4-48.58-45.4,0,0,9.36,55.68,48.6,55.66,37.23-.02,43.89-54.48,43.89-54.48,0,0-16.55,44.32-43.91,44.23Z"/><path class="r" d="M298.65,361.24c-54.39,2.66-95.3-82.83-95.3-82.83,0,0-4.03-.33-12.24,7.34-7.54,7.05-20.4-15.91-20.4-15.91l2.35,6.32c9,12.95,22.69,20.08,28.29,9.93,3.46,8.81,39.26,71.06,81.84,81.81,38.04,9.6,65.44-13.2,85.9-41.2,18.13-24.81,26.85-37.61,32.16-61.15-10.06,24.32-44.81,92.86-102.58,95.68Z"/><path d="M239.64,246.52c-.44,4.87,3.15,9.17,8.02,9.6,4.87,.44,9.17-3.15,9.6-8.02,.44-4.87-3.15-9.17-8.02-9.6-4.87-.44-9.17,3.15-9.6,8.02Z"/><path d="M348.26,246.48c-.44,4.87,3.15,9.17,8.02,9.6s9.17-3.15,9.6-8.02c.44-4.87-3.15-9.17-8.02-9.6-4.87-.44-9.17,3.15-9.6,8.02Z"/><circle class="l" cx="297.95" cy="301.89" r="283"/><path class="i" d="M196.54,243.97s-33.18-7.38-29.92,14.45c3.26,21.83,24.26,40.69,33.3,29.78"/><path class="j" d="M273.28,56.12s-59.37-20.88-133.87,143.59c-61.34,135.43,2.1,241.44,35.76,303.39-28.11-59.8-43.66-124.91-20.87-190.61,22.43-70.78,77.81-97.29,120.04-152.71,7.65-11.86,16.9-21.87,17.65-37.54,12.26,35.04,53.12,65.11,80.8,84.26,97.26,62.77,92.51,150.08,57.35,243.63,73.96-100.75,84.04-186.21,9.98-295.02-36.34-53.39-145.09-132.59-166.83-99Z"/><path class="ab" d="M311.6,70.11c34.12,14.53,81.78,44.74,113.37,65.82-45.02-50.89-132.44-109.54-151.69-79.81,0,0-53.76-18.9-123.17,121,10.75-12.86,23.56-26.26,38.73-39.32,37.12-31.93,62.6-65.62,62.6-65.62,0,0-18.49,42.37-59.86,78.61-19.42,17.01-49.83,59.97-68.84,95.32-9.76,36.62-10.84,70.71-6.82,101.92,.6-31.28,3.9-63.14,19.33-90.62,11.86-21.14,28.21-39.26,45.93-55.63,17.59-16.25,36.92-30.43,53.25-48.02,13.66-14.7,26.46-31.12,36.08-48.78,1.26-2.32,13.06-26.53,11.87-26.95,24.99,22.17,25.28,20.26,37.19,31.46,18.41,17.3,39.96,30.88,59.12,47.31,18.05,15.47,35.23,32.04,50.37,50.4,11.88,14.41,22.44,29.91,31.16,46.43,6.8,12.89,12.56,26.34,17.04,40.21,2.2,6.8,4.09,13.71,5.65,20.69,1.26,5.65,4.89,15.49,3.66,21.19,10.52-48.75,1.99-97.49-28.35-151.49-45.65-51.65-146.62-114.12-146.62-114.12Z"/><g><path class="e" d="M399.54,634.21l-.88-98.23,7.48-100.42s33.63,4.81,63.45,117.55c27.98,105.83,19.23,140.27,9.76,144.05-51.32-30.08-79.81-62.95-79.81-62.95Z"/><path class="q" d="M347.36,637.7l-84.69-153.15-31.86-61.96c24.07-6.94,55.38,23.1,75.84,23.29,22.07,.21,32.93-29,49.13-24.67l9.3,61.82s-.06,100.74-17.72,154.68Z"/><path class="d" d="M230.03,422.59l39.3,59.92,77.8,138.39c17.67-53.93,10.83-137.38,10.83-137.38l-2.2-62.32c31.21,8.33,50.39,14.36,50.39,14.36l8.09,54.09c31.91,40.84,41.51,64.58,41.81,76.45,.68,26.71-29.73,50.46-29.73,50.46l-18.14,137.1c-106.12,41.25-180.91,2.36-180.91,2.36-11.77-80.17-49.48-197.2-49.48-197.2v-115.08c16.28-9.53,35.72-16.39,52.27-21.17Z"/><path class="f" d="M324.57,397.92s1.09,29.16-19.18,40.83c0,0-40.46-8.88-43.31-41.38l-22.17,22.79s25.35,48.12,54.76,62.7l11.99-36.98,31.23,30.87s12.67-36.04,10.56-59.72l-23.89-19.11Z"/><path class="e" d="M383.49,512.36l14.32,15.6s-18.79,83.44-49.12,127.54c0,0-85.72-78.02-108.78-118.72l19.91-19.67-28.99-.68-28.69-83.61c9.75-4.14,19.34-7.54,28.69-10.24l38.91,59.92,77.6,138.39c17.67-53.93,10.72-137.38,10.72-137.38l-2.26-62.32c9.14,2.44,17.27,3.96,24.11,6.62l21.91,79.11-18.32,5.43Z"/><path class="p" d="M191.24,525.51s28.72,101.38,124.28,100.62l101.5,60.58-4.16,31.42s-51.81,1.37-86.24-3.21c0,0-66.13,31.15-100.4,33.72,0,0-41.09-206.34-34.98-223.13Z"/><path class="d" d="M178.01,443.75c28.24-7.28,50.93,200,50.93,200l104.99-25.25c7.38,9.12,22.07,34.33,20.72,59.66-90.01,58.05-155.34,48.6-155.34,48.6,0,0-33.82,5.66-43.58-132.73-9.77-138.39,22.28-150.27,22.28-150.27Z"/><path class="k" d="M264.95,636.15s-34.17-27.02-40.9-28.81c-6.72-1.78-31.6-12.26-31.6-12.26,0,0-2.93,4.42,1.1,9.28,4.03,4.86,19.18,9.28,19.18,9.28,0,0-17.71,2.65-24.68,7.51,0,0-3.05,8.54,5.01,9.13,0,0-9.04,7.07,1.96,9.75,0,0,10.87-3.09,15.03-2.1l-13.92,12.52s-.73,3.83,5.37,3.54c6.11-.29,14.91-15.17,27.45-10.25l36.01-7.6Z"/></g></g><circle class="c" cx="300" cy="300" r="283"/></svg>