<?xml version="1.0" encoding="utf-8"?>
<!-- Generator: Adobe Illustrator 26.2.1, SVG Export Plug-In . SVG Version: 6.00 Build 0)  -->
<svg version="1.1" id="Calque_1" xmlns="http://www.w3.org/2000/svg" xmlns:xlink="http://www.w3.org/1999/xlink" x="0px" y="0px"
	 viewBox="0 0 1136.3 295.6" style="enable-background:new 0 0 1136.3 295.6;" xml:space="preserve">
<style type="text/css">
	.st0{fill:#A7B6BE;}
	.st1{fill:#4478BB;}
	.st2{fill:#16A9E1;}
	.st3{fill:#0C4D8C;}
</style>
<polygon class="st0" points="41.8,52.7 62.9,52.7 62.9,157.9 157.6,157.9 139.1,176.9 41.8,176.9 "/>
<path class="st0" d="M247.5,49c-44.4,0-80.5,29.4-80.5,65.6c0,36.2,36,65.6,80.5,65.6c44.4,0,80.5-29.4,80.5-65.6
	C328,78.3,292,49,247.5,49z M247.5,162.8c-32.6,0-59-21.6-59-48.2c0-26.6,26.4-48.2,59-48.2s59,21.6,59,48.2
	C306.5,141.2,280.1,162.8,247.5,162.8z"/>
<path class="st0" d="M516.8,110.9h-2.8h-18.7h-38l-17.8,18.5H489c-0.2,10-14.1,33.4-52.5,33.4c-32.6,0-59-21.6-59-48.2
	c0-26.6,26.4-48.2,59-48.2c19,0,35.9,7.3,46.7,18.7l0,0l14.4-13.2c-14.8-14-36.6-22.9-61.1-22.9c-44.4,0-80.5,29.4-80.5,65.6
	c0,36.2,36,65.6,80.5,65.6c44.4,0,80.5-29.4,80.5-65.6C517,113.3,516.9,112.1,516.8,110.9z"/>
<rect x="550.1" y="53" class="st0" width="20.4" height="124.2"/>
<polygon class="st1" points="573.9,197.3 651.6,110.8 679.5,110.8 600.7,197.3 "/>
<polygon class="st2" points="595.9,53 622.3,53 679.5,110.7 651.6,110.6 "/>
<polygon class="st3" points="683.7,87 737.8,32.8 764.3,32.8 696.4,100.4 "/>
<polygon class="st3" points="683.7,140.1 696.6,126.7 746.5,177.1 720,177.1 "/>
<rect x="769.9" y="53" class="st0" width="20" height="124.2"/>
<polygon class="st0" points="832.2,53 956.2,53 937.9,71 852.4,71 852.4,102.6 906,102.6 887.7,120.9 852.2,120.9 852.2,157.9 
	960.8,158.9 942.8,177.1 832.2,177.1 "/>
<polygon class="st0" points="988,53 1008.3,53 1008.3,157.9 1104.4,157.9 1085.7,177.1 988,177.1 "/>
<g>
	<path class="st2" d="M604.6,248.8v6.7c-3.4,1.3-6.8,1.9-10,1.9c-5.4,0-9.7-1.6-12.9-4.8s-4.8-7.5-4.8-12.8c0-5.4,1.6-9.8,4.7-13.1
		s7.2-5,12.3-5c1.8,0,3.4,0.2,4.8,0.5s3.2,1,5.2,1.9v7.3c-3.4-2.2-6.6-3.3-9.6-3.3c-3.1,0-5.6,1.1-7.6,3.2c-2,2.2-3,4.9-3,8.3
		c0,3.5,1.1,6.3,3.2,8.4c2.1,2.1,5,3.1,8.6,3.1C598.2,251,601.2,250.3,604.6,248.8z"/>
	<path class="st2" d="M654.6,222.3c5.2,0,9.6,1.7,13.1,5.1c3.5,3.4,5.2,7.6,5.2,12.8c0,5-1.8,9.1-5.3,12.4c-3.5,3.3-8,4.9-13.3,4.9
		c-5.2,0-9.5-1.7-13-5c-3.5-3.3-5.2-7.5-5.2-12.5c0-5,1.8-9.2,5.3-12.6C644.9,224,649.3,222.3,654.6,222.3z M654.2,228.4
		c-3.3,0-6,1.1-8.1,3.2c-2.1,2.1-3.1,4.9-3.1,8.2c0,3.3,1.1,6,3.2,8.1c2.1,2.1,4.9,3.1,8.3,3.1c3.3,0,6.1-1.1,8.2-3.2
		c2.1-2.1,3.2-4.8,3.2-8.1c0-3.3-1.1-6-3.3-8.1C660.4,229.5,657.6,228.4,654.2,228.4z"/>
	<path class="st2" d="M734.4,231.8v25h-6.9v-19.2c0-3.8-0.5-6.5-1.5-8c-1-1.5-2.8-2.3-5.4-2.3c-1.4,0-2.7,0.3-3.9,1
		c-1.2,0.6-2.5,1.8-4.1,3.4v25h-6.8v-34.4h6.8v4.5c3.5-3.5,6.9-5.2,10.2-5.2c4.4,0,7.8,2.1,10.1,6.2c3.6-4.2,7.5-6.3,11.4-6.3
		c3.3,0,6.1,1.2,8.3,3.7c2.2,2.4,3.2,6.2,3.2,11.2v20.3h-6.8v-20.4c0-2.9-0.6-5.1-1.8-6.6c-1.2-1.5-2.9-2.3-5.1-2.3
		C739.5,227.5,736.9,229,734.4,231.8z"/>
	<path class="st2" d="M790.6,274.4v-52h11.9c6.1,0,10.9,1.5,14.3,4.6c3.4,3,5.1,7.3,5.1,12.8c0,5.2-1.6,9.4-4.8,12.7
		c-3.2,3.3-7.3,5-12.2,5c-2.2,0-4.6-0.5-7.3-1.5v18.4H790.6z M802.4,228.7h-4.8v21.2c2.1,1.1,4.3,1.6,6.6,1.6c3.2,0,5.8-1.1,7.8-3.3
		c2-2.2,3-5.1,3-8.6c0-2.2-0.5-4.2-1.4-6s-2.3-3-3.9-3.8C808,229.1,805.6,228.7,802.4,228.7z"/>
	<path class="st2" d="M850.4,227.8l12.8-12.6v7.1h10.9v6.1h-10.9v16.9c0,3.9,1.6,5.9,4.9,5.9c2.4,0,5-0.8,7.8-2.4v6.4
		c-2.6,1.5-5.5,2.2-8.6,2.2c-3.1,0-5.7-0.9-7.8-2.7c-0.7-0.5-1.2-1.2-1.6-1.9c-0.4-0.7-0.8-1.6-1.1-2.7s-0.4-3.2-0.4-6.3v-15.3h-6
		V227.8z"/>
	<path class="st2" d="M928.2,236.1v14.6c0,1.2,0.4,1.8,1.2,1.8c0.8,0,2.1-0.6,3.9-1.8v4.2c-1.5,1-2.8,1.7-3.7,2
		c-0.9,0.4-1.9,0.5-2.9,0.5c-2.9,0-4.6-1.1-5.2-3.4c-2.9,2.2-6,3.4-9.2,3.4c-2.4,0-4.4-0.8-6-2.4c-1.6-1.6-2.4-3.6-2.4-6
		c0-2.2,0.8-4.1,2.3-5.8s3.8-3.1,6.6-4.1l8.7-3v-1.8c0-4.1-2.1-6.2-6.2-6.2c-3.7,0-7.3,1.9-10.9,5.8v-7.5c2.6-3.1,6.5-4.7,11.4-4.7
		c3.7,0,6.7,1,8.9,2.9c0.8,0.6,1.4,1.5,2,2.5c0.6,1,1,2.1,1.1,3.1C928.1,231.2,928.2,233.2,928.2,236.1z M921.4,250v-10.2l-4.6,1.8
		c-2.3,0.9-4,1.9-4.9,2.8c-1,0.9-1.4,2.1-1.4,3.5c0,1.4,0.5,2.6,1.4,3.5c0.9,0.9,2.1,1.3,3.5,1.3C917.6,252.7,919.6,251.8,921.4,250
		z"/>
	<path class="st2" d="M964.7,204.5h6.8v20.3c2.9-2.1,6.1-3.2,9.4-3.2c4.4,0,7.9,1.6,10.7,4.9c2.8,3.3,4.2,7.5,4.2,12.7
		c0,5.5-1.7,10-5,13.2c-3.3,3.3-7.7,4.9-13.3,4.9c-2.2,0-4.6-0.2-7-0.7s-4.4-1.1-5.9-1.8V204.5z M971.5,231.4V250
		c2.3,0.7,4.7,1,7.2,1c3,0,5.5-1.1,7.4-3.2c1.9-2.1,2.9-4.9,2.9-8.3c0-3.4-0.9-6.2-2.7-8.4c-1.8-2.1-4.1-3.2-7-3.2
		C976.7,228,974.1,229.1,971.5,231.4z"/>
	<path class="st2" d="M1029.3,204.5h6.8v52.3h-6.8V204.5z"/>
	<path class="st2" d="M1101,240.2h-24.2c0.2,3.3,1.3,5.9,3.3,7.9s4.7,2.9,7.9,2.9c4.5,0,8.6-1.4,12.4-4.2v6.7
		c-2.1,1.4-4.2,2.4-6.2,3c-2.1,0.6-4.5,0.9-7.2,0.9c-3.8,0-6.9-0.8-9.2-2.4c-2.3-1.6-4.2-3.7-5.6-6.3s-2.1-5.7-2.1-9.2
		c0-5.2,1.5-9.5,4.5-12.8c3-3.3,6.8-4.9,11.6-4.9c4.6,0,8.2,1.6,10.9,4.8c2.7,3.2,4.1,7.5,4.1,12.8V240.2z M1077,236.1h17.3
		c-0.2-2.7-1-4.8-2.4-6.3s-3.4-2.2-5.8-2.2c-2.4,0-4.5,0.7-6,2.2C1078.5,231.3,1077.4,233.4,1077,236.1z"/>
</g>
</svg>
