<?xml version="1.0" encoding="UTF-8"?><svg id="a" xmlns="http://www.w3.org/2000/svg" viewBox="0 0 600 600"><defs><style>.b{fill:#dc7764;}.c{fill:#da6e5d;}.d{opacity:.74;}.d,.e,.f{fill:#d78c74;}.g{fill:#d5594c;}.h{fill:#da6d5c;}.i{fill:#e18e76;}.j{fill:#da6f5d;}.k{fill:#e49e83;}.l{fill:#d5584c;}.m{stroke:#000;stroke-width:4px;}.m,.n,.o,.p,.q,.e,.r,.s,.t,.u,.v,.w{stroke-miterlimit:10;}.m,.v{fill:none;}.x,.y,.r,.a`,.aa{fill:#fff;}.ab{fill:#d75e50;}.y{opacity:.12;}.ac{fill:#db7461;}.ad{fill:#6c332e;}.ae{fill:#d96b5a;}.af{fill:#da6c5b;}.ag{fill:#e2957c;}.ah{fill:#d65d50;}.n{fill:#644866;}.n,.o,.p,.q,.e,.r,.s,.t,.u,.v,.w{stroke-width:2px;}.n,.o,.p,.q,.e,.r,.s,.t,.v{stroke:#1d1d1b;}.ai{fill:#e2937a;}.aj{fill:#dd7b68;}.ak{fill:#dd7a67;}.al{fill:#df846f;}.am{fill:#22140e;}.an{fill:#d65b4e;}.ao{fill:#d96858;}.ap{fill:#e3967c;}.aq{fill:#d86354;}.ar{fill:#e3987e;}.as{fill:#df856f;}.at{fill:#d65c4f;}.au{fill:#de7f6b;}.av{fill:#dd7a66;}.aw{fill:#dd7c68;}.ax{fill:#d76253;}.ay{fill:#e59f83;}.b`{fill:#df8670;}.ba{fill:#dc7864;}.bb{fill:#df836e;}.bc{fill:#e49c81;}.bd{fill:#e19078;}.be{fill:#d76153;}.bf{fill:#de806b;}.bg{fill:#f4e5d7;}.bh{fill:#dc7965;}.bi{fill:#d96a5a;}.bj{fill:#e5a084;}.o{fill:#f4f4f4;}.bk{fill:#dd7d69;}.bl{fill:#db7562;}.p{fill:#755577;}.bm{fill:#e08872;}.bn{fill:#db7260;}.bo{opacity:.38;}.bp{fill:#cc8471;}.q{fill:#3b323d;}.bq{fill:#e49d82;}.br{fill:#d86657;}.bs{fill:#d76052;}.bt{fill:#e08972;}.bu{fill:#d86556;}.s{fill:#6b4b6d;}.bv{fill:#dc7663;}.t{fill:#dadada;}.bw{fill:#d86455;}.bx{fill:#d96959;}.by{fill:#d45247;}.c`{fill:#e08b74;}.u,.ca{fill:#e5a185;}.u,.w{stroke:#090605;}.cb{fill:#e29279;}.a`{opacity:.35;}.cc{fill:#381911;}.cd{fill:#db7361;}.ce{fill:#d86757;}.cf{fill:#d45348;}.cg{fill:#d5564a;}.aa{opacity:.13;}.ch{fill:#d45449;}.ci{fill:#e08a73;}.cj{fill:#d5574b;}.ck{fill:#de7e6a;}.cl{fill:#e18d75;}.cm{fill:#e3977d;}.cn{fill:#da705e;}.co{fill:#e49b80;}.cp{fill:#e29179;}.cq{fill:#e49a80;}.cr{fill:#d55549;}.cs{fill:#d75f51;}.ct{fill:#e2947b;}.w{fill:#e2a48f;}.cu{fill:#e3997f;}.cv{fill:#e18c75;}.cw{fill:#de826d;}.cx{fill:#1d1d1b;}.cy{fill:#d65a4d;}.d`{fill:#de816c;}.da{fill:#e18f77;}.db{fill:#db715f;}.dc{fill:#df8771;}</style></defs><circle class="u" cx="317.23" cy="316.48" r="207.96"/><g><ellipse class="bg" cx="302.27" cy="300.93" rx="282.73" ry="283"/><path class="n" d="M144.56,535.83c30.71,20.7,65.71,35.48,103.38,42.82l2.75-175.82s-56.38,29.93-106.13,133Z"/><path class="o" d="M415.56,528.13c9.31-36.97,20.94-73.87,38.24-110.96-26.49-23.42-59.43-33.77-105.55-33.16-35.13,.46-65.45,5.84-90.92,20.71-.48,40.43,20.58,82.31,36.16,123.41h122.07Z"/><path class="q" d="M365.85,541.25c-9.91-36.23-19.51-70.93-23.76-85.28l-12.62-3.16s-14.59,25.54-17,88.44h53.38Z"/><path class="s" d="M422.7,397.03s-6.86,101.8-83.96,102.24c-68.94,.39-59.46-104.69-59.46-104.69-67.33,6.65-83.56,81.14-73.7,172.36,30.17,10.99,62.73,17,96.69,17,94.7,0,178.46-46.65,229.77-118.19-26.71-47.25-63.47-56.71-109.34-68.71Z"/><path class="e" d="M356.66,302.08c-5.62-16.2-24.81-24.33-42.66-18.08l-8.26,2.9c-17.84,6.25-27.85,24.62-22.23,40.82l23.28,87.07c5.62,16.2,30.88,21.91,48.73,15.65l8.26-2.9c17.84-6.25,31.79-32.09,26.18-48.28l-33.3-77.17Z"/><path class="q" d="M319.01,417.16c-2.19,0-18.64,40.35,16.76,42.1,35.4,1.75,27.69-41.75,27.69-41.75l-44.45-.35Z"/><path class="r" d="M388.45,365.03c-1.49-1.6-4.11-1.07-4.91,.96-3.84,9.78-15.73,32.29-43.76,31.94-29.27-.36-33.75-27.44-33.75-27.44-11.58,3.17-21.52,22.72-21.52,22.72-2.5,31.59,21.04,66.25,21.04,66.25,0,0,18.32-40.57,31.73-38.31,13.41,2.26,20.01,42.68,20.01,42.68,47.67-19.45,55.41-59.03,48.09-74.71-4.76-10.2-12.5-19.33-16.92-24.1Z"/><path class="u" d="M182.92,242.53c-11.95,4.61-16.37,22.05-9.88,38.97,6.49,16.91,21.45,26.89,33.4,22.28,11.95-4.61,16.37-22.05,9.88-38.97-6.49-16.91-21.44-26.89-33.4-22.28Z"/><path class="cc" d="M244.18,109.41s-.03-.19-.09-.51c.05,.33,.09,.51,.09,.51Z"/><path class="w" d="M395.03,254.06c-2.39-40.96-11.57-78.23-21.78-108.21-8.89-39.25-121.8-51.09-151.37,5.39-8.93,25.9-23.1,59.93-25.9,107.1-.03-.5-.03-.8-.03-.8,0,0-36.9,127.31,88.4,127.3,111.16,0,119.88-58.28,110.69-130.79h0Z"/><g class="bo"><path class="ca" d="M234.04,235.94c-21.99,1.05-38.89,21.34-37.74,45.32,1.15,23.98,19.9,42.56,41.89,41.51,21.99-1.05,38.89-21.34,37.74-45.32-1.15-23.98-19.9-42.56-41.89-41.51Z"/><path class="bj" d="M234.05,236.21c-21.85,1.05-38.65,21.21-37.51,45.04,1.14,23.83,19.78,42.29,41.63,41.25,21.85-1.05,38.65-21.21,37.51-45.04-1.14-23.83-19.78-42.29-41.63-41.25Z"/><path class="ay" d="M234.07,236.48c-21.72,1.04-38.4,21.08-37.27,44.75,1.13,23.68,19.65,42.03,41.37,40.99,21.72-1.04,38.4-21.08,37.27-44.76-1.13-23.68-19.65-42.03-41.37-40.99Z"/><path class="k" d="M234.08,236.75c-21.58,1.03-38.16,20.94-37.03,44.47,1.12,23.53,19.53,41.76,41.11,40.73,21.58-1.03,38.16-20.94,37.03-44.47-1.13-23.53-19.53-41.76-41.11-40.73Z"/><path class="bq" d="M234.09,237.02c-21.44,1.03-37.92,20.81-36.8,44.19,1.12,23.38,19.41,41.5,40.85,40.47,21.44-1.03,37.92-20.81,36.8-44.19-1.12-23.38-19.41-41.49-40.85-40.47Z"/><path class="bc" d="M234.11,237.29c-21.3,1.02-37.67,20.68-36.56,43.9,1.11,23.23,19.28,41.23,40.59,40.21,21.3-1.02,37.67-20.68,36.56-43.91-1.11-23.23-19.28-41.23-40.59-40.21Z"/><path class="co" d="M234.12,237.56c-21.17,1.01-37.43,20.54-36.33,43.62,1.1,23.08,19.16,40.96,40.32,39.95,21.17-1.01,37.43-20.54,36.33-43.62-1.1-23.08-19.16-40.96-40.32-39.95Z"/><path class="cq" d="M234.13,237.84c-21.03,1.01-37.19,20.41-36.09,43.34,1.1,22.93,19.03,40.7,40.06,39.69,21.03-1.01,37.19-20.41,36.09-43.34-1.1-22.93-19.03-40.7-40.06-39.69Z"/><path class="cu" d="M234.15,238.11c-20.89,1-36.94,20.28-35.86,43.05,1.09,22.78,18.91,40.43,39.8,39.43,20.89-1,36.94-20.28,35.86-43.06-1.09-22.78-18.91-40.43-39.8-39.43Z"/><path class="ar" d="M234.16,238.38c-20.75,.99-36.7,20.14-35.62,42.77,1.08,22.63,18.78,40.17,39.54,39.17,20.75-.99,36.7-20.14,35.62-42.77-1.08-22.63-18.78-40.16-39.54-39.17Z"/><path class="cm" d="M234.17,238.65c-20.62,.99-36.46,20.01-35.38,42.49,1.07,22.48,18.66,39.9,39.28,38.91,20.62-.99,36.46-20.01,35.38-42.49-1.08-22.48-18.66-39.9-39.28-38.91Z"/><path class="ap" d="M234.18,238.92c-20.48,.98-36.22,19.88-35.15,42.21,1.07,22.33,18.53,39.63,39.01,38.65,20.48-.98,36.22-19.88,35.15-42.21-1.07-22.33-18.54-39.63-39.01-38.65Z"/><path class="ag" d="M234.2,239.19c-20.34,.97-35.97,19.74-34.91,41.92,1.06,22.18,18.41,39.37,38.75,38.39,20.34-.97,35.97-19.74,34.91-41.92-1.06-22.18-18.41-39.37-38.75-38.39Z"/><path class="ct" d="M234.21,239.46c-20.2,.97-35.73,19.61-34.68,41.64,1.05,22.03,18.29,39.1,38.49,38.13,20.2-.97,35.73-19.61,34.68-41.64-1.05-22.03-18.29-39.1-38.49-38.13Z"/><path class="ai" d="M234.22,239.74c-20.07,.96-35.49,19.48-34.44,41.36,1.05,21.88,18.16,38.84,38.23,37.87,20.07-.96,35.49-19.48,34.44-41.36-1.05-21.88-18.16-38.83-38.23-37.87Z"/><path class="cb" d="M234.24,240.01c-19.93,.95-35.24,19.34-34.2,41.07,1.04,21.73,18.04,38.57,37.97,37.61,19.93-.95,35.24-19.34,34.2-41.07-1.04-21.73-18.04-38.57-37.97-37.61Z"/><path class="cp" d="M234.25,240.28c-19.79,.95-35,19.21-33.97,40.79,1.03,21.58,17.91,38.3,37.7,37.36,19.79-.95,35-19.21,33.97-40.79-1.03-21.58-17.91-38.3-37.71-37.35Z"/><path class="bd" d="M234.26,240.55c-19.65,.94-34.76,19.08-33.73,40.51,1.02,21.43,17.79,38.04,37.44,37.1,19.65-.94,34.76-19.08,33.73-40.51-1.02-21.43-17.79-38.04-37.44-37.1Z"/><path class="da" d="M234.27,240.82c-19.52,.93-34.51,18.94-33.5,40.22,1.02,21.28,17.66,37.77,37.18,36.84,19.52-.93,34.51-18.94,33.5-40.22-1.02-21.28-17.66-37.77-37.18-36.84Z"/><path class="i" d="M234.29,241.09c-19.38,.93-34.27,18.81-33.26,39.94,1.01,21.13,17.54,37.51,36.92,36.58,19.38-.93,34.27-18.81,33.26-39.94-1.01-21.13-17.54-37.5-36.92-36.58Z"/><path class="cl" d="M234.3,241.36c-19.24,.92-34.03,18.68-33.02,39.66,1,20.98,17.42,37.24,36.66,36.32,19.24-.92,34.03-18.68,33.02-39.66-1-20.98-17.42-37.24-36.66-36.32Z"/><path class="cv" d="M234.31,241.63c-19.1,.92-33.78,18.54-32.79,39.37,1,20.83,17.29,36.97,36.4,36.06,19.1-.91,33.78-18.54,32.79-39.37-1-20.83-17.29-36.97-36.4-36.06Z"/><path class="c`" d="M234.33,241.91c-18.97,.91-33.54,18.41-32.55,39.09,.99,20.68,17.17,36.71,36.13,35.8,18.97-.91,33.54-18.41,32.55-39.09-.99-20.68-17.17-36.71-36.13-35.8Z"/><path class="ci" d="M234.34,242.18c-18.83,.9-33.3,18.28-32.32,38.81,.98,20.53,17.04,36.44,35.87,35.54,18.83-.9,33.3-18.28,32.32-38.81-.98-20.53-17.04-36.44-35.87-35.54Z"/><path class="bt" d="M234.35,242.45c-18.69,.9-33.06,18.14-32.08,38.52,.97,20.38,16.92,36.18,35.61,35.28,18.69-.9,33.06-18.14,32.08-38.52-.97-20.38-16.92-36.17-35.61-35.28Z"/><path class="bm" d="M234.37,242.72c-18.55,.89-32.81,18.01-31.84,38.24,.97,20.23,16.79,35.91,35.35,35.02,18.55-.89,32.81-18.01,31.85-38.24-.97-20.23-16.79-35.91-35.35-35.02Z"/><path class="dc" d="M234.38,242.99c-18.42,.88-32.57,17.88-31.61,37.96,.96,20.08,16.67,35.64,35.09,34.76,18.42-.88,32.57-17.88,31.61-37.96-.96-20.08-16.67-35.64-35.09-34.76Z"/><path class="b`" d="M234.39,243.26c-18.28,.88-32.33,17.74-31.37,37.67,.95,19.93,16.54,35.38,34.82,34.5,18.28-.88,32.33-17.74,31.37-37.67-.95-19.93-16.54-35.38-34.83-34.5Z"/><path class="as" d="M234.4,243.53c-18.14,.87-32.08,17.61-31.14,37.39,.95,19.78,16.42,35.11,34.56,34.24,18.14-.87,32.08-17.61,31.14-37.39-.95-19.78-16.42-35.11-34.56-34.24Z"/><path class="al" d="M234.42,243.81c-18,.86-31.84,17.48-30.9,37.11,.94,19.63,16.3,34.85,34.3,33.98,18-.86,31.84-17.48,30.9-37.11-.94-19.63-16.3-34.84-34.3-33.98Z"/><path class="bb" d="M234.43,244.08c-17.87,.86-31.6,17.34-30.67,36.82,.93,19.48,16.17,34.58,34.04,33.72,17.87-.86,31.6-17.34,30.67-36.82-.93-19.48-16.17-34.58-34.04-33.72Z"/><path class="cw" d="M234.44,244.35c-17.73,.85-31.35,17.21-30.43,36.54,.92,19.33,16.05,34.31,33.78,33.46,17.73-.85,31.35-17.21,30.43-36.54-.92-19.33-16.05-34.31-33.78-33.46Z"/><path class="d`" d="M234.46,244.62c-17.59,.84-31.11,17.08-30.19,36.26,.92,19.18,15.92,34.05,33.52,33.2,17.59-.84,31.11-17.08,30.19-36.26-.92-19.18-15.92-34.05-33.52-33.2Z"/><path class="bf" d="M234.47,244.89c-17.46,.84-30.87,16.94-29.96,35.97,.91,19.03,15.8,33.78,33.25,32.95,17.46-.84,30.87-16.94,29.96-35.97-.91-19.03-15.8-33.78-33.25-32.94Z"/><path class="au" d="M234.48,245.16c-17.32,.83-30.63,16.81-29.72,35.69,.9,18.88,15.67,33.52,32.99,32.69,17.32-.83,30.63-16.81,29.72-35.69-.9-18.88-15.67-33.52-32.99-32.69Z"/><path class="ck" d="M234.5,245.43c-17.18,.82-30.38,16.68-29.49,35.41,.9,18.73,15.55,33.25,32.73,32.43,17.18-.82,30.38-16.68,29.49-35.41-.9-18.73-15.55-33.25-32.73-32.43Z"/><path class="bk" d="M234.51,245.7c-17.04,.82-30.14,16.54-29.25,35.12,.89,18.58,15.43,32.98,32.47,32.17,17.04-.82,30.14-16.54,29.25-35.12-.89-18.58-15.43-32.98-32.47-32.17Z"/><path class="aw" d="M234.52,245.98c-16.91,.81-29.9,16.41-29.01,34.84,.88,18.43,15.3,32.72,32.21,31.91,16.91-.81,29.9-16.41,29.01-34.84-.88-18.43-15.3-32.72-32.21-31.91Z"/><path class="aj" d="M234.53,246.25c-16.77,.8-29.65,16.27-28.78,34.56,.87,18.28,15.18,32.45,31.94,31.65,16.77-.8,29.65-16.28,28.78-34.56-.87-18.28-15.18-32.45-31.94-31.65Z"/><path class="ak" d="M234.55,246.52c-16.63,.8-29.41,16.14-28.54,34.27,.87,18.13,15.05,32.19,31.68,31.39,16.63-.8,29.41-16.14,28.54-34.27-.87-18.13-15.05-32.19-31.68-31.39Z"/><path class="av" d="M234.56,246.79c-16.49,.79-29.17,16.01-28.31,33.99,.86,17.98,14.93,31.92,31.42,31.13,16.49-.79,29.17-16.01,28.31-33.99-.86-17.98-14.93-31.92-31.42-31.13Z"/><path class="bh" d="M234.57,247.06c-16.36,.78-28.92,15.87-28.07,33.71,.85,17.83,14.8,31.65,31.16,30.87,16.36-.78,28.92-15.88,28.07-33.71-.85-17.83-14.8-31.65-31.16-30.87Z"/><path class="ba" d="M234.59,247.33c-16.22,.78-28.68,15.74-27.83,33.42,.85,17.68,14.68,31.39,30.9,30.61,16.22-.78,28.68-15.74,27.83-33.42-.85-17.68-14.68-31.39-30.9-30.61Z"/><path class="b" d="M234.6,247.6c-16.08,.77-28.44,15.61-27.6,33.14,.84,17.53,14.55,31.12,30.64,30.35,16.08-.77,28.44-15.61,27.6-33.14-.84-17.53-14.55-31.12-30.64-30.35Z"/><path class="bv" d="M234.61,247.88c-15.94,.76-28.19,15.47-27.36,32.86,.83,17.38,14.43,30.86,30.37,30.09,15.94-.76,28.19-15.48,27.36-32.86-.83-17.38-14.43-30.86-30.37-30.09Z"/><path class="bl" d="M234.62,248.15c-15.81,.76-27.95,15.34-27.13,32.57,.82,17.23,14.31,30.59,30.11,29.83,15.81-.76,27.95-15.34,27.13-32.57-.82-17.23-14.31-30.59-30.11-29.83Z"/><path class="ac" d="M234.64,248.42c-15.67,.75-27.71,15.21-26.89,32.29,.82,17.08,14.18,30.32,29.85,29.57,15.67-.75,27.71-15.21,26.89-32.29-.82-17.08-14.18-30.32-29.85-29.57Z"/><path class="cd" d="M234.65,248.69c-15.53,.74-27.47,15.07-26.66,32.01,.81,16.93,14.06,30.06,29.59,29.31,15.53-.74,27.47-15.07,26.66-32.01-.81-16.93-14.06-30.06-29.59-29.31Z"/><path class="bn" d="M234.66,248.96c-15.39,.74-27.22,14.94-26.42,31.72,.8,16.78,13.93,29.79,29.33,29.05,15.39-.74,27.22-14.94,26.42-31.73-.8-16.78-13.93-29.79-29.33-29.05Z"/><path class="db" d="M234.68,249.23c-15.26,.73-26.98,14.81-26.18,31.44,.8,16.63,13.81,29.53,29.06,28.79,15.26-.73,26.98-14.81,26.18-31.44-.8-16.63-13.81-29.53-29.06-28.79Z"/><path class="cn" d="M234.69,249.5c-15.12,.72-26.74,14.67-25.95,31.16,.79,16.48,13.68,29.26,28.8,28.54,15.12-.72,26.74-14.67,25.95-31.16-.79-16.48-13.68-29.26-28.8-28.54Z"/><path class="j" d="M234.7,249.77c-14.98,.72-26.49,14.54-25.71,30.88,.78,16.33,13.56,28.99,28.54,28.28,14.98-.72,26.49-14.54,25.71-30.88-.78-16.33-13.56-28.99-28.54-28.28Z"/><path class="c" d="M234.72,250.05c-14.84,.71-26.25,14.41-25.48,30.59,.77,16.18,13.43,28.73,28.28,28.02,14.84-.71,26.25-14.41,25.48-30.59-.77-16.18-13.43-28.73-28.28-28.02Z"/><path class="h" d="M234.73,250.32c-14.71,.7-26.01,14.27-25.24,30.31,.77,16.03,13.31,28.46,28.02,27.76,14.71-.7,26.01-14.27,25.24-30.31-.77-16.03-13.31-28.46-28.02-27.76Z"/><path class="af" d="M234.74,250.59c-14.57,.7-25.76,14.14-25,30.03,.76,15.88,13.19,28.2,27.76,27.5,14.57-.7,25.76-14.14,25-30.03-.76-15.88-13.19-28.2-27.76-27.5Z"/><path class="ae" d="M234.75,250.86c-14.43,.69-25.52,14.01-24.77,29.74,.75,15.73,13.06,27.93,27.49,27.24,14.43-.69,25.52-14.01,24.77-29.74-.75-15.73-13.06-27.93-27.49-27.24Z"/><path class="bi" d="M234.77,251.13c-14.29,.68-25.28,13.87-24.53,29.46,.75,15.58,12.94,27.66,27.23,26.98,14.29-.68,25.28-13.87,24.53-29.46-.75-15.58-12.94-27.66-27.23-26.98Z"/><path class="bx" d="M234.78,251.4c-14.16,.68-25.03,13.74-24.3,29.18,.74,15.43,12.81,27.4,26.97,26.72,14.16-.68,25.04-13.74,24.3-29.18-.74-15.44-12.81-27.4-26.97-26.72Z"/><path class="ao" d="M234.79,251.67c-14.02,.67-24.79,13.61-24.06,28.89,.73,15.28,12.69,27.13,26.71,26.46,14.02-.67,24.79-13.61,24.06-28.89-.73-15.29-12.69-27.13-26.71-26.46Z"/><path class="ce" d="M234.81,251.95c-13.88,.66-24.55,13.47-23.82,28.61,.72,15.14,12.56,26.87,26.45,26.2,13.88-.67,24.55-13.47,23.82-28.61-.72-15.14-12.56-26.87-26.45-26.2Z"/><path class="br" d="M234.82,252.22c-13.74,.66-24.31,13.34-23.59,28.33,.72,14.99,12.44,26.6,26.18,25.94,13.74-.66,24.31-13.34,23.59-28.33-.72-14.99-12.44-26.6-26.18-25.94Z"/><path class="bu" d="M234.83,252.49c-13.61,.65-24.06,13.21-23.35,28.04,.71,14.84,12.32,26.33,25.92,25.68,13.61-.65,24.06-13.21,23.35-28.04-.71-14.84-12.32-26.33-25.92-25.68Z"/><path class="bw" d="M234.85,252.76c-13.47,.65-23.82,13.07-23.12,27.76,.7,14.69,12.19,26.07,25.66,25.42,13.47-.65,23.82-13.07,23.12-27.76-.7-14.69-12.19-26.07-25.66-25.42Z"/><path class="aq" d="M234.86,253.03c-13.33,.64-23.58,12.94-22.88,27.48,.7,14.54,12.07,25.8,25.4,25.16,13.33-.64,23.58-12.94,22.88-27.48-.69-14.54-12.07-25.8-25.4-25.16Z"/><path class="ax" d="M234.87,253.3c-13.19,.63-23.33,12.81-22.65,27.19,.69,14.39,11.94,25.54,25.14,24.9,13.19-.63,23.33-12.81,22.65-27.19-.69-14.39-11.94-25.54-25.14-24.9Z"/><path class="be" d="M234.88,253.57c-13.06,.63-23.09,12.67-22.41,26.91,.68,14.24,11.82,25.27,24.87,24.64,13.06-.63,23.09-12.67,22.41-26.91-.68-14.24-11.82-25.27-24.87-24.64Z"/><path class="bs" d="M234.9,253.84c-12.92,.62-22.85,12.54-22.17,26.63,.67,14.09,11.69,25,24.61,24.38,12.92-.62,22.85-12.54,22.17-26.63-.67-14.09-11.69-25-24.61-24.38Z"/><path class="cs" d="M234.91,254.12c-12.78,.61-22.6,12.41-21.94,26.34,.67,13.94,11.57,24.74,24.35,24.13,12.78-.61,22.6-12.41,21.94-26.34-.67-13.94-11.57-24.74-24.35-24.13Z"/><path class="ab" d="M234.92,254.39c-12.64,.61-22.36,12.27-21.7,26.06,.66,13.79,11.44,24.47,24.09,23.87,12.64-.61,22.36-12.27,21.7-26.06-.66-13.79-11.44-24.47-24.09-23.87Z"/><path class="ah" d="M234.94,254.66c-12.51,.6-22.12,12.14-21.47,25.78,.65,13.64,11.32,24.21,23.83,23.61,12.51-.6,22.12-12.14,21.47-25.78-.65-13.64-11.32-24.21-23.83-23.61Z"/><path class="at" d="M234.95,254.93c-12.37,.59-21.87,12.01-21.23,25.49,.65,13.49,11.2,23.94,23.57,23.35,12.37-.59,21.88-12.01,21.23-25.49-.64-13.49-11.2-23.94-23.57-23.35Z"/><path class="an" d="M234.96,255.2c-12.23,.59-21.63,11.87-20.99,25.21,.64,13.34,11.07,23.67,23.3,23.09,12.23-.59,21.63-11.87,20.99-25.21-.64-13.34-11.07-23.67-23.3-23.09Z"/><path class="cy" d="M234.98,255.47c-12.09,.58-21.39,11.74-20.76,24.93,.63,13.19,10.95,23.41,23.04,22.83,12.09-.58,21.39-11.74,20.76-24.93-.63-13.19-10.95-23.41-23.04-22.83Z"/><path class="g" d="M234.99,255.74c-11.96,.57-21.15,11.61-20.52,24.64,.62,13.04,10.82,23.14,22.78,22.57,11.96-.57,21.15-11.61,20.52-24.64-.62-13.04-10.82-23.14-22.78-22.57Z"/><path class="l" d="M235,256.02c-11.82,.57-20.9,11.47-20.29,24.36,.62,12.89,10.7,22.88,22.52,22.31,11.82-.57,20.9-11.47,20.29-24.36-.62-12.89-10.7-22.88-22.52-22.31Z"/><path class="cj" d="M235.01,256.29c-11.68,.56-20.66,11.34-20.05,24.08,.61,12.74,10.57,22.61,22.26,22.05,11.68-.56,20.66-11.34,20.05-24.08-.61-12.74-10.57-22.61-22.26-22.05Z"/><path class="cg" d="M235.03,256.56c-11.54,.55-20.42,11.21-19.81,23.79,.6,12.59,10.45,22.34,21.99,21.79,11.54-.55,20.42-11.21,19.81-23.79-.6-12.59-10.45-22.34-21.99-21.79Z"/><path class="cr" d="M235.04,256.83c-11.41,.55-20.17,11.07-19.58,23.51,.59,12.44,10.33,22.08,21.73,21.53,11.41-.55,20.17-11.07,19.58-23.51-.59-12.44-10.32-22.08-21.73-21.53Z"/><path class="ch" d="M235.05,257.1c-11.27,.54-19.93,10.94-19.34,23.23,.59,12.29,10.2,21.81,21.47,21.27,11.27-.54,19.93-10.94,19.34-23.23-.59-12.29-10.2-21.81-21.47-21.27Z"/><path class="cf" d="M235.07,257.37c-11.13,.53-19.69,10.81-19.11,22.94,.58,12.14,10.08,21.55,21.21,21.01,11.13-.53,19.69-10.81,19.11-22.94-.58-12.14-10.08-21.55-21.21-21.01Z"/><path class="by" d="M235.08,257.64c-11,.53-19.44,10.67-18.87,22.66,.57,11.99,9.95,21.28,20.95,20.75,11-.53,19.44-10.67,18.87-22.66-.57-11.99-9.95-21.28-20.95-20.75Z"/></g><g class="bo"><path class="ca" d="M341.78,230.77c-23.95,1.15-42.44,21.51-41.3,45.49,1.15,23.98,21.49,42.48,45.45,41.34,23.95-1.15,42.44-21.51,41.3-45.49-1.15-23.98-21.49-42.48-45.45-41.34Z"/><path class="bj" d="M341.8,231.05c-23.8,1.14-42.18,21.38-41.04,45.21,1.14,23.83,21.36,42.22,45.16,41.08,23.8-1.14,42.18-21.38,41.04-45.21-1.14-23.83-21.36-42.22-45.16-41.08Z"/><path class="ay" d="M341.81,231.32c-23.65,1.13-41.91,21.25-40.78,44.92,1.13,23.68,21.23,41.95,44.88,40.82,23.65-1.13,41.91-21.25,40.78-44.92-1.13-23.68-21.23-41.95-44.88-40.82Z"/><path class="k" d="M341.82,231.59c-23.5,1.13-41.65,21.11-40.52,44.64,1.12,23.53,21.09,41.69,44.6,40.56,23.5-1.13,41.65-21.11,40.52-44.64-1.12-23.53-21.09-41.69-44.6-40.56Z"/><path class="bq" d="M341.84,231.86c-23.35,1.12-41.38,20.98-40.26,44.35,1.12,23.38,20.96,41.42,44.31,40.3,23.36-1.12,41.38-20.98,40.26-44.35-1.12-23.38-20.96-41.42-44.31-40.3Z"/><path class="bc" d="M341.85,232.13c-23.21,1.11-41.12,20.84-40.01,44.07,1.11,23.23,20.82,41.16,44.03,40.04,23.21-1.11,41.12-20.84,40.01-44.07-1.11-23.23-20.82-41.16-44.03-40.04Z"/><path class="co" d="M341.86,232.4c-23.06,1.1-40.85,20.71-39.75,43.79,1.1,23.08,20.69,40.89,43.74,39.79,23.06-1.1,40.85-20.71,39.75-43.79-1.1-23.08-20.69-40.89-43.74-39.79Z"/><path class="cq" d="M341.88,232.67c-22.91,1.1-40.59,20.57-39.49,43.5,1.1,22.93,20.55,40.62,43.46,39.53,22.91-1.1,40.59-20.57,39.49-43.5-1.1-22.93-20.55-40.62-43.46-39.53Z"/><path class="cu" d="M341.89,232.95c-22.76,1.09-40.32,20.44-39.23,43.22,1.09,22.78,20.42,40.36,43.17,39.27,22.76-1.09,40.32-20.44,39.23-43.22-1.09-22.78-20.42-40.36-43.17-39.27Z"/><path class="ar" d="M341.9,233.22c-22.61,1.08-40.05,20.3-38.97,42.93,1.08,22.63,20.29,40.09,42.89,39.01,22.61-1.08,40.06-20.3,38.97-42.93-1.08-22.63-20.29-40.09-42.89-39.01Z"/><path class="cm" d="M341.91,233.49c-22.46,1.08-39.79,20.17-38.71,42.65,1.07,22.48,20.15,39.83,42.61,38.75,22.46-1.08,39.79-20.17,38.71-42.65-1.07-22.48-20.15-39.83-42.61-38.75Z"/><path class="ap" d="M341.93,233.76c-22.31,1.07-39.52,20.04-38.46,42.36,1.07,22.33,20.02,39.56,42.32,38.49,22.31-1.07,39.52-20.04,38.46-42.36-1.07-22.33-20.02-39.56-42.32-38.49Z"/><path class="ag" d="M341.94,234.03c-22.16,1.06-39.26,19.9-38.2,42.08,1.06,22.18,19.88,39.3,42.04,38.24,22.16-1.06,39.26-19.9,38.2-42.08-1.06-22.18-19.88-39.3-42.04-38.24Z"/><path class="ct" d="M341.95,234.3c-22.01,1.05-38.99,19.77-37.94,41.79,1.05,22.03,19.75,39.03,41.75,37.98,22.01-1.05,38.99-19.77,37.94-41.8-1.05-22.03-19.75-39.03-41.75-37.98Z"/><path class="ai" d="M341.97,234.57c-21.86,1.05-38.73,19.63-37.68,41.51,1.05,21.88,19.61,38.77,41.47,37.72,21.86-1.05,38.73-19.63,37.68-41.51-1.05-21.88-19.61-38.77-41.47-37.72Z"/><path class="cb" d="M341.98,234.84c-21.71,1.04-38.46,19.5-37.42,41.23,1.04,21.73,19.48,38.5,41.19,37.46,21.71-1.04,38.46-19.5,37.42-41.23-1.04-21.73-19.48-38.5-41.19-37.46Z"/><path class="cp" d="M341.99,235.12c-21.56,1.03-38.2,19.36-37.17,40.94,1.03,21.58,19.34,38.24,40.9,37.2,21.56-1.03,38.2-19.36,37.17-40.94-1.03-21.58-19.34-38.24-40.9-37.2Z"/><path class="bd" d="M342.01,235.39c-21.41,1.03-37.93,19.23-36.91,40.66,1.02,21.43,19.21,37.97,40.62,36.94,21.41-1.03,37.93-19.23,36.91-40.66-1.02-21.43-19.21-37.97-40.62-36.94Z"/><path class="da" d="M342.02,235.66c-21.26,1.02-37.67,19.09-36.65,40.37,1.02,21.28,19.08,37.7,40.33,36.69,21.26-1.02,37.67-19.09,36.65-40.37-1.02-21.28-19.08-37.7-40.33-36.69Z"/><path class="i" d="M342.03,235.93c-21.11,1.01-37.4,18.96-36.39,40.09,1.01,21.13,18.94,37.44,40.05,36.43,21.11-1.01,37.4-18.96,36.39-40.09-1.01-21.13-18.94-37.44-40.05-36.43Z"/><path class="cl" d="M342.04,236.2c-20.96,1-37.14,18.83-36.13,39.8,1,20.98,18.81,37.17,39.77,36.17,20.96-1,37.14-18.83,36.13-39.8-1-20.98-18.81-37.17-39.77-36.17Z"/><path class="cv" d="M342.06,236.47c-20.81,1-36.87,18.69-35.88,39.52,1,20.83,18.67,36.91,39.48,35.91,20.81-1,36.87-18.69,35.88-39.52-1-20.83-18.67-36.91-39.48-35.91Z"/><path class="c`" d="M342.07,236.74c-20.66,.99-36.61,18.56-35.62,39.24,.99,20.68,18.54,36.64,39.2,35.65,20.66-.99,36.61-18.56,35.62-39.24-.99-20.68-18.54-36.64-39.2-35.65Z"/><path class="ci" d="M342.08,237.02c-20.51,.98-36.34,18.42-35.36,38.95,.98,20.53,18.4,36.38,38.91,35.39,20.51-.98,36.34-18.42,35.36-38.95-.98-20.53-18.4-36.38-38.91-35.39Z"/><path class="bt" d="M342.1,237.29c-20.36,.98-36.08,18.29-35.1,38.67,.97,20.38,18.27,36.11,38.63,35.14,20.36-.98,36.08-18.29,35.1-38.67-.97-20.38-18.27-36.11-38.63-35.14Z"/><path class="bm" d="M342.11,237.56c-20.21,.97-35.81,18.15-34.84,38.38,.97,20.23,18.14,35.85,38.35,34.88,20.21-.97,35.81-18.15,34.84-38.38-.97-20.23-18.14-35.85-38.35-34.88Z"/><path class="dc" d="M342.12,237.83c-20.06,.96-35.55,18.02-34.59,38.1,.96,20.08,18,35.58,38.06,34.62,20.06-.96,35.55-18.02,34.59-38.1-.96-20.08-18-35.58-38.06-34.62Z"/><path class="b`" d="M342.14,238.1c-19.91,.95-35.28,17.88-34.33,37.81,.95,19.93,17.87,35.31,37.78,34.36,19.91-.95,35.28-17.88,34.33-37.81-.95-19.93-17.87-35.31-37.78-34.36Z"/><path class="as" d="M342.15,238.37c-19.76,.95-35.01,17.75-34.07,37.53,.95,19.78,17.73,35.05,37.49,34.1,19.76-.95,35.02-17.75,34.07-37.53-.95-19.78-17.73-35.05-37.49-34.1Z"/><path class="al" d="M342.16,238.64c-19.61,.94-34.75,17.62-33.81,37.25,.94,19.63,17.6,34.78,37.21,33.84,19.61-.94,34.75-17.62,33.81-37.25-.94-19.63-17.6-34.78-37.21-33.84Z"/><path class="bb" d="M342.17,238.91c-19.46,.93-34.48,17.48-33.55,36.96,.93,19.48,17.46,34.52,36.93,33.59,19.46-.93,34.48-17.48,33.55-36.96-.93-19.48-17.46-34.52-36.93-33.58Z"/><path class="cw" d="M342.19,239.19c-19.31,.93-34.22,17.35-33.29,36.68,.92,19.33,17.33,34.25,36.64,33.33,19.31-.93,34.22-17.35,33.29-36.68-.92-19.33-17.33-34.25-36.64-33.33Z"/><path class="d`" d="M342.2,239.46c-19.16,.92-33.95,17.21-33.04,36.39,.92,19.18,17.2,33.99,36.36,33.07,19.16-.92,33.95-17.21,33.04-36.39-.92-19.18-17.2-33.99-36.36-33.07Z"/><path class="bf" d="M342.21,239.73c-19.01,.91-33.69,17.08-32.78,36.11,.91,19.03,17.06,33.72,36.07,32.81,19.01-.91,33.69-17.08,32.78-36.11-.91-19.03-17.06-33.72-36.07-32.81Z"/><path class="au" d="M342.23,240c-18.86,.9-33.42,16.94-32.52,35.82,.9,18.88,16.93,33.46,35.79,32.55,18.86-.9,33.42-16.94,32.52-35.82-.9-18.88-16.93-33.46-35.79-32.55Z"/><path class="ck" d="M342.24,240.27c-18.71,.9-33.16,16.81-32.26,35.54,.9,18.73,16.79,33.19,35.51,32.29,18.71-.9,33.16-16.81,32.26-35.54-.9-18.73-16.79-33.19-35.51-32.29Z"/><path class="bk" d="M342.25,240.54c-18.56,.89-32.89,16.67-32,35.26,.89,18.58,16.66,32.92,35.22,32.04,18.56-.89,32.89-16.67,32-35.26-.89-18.58-16.66-32.92-35.22-32.03Z"/><path class="aw" d="M342.26,240.81c-18.41,.88-32.63,16.54-31.75,34.97,.88,18.43,16.52,32.66,34.94,31.78,18.41-.88,32.63-16.54,31.75-34.97-.88-18.43-16.52-32.66-34.94-31.78Z"/><path class="aj" d="M342.28,241.09c-18.26,.88-32.36,16.4-31.49,34.69,.87,18.28,16.39,32.39,34.65,31.52,18.26-.88,32.36-16.41,31.49-34.69-.87-18.28-16.39-32.39-34.65-31.52Z"/><path class="ak" d="M342.29,241.36c-18.12,.87-32.1,16.27-31.23,34.4,.87,18.13,16.25,32.13,34.37,31.26,18.12-.87,32.1-16.27,31.23-34.4-.87-18.13-16.26-32.13-34.37-31.26Z"/><path class="av" d="M342.3,241.63c-17.97,.86-31.83,16.14-30.97,34.12,.86,17.98,16.12,31.86,34.09,31,17.97-.86,31.83-16.14,30.97-34.12-.86-17.98-16.12-31.86-34.09-31Z"/><path class="bh" d="M342.32,241.9c-17.82,.85-31.57,16-30.71,33.83,.85,17.83,15.99,31.6,33.8,30.74,17.82-.85,31.57-16,30.71-33.83-.85-17.83-15.99-31.6-33.8-30.74Z"/><path class="ba" d="M342.33,242.17c-17.67,.85-31.3,15.87-30.46,33.55,.85,17.68,15.85,31.33,33.52,30.49,17.67-.85,31.3-15.87,30.46-33.55-.85-17.68-15.85-31.33-33.52-30.48Z"/><path class="b" d="M342.34,242.44c-17.52,.84-31.04,15.73-30.2,33.27,.84,17.53,15.72,31.07,33.23,30.23,17.52-.84,31.04-15.73,30.2-33.27-.84-17.53-15.72-31.07-33.23-30.23Z"/><path class="bv" d="M342.36,242.71c-17.37,.83-30.77,15.6-29.94,32.98,.83,17.38,15.58,30.8,32.95,29.97,17.37-.83,30.77-15.6,29.94-32.98-.83-17.38-15.58-30.8-32.95-29.97Z"/><path class="bl" d="M342.37,242.98c-17.22,.82-30.51,15.46-29.68,32.7,.82,17.23,15.45,30.54,32.67,29.71,17.22-.82,30.51-15.46,29.68-32.7-.82-17.23-15.45-30.53-32.67-29.71Z"/><path class="ac" d="M342.38,243.26c-17.07,.82-30.24,15.33-29.42,32.41,.82,17.08,15.31,30.27,32.38,29.45,17.07-.82,30.24-15.33,29.42-32.41-.82-17.08-15.32-30.27-32.38-29.45Z"/><path class="cd" d="M342.39,243.53c-16.92,.81-29.97,15.19-29.17,32.13,.81,16.93,15.18,30,32.1,29.19,16.92-.81,29.98-15.19,29.17-32.13-.81-16.93-15.18-30-32.1-29.19Z"/><path class="bn" d="M342.41,243.8c-16.77,.8-29.71,15.06-28.91,31.84,.8,16.78,15.05,29.74,31.81,28.93,16.77-.8,29.71-15.06,28.91-31.84-.8-16.78-15.05-29.74-31.81-28.93Z"/><path class="db" d="M342.42,244.07c-16.62,.8-29.44,14.93-28.65,31.56,.8,16.63,14.91,29.47,31.53,28.68,16.62-.8,29.44-14.93,28.65-31.56-.8-16.63-14.91-29.47-31.53-28.68Z"/><path class="cn" d="M342.43,244.34c-16.47,.79-29.18,14.79-28.39,31.27,.79,16.48,14.78,29.21,31.25,28.42,16.47-.79,29.18-14.79,28.39-31.28-.79-16.48-14.78-29.21-31.25-28.42Z"/><path class="j" d="M342.45,244.61c-16.32,.78-28.91,14.66-28.13,30.99,.78,16.33,14.64,28.94,30.96,28.16,16.32-.78,28.91-14.66,28.13-30.99-.78-16.33-14.64-28.94-30.96-28.16Z"/><path class="c" d="M342.46,244.88c-16.17,.77-28.65,14.52-27.87,30.71,.77,16.18,14.51,28.68,30.68,27.9,16.17-.77,28.65-14.52,27.87-30.71-.77-16.18-14.51-28.68-30.68-27.9Z"/><path class="h" d="M342.47,245.16c-16.02,.77-28.38,14.39-27.62,30.42,.77,16.03,14.37,28.41,30.39,27.64,16.02-.77,28.38-14.39,27.62-30.42-.77-16.03-14.37-28.41-30.39-27.64Z"/><path class="af" d="M342.49,245.43c-15.87,.76-28.12,14.25-27.36,30.14,.76,15.88,14.24,28.15,30.11,27.38,15.87-.76,28.12-14.25,27.36-30.14-.76-15.88-14.24-28.15-30.11-27.38Z"/><path class="ae" d="M342.5,245.7c-15.72,.75-27.85,14.12-27.1,29.85,.75,15.73,14.11,27.88,29.82,27.13,15.72-.75,27.85-14.12,27.1-29.85-.75-15.73-14.11-27.88-29.82-27.13Z"/><path class="bi" d="M342.51,245.97c-15.57,.75-27.59,13.98-26.84,29.57,.75,15.59,13.97,27.61,29.54,26.87,15.57-.75,27.59-13.98,26.84-29.57-.75-15.58-13.97-27.61-29.54-26.87Z"/><path class="bx" d="M342.52,246.24c-15.42,.74-27.32,13.85-26.58,29.28,.74,15.44,13.84,27.35,29.26,26.61,15.42-.74,27.32-13.85,26.58-29.29-.74-15.43-13.84-27.35-29.26-26.61Z"/><path class="ao" d="M342.54,246.51c-15.27,.73-27.06,13.72-26.33,29,.73,15.29,13.7,27.08,28.97,26.35,15.27-.73,27.06-13.72,26.33-29-.73-15.28-13.7-27.08-28.97-26.35Z"/><path class="ce" d="M342.55,246.78c-15.12,.72-26.79,13.58-26.07,28.72,.72,15.14,13.57,26.82,28.69,26.09,15.12-.72,26.79-13.58,26.07-28.72-.72-15.14-13.57-26.82-28.69-26.09Z"/><path class="br" d="M342.56,247.05c-14.97,.72-26.53,13.45-25.81,28.43,.72,14.99,13.43,26.55,28.4,25.83,14.97-.72,26.53-13.45,25.81-28.43-.72-14.99-13.43-26.55-28.4-25.83Z"/><path class="bu" d="M342.58,247.33c-14.82,.71-26.26,13.31-25.55,28.15,.71,14.84,13.3,26.29,28.12,25.58,14.82-.71,26.26-13.31,25.55-28.15-.71-14.84-13.3-26.29-28.12-25.58Z"/><path class="bw" d="M342.59,247.6c-14.67,.7-26,13.18-25.29,27.86,.7,14.69,13.16,26.02,27.84,25.32,14.67-.7,26-13.18,25.29-27.86-.7-14.69-13.17-26.02-27.84-25.32Z"/><path class="aq" d="M342.6,247.87c-14.52,.7-25.73,13.04-25.04,27.58,.7,14.54,13.03,25.76,27.55,25.06,14.52-.7,25.73-13.04,25.04-27.58-.7-14.54-13.03-25.76-27.55-25.06Z"/><path class="ax" d="M342.62,248.14c-14.37,.69-25.47,12.91-24.78,27.29,.69,14.39,12.9,25.49,27.27,24.8,14.37-.69,25.47-12.91,24.78-27.29-.69-14.39-12.9-25.49-27.27-24.8Z"/><path class="be" d="M342.63,248.41c-14.22,.68-25.2,12.77-24.52,27.01,.68,14.24,12.76,25.22,26.98,24.54,14.22-.68,25.2-12.77,24.52-27.01-.68-14.24-12.76-25.22-26.98-24.54Z"/><path class="bs" d="M342.64,248.68c-14.07,.67-24.94,12.64-24.26,26.73,.67,14.09,12.63,24.96,26.7,24.28,14.07-.67,24.94-12.64,24.26-26.73-.67-14.09-12.63-24.96-26.7-24.28Z"/><path class="cs" d="M342.65,248.95c-13.92,.67-24.67,12.51-24,26.44,.67,13.94,12.49,24.69,26.42,24.03,13.92-.67,24.67-12.51,24-26.44-.67-13.94-12.49-24.69-26.42-24.03Z"/><path class="ab" d="M342.67,249.23c-13.77,.66-24.4,12.37-23.75,26.16,.66,13.79,12.36,24.43,26.13,23.77,13.77-.66,24.4-12.37,23.75-26.16-.66-13.79-12.36-24.43-26.13-23.77Z"/><path class="ah" d="M342.68,249.5c-13.62,.65-24.14,12.24-23.49,25.87,.65,13.64,12.22,24.16,25.85,23.51,13.62-.65,24.14-12.24,23.49-25.87-.65-13.64-12.23-24.16-25.85-23.51Z"/><path class="at" d="M342.69,249.77c-13.47,.65-23.87,12.1-23.23,25.59,.65,13.49,12.09,23.9,25.56,23.25,13.47-.65,23.87-12.1,23.23-25.59-.65-13.49-12.09-23.9-25.56-23.25Z"/><path class="an" d="M342.71,250.04c-13.32,.64-23.61,11.97-22.97,25.3,.64,13.34,11.96,23.63,25.28,22.99,13.32-.64,23.61-11.97,22.97-25.3-.64-13.34-11.96-23.63-25.28-22.99Z"/><path class="cy" d="M342.72,250.31c-13.17,.63-23.34,11.83-22.71,25.02,.63,13.19,11.82,23.37,25,22.73,13.17-.63,23.34-11.83,22.71-25.02-.63-13.19-11.82-23.37-25-22.73Z"/><path class="g" d="M342.73,250.58c-13.03,.62-23.08,11.7-22.45,24.74,.62,13.04,11.69,23.1,24.71,22.48,13.02-.62,23.08-11.7,22.45-24.74-.62-13.04-11.69-23.1-24.71-22.48Z"/><path class="l" d="M342.75,250.85c-12.88,.62-22.81,11.56-22.2,24.45,.62,12.89,11.55,22.84,24.43,22.22,12.87-.62,22.81-11.56,22.2-24.45-.62-12.89-11.55-22.83-24.43-22.22Z"/><path class="cj" d="M342.76,251.12c-12.73,.61-22.55,11.43-21.94,24.17,.61,12.74,11.42,22.57,24.14,21.96,12.73-.61,22.55-11.43,21.94-24.17-.61-12.74-11.42-22.57-24.14-21.96Z"/><path class="cg" d="M342.77,251.4c-12.58,.6-22.28,11.3-21.68,23.88,.6,12.59,11.28,22.3,23.86,21.7,12.58-.6,22.28-11.3,21.68-23.88-.6-12.59-11.29-22.3-23.86-21.7Z"/><path class="cr" d="M342.78,251.67c-12.43,.6-22.02,11.16-21.42,23.6,.59,12.44,11.15,22.04,23.58,21.44,12.43-.6,22.02-11.16,21.42-23.6-.59-12.44-11.15-22.04-23.58-21.44Z"/><path class="ch" d="M342.8,251.94c-12.28,.59-21.75,11.03-21.16,23.31,.59,12.29,11.02,21.77,23.29,21.18,12.28-.59,21.75-11.03,21.16-23.31-.59-12.29-11.02-21.77-23.29-21.18Z"/><path class="cf" d="M342.81,252.21c-12.13,.58-21.49,10.89-20.91,23.03,.58,12.14,10.88,21.51,23.01,20.93,12.13-.58,21.49-10.89,20.91-23.03-.58-12.14-10.88-21.51-23.01-20.93Z"/><path class="by" d="M342.82,252.48c-11.98,.57-21.22,10.76-20.65,22.75,.57,11.99,10.75,21.24,22.72,20.67,11.98-.57,21.22-10.76,20.65-22.75-.57-11.99-10.75-21.24-22.72-20.67Z"/></g><path class="am" d="M214.74,221.93l.41,8.69c18.16-7.83,54.99-6.4,54.99-6.4l3.94-20.77c-41.1-1.79-59.34,18.49-59.34,18.49Z"/><path class="am" d="M310.81,201.94l-.23,19.3s43.99-1.37,59.8,5.78l1.38-8.68s-20.79-19.64-60.94-16.4Z"/><path class="ad" d="M334.86,298.74l.02,.09c-.01-.06-.02-.09-.02-.09Z"/><path class="x" d="M291.89,94.96c-116.24,3.32-95.23,155.56-95.23,155.56,4.5-38.25,30.77-101.32,48.76-103.36,0,0,16.47,11.87,39.98,10.9,21.03-.87,49.2-17.97,49.2-17.97,20.92-1.78,48.89,47.51,54.91,99.65,1.38,11.93,10.92-2.53,10.92-2.53,0,0,22.99-146.01-108.54-142.25Z"/><path class="y" d="M342.2,108.25c.05-.01,.18-.03-.02-.01h.02Z"/><path class="y" d="M342.22,108.52h0s-.03,0,0,0Z"/><path class="y" d="M342.01,108.26h0Z"/><path class="bp" d="M325.6,315.26c-1.08-2.32-3.79-3.29-6.16-2.32-28.25,11.51-52.41,4.77-61.51,1.33-2.25-.85-8.65-1.53-9.76,.6-2.74,3.72,3.74,7.23,6.39,8.25,6.1,2.36,17.53,5.81,32.17,5.81,10.72,0,23.03-2.91,36.49-7.34,4.59-1.51,7.28-4.55,6.15-6.95l-3.77,.62Z"/><path class="am" d="M286.88,287.15s-23.53-7.23-41.45,4.74c-9.82,6.56-23.04,8.11-23.04,8.11,0,0,6.28,20.74,66.39,20.74s66.8-21.34,66.8-21.34c-18.08,2.14-36.5-22.73-68.69-12.25Z"/><path class="ca" d="M283.16,233.02s.2,.17,.54,.45c.41-2.9-.54-.45-.54-.45Z"/><path class="ca" d="M283.7,233.47c-.17,1.18-.55,3.22-1.32,6.7-1.54,6.94-5.62,11.71-11.23,15.8-5.9,4.29-12.15,8-14.81,15.18-1.87,5.06-1.77,10.73,.29,15.71,8.22,19.86,42.25,19.3,50.93,.08,10.43-23.12-19.5-49.76-23.86-53.47Z"/><path class="aa" d="M279.9,267.05c-2.06-.5-4.08-1.17-6.01-2-2.46-1.06-5.33-.23-6.93,1.92-1.06,1.42-1.96,2.99-2.63,4.79-.08,.22-.16,.45-.23,.67-1.02,3.13,.88,6.56,4.06,7.36,2.46,.62,4.94,1.14,7.43,1.56,2.08,.36,4.22-.46,5.53-2.12,.75-.95,1.5-1.92,2.24-2.91,2.55-3.44,.71-8.27-3.46-9.28Z"/><path class="f" d="M256.78,287.15c8.38,19.41,41.63,18.91,50.56,.18-16.42,3.85-34.82,4.76-50.56-.18Z"/><path class="d" d="M275.99,334.55s-8.88,14.75,10.34,14.45c19.22-.3,12.24-14.45,12.24-14.45-13.06,2.06-22.58,0-22.58,0Z"/><path class="p" d="M336.58,496.12c-61.75,1.18-57.3-102.66-57.3-102.66-12.24-.08-26.12,8.12-26.12,8.12,0,0-13.5,120.48,83.42,120.48s115.59-116.9,115.59-116.9l-29.47-8.14s-24.36,97.91-86.12,99.09Z"/><path class="s" d="M537.85,457.37c-27.03-27.19-61.31-46.42-84.05-51.69-7.24,9.81-.78,24.06-3.32,35.62-6.84,31.09-.71,63.4,15.69,90.14,28.16-20.1,52.51-45.2,71.68-74.07Z"/><path d="M235.58,251.7c-.44,4.87,3.15,9.17,8.01,9.6,4.86,.44,9.16-3.15,9.59-8.02s-3.15-9.17-8.01-9.6c-4.86-.44-9.16,3.15-9.59,8.02Z"/><path d="M324.77,252.16c-.44,4.87,3.15,9.17,8.01,9.6,4.86,.44,9.16-3.15,9.59-8.02s-3.15-9.17-8.01-9.6c-4.86-.44-9.16,3.15-9.59,8.02Z"/><path class="a`" d="M190.8,242.06l2.1,14.83s3.76-5.71,35.97-7.23c32.21-1.52,38.65,7.23,38.65,7.23l3.19-14.5c-34.35-20.48-79.92-.33-79.92-.33Z"/><path class="a`" d="M302.46,243.59l3.19,14.5s6.45-8.75,38.65-7.23c32.21,1.52,35.97,7.23,35.97,7.23l2.1-14.83s-45.56-20.15-79.92,.33Z"/><path class="t" d="M409.4,100.8c-26.25-25.29-37.83,15.58-65.54-13.63-20.15-21.23-101.79-45.11-121.18,9.73-.49,1.38-.82,2.74-1.09,4.1,0,.04-.01,.09-.02,.13-.2,1.05-.34,2.1-.43,3.14-.01,.14-.02,.27-.03,.41-.06,.94-.08,1.88-.05,2.81,0,.2,.01,.41,.02,.61,.02,.38,0,.76,.04,1.14-2.82-2.42-14.14-9.9-24.88,14.19-14.9,33.42,.15,129.02,.15,129.02,0,0,24.05-98.97,49.02-105.3h0s16.47,11.87,39.98,10.9c21.03-.87,49.2-17.97,49.2-17.97,20.92-1.78,48.89,47.51,54.91,99.65,1.38,11.93,10.92-2.53,10.92-2.53h0s35.22-111.12,8.97-136.42Z"/><path class="cx" d="M192.24,235.89h-8.35c-1.41,0-2.55,1.14-2.55,2.56v5.04c0,1.42,1.16,2.57,2.57,2.56l7.02-.06c1.39-.01,2.41-1.15,2.53-2.54,.12-1.34,.58-2.68,1.12-3.98,.71-1.7-.5-3.57-2.34-3.57Z"/><path class="v" d="M190.88,240s-3.86,39.61,38.27,39.35c42.12-.25,41.57-38.39,41.57-38.39,0,0-34.6-20.82-79.84-.96Z"/><path class="v" d="M299.73,240.96s-.55,38.13,41.57,38.39c42.12,.25,38.27-39.35,38.27-39.35-45.24-19.85-79.84,.96-79.84,.96Z"/><path class="cx" d="M268.41,237.3l1.6,18.08c3.21-2.38,8.15-4.18,13.35-4.86,8.09-1.06,16.68,1.9,20.96,7.56,1.22,1.61-2.13-14.56-3.5-20.78h-32.41Z"/><ellipse class="m" cx="299.73" cy="300" rx="282.73" ry="283"/><path class="u" d="M388.83,249.07s18.53-22.37,34.02-8.64-2.63,65.17-26.86,57.94"/><path class="f" d="M414.57,274.5c-10.16,7.43-21.54,5.91-30.08-.26,1.02,13.54-.32,39.45-18.12,66.86-14.29,22.01-47.49,31-72.52,31.59-59.71,1.4-82.09-15.5-95.81-39.44,10.02,26.56,24.59,49.49,84.8,50.32,87.16,1.19,108.88-37.09,109.16-88.97,1.05,.61,2.15,1.13,3.32,1.48,11.13,3.26,23.68-7.42,28.03-23.86,1.12-4.24,1.58-8.44,1.46-12.4-1.6,5.64-4.89,10.79-10.24,14.69Z"/><path class="f" d="M402.14,266.55l6.49,1.06c-.67-20.26,6.65-27.9,6.65-27.9-12.48-7.34-13.13,26.84-13.13,26.84Z"/><polygon class="cx" points="378.5 245.04 405.21 245.04 405.21 234.69 372.44 234.69 378.5 245.04"/></g></svg>